{
.appVersion = "1141";
DisplayStrings = (
"/circumflex",
"/circumflexcomb",
"/caron",
"/caroncomb",
"/breve",
"/brevecomb",
"/ring",
"/ringcomb",
"/tilde",
"/tildecomb"
);
classes = (
{
code = "onesuperior twosuperior threesuperior";
name = sups2;
},
{
code = "one two three";
name = sups1;
},
{
code = "zero one two three four five six seven eight nine";
name = ordn1;
}
);
copyright = "Copyright (c) 2013, Sorkin Type Co (www.sorkintype.com) with Reserved Font Name 'Gelasio'";
customParameters = (
{
name = macintoshFONDFamilyID;
value = 128;
},
{
name = macintoshFONDName;
value = Gelasio;
},
{
name = openTypeHeadFlags;
value = (
0,
1,
3,
4
);
},
{
name = description;
value = "Gelasio's metrics match Georgia's. Gelasio is a general purpose screen oriented text face based on the Romain du Roi style cold metal type seen in a \"OEuvres de Jean Racine\" printed in 1789. This pre-Baskerville style is sometimes called Reale or Transitional style. This style and a large x height make a nobel, cheerful and simple feeling hence the name Gelasio.";
},
{
name = openTypeNameLicense;
value = "This Font Software is licensed under the SIL Open Font License, Version 1.1. This license is available with a FAQ at: http://scripts.sil.org/OFL";
},
{
name = openTypeNameLicenseURL;
value = "http://scripts.sil.org/OFL";
},
{
name = openTypeNameSampleText;
value = "";
},
{
name = openTypeNameUniqueID;
value = "EbenSorkin: Gelasio Bold: 2013";
},
{
name = openTypeNameVersion;
value = "Version 1.001";
},
{
name = codePageRanges;
value = (
1252,
1250,
1254,
1257
);
},
{
name = openTypeOS2FamilyClass;
value = (
4,
3
);
},
{
name = openTypeOS2Panose;
value = (
2,
0,
8,
5,
0,
0,
0,
2,
0,
4
);
},
{
name = openTypeOS2Selection;
value = (
);
},
{
name = openTypeOS2StrikeoutPosition;
value = 549;
},
{
name = openTypeOS2StrikeoutSize;
value = 146;
},
{
name = openTypeOS2SubscriptXOffset;
value = 0;
},
{
name = openTypeOS2SubscriptXSize;
value = 1434;
},
{
name = openTypeOS2SubscriptYOffset;

glyphs = (
{
glyphname = A;
layers = (
{
anchors = (
{
name = btm;
position = "{714, -200}";
},
{
name = top;
position = "{752, 2000}";
}
);
layerId = "62CA62AF-CD91-478A-AB8B-28A62CC47DA0";
paths = (
{
closed = 1;
nodes = (
"467 0 LINE SMOOTH",
"490 0 OFFCURVE",
"491 36 OFFCURVE",
"491 51 CURVE SMOOTH",
"491 72 OFFCURVE",
"484 86 OFFCURVE",
"458 88 CURVE SMOOTH",
"375 95 OFFCURVE",
"293 86 OFFCURVE",
"293 120 CURVE SMOOTH",
"293 124 OFFCURVE",
"293 128 OFFCURVE",
"295 132 CURVE SMOOTH",
"389 379 LINE",
"922 379 LINE",
"1015 160 LINE SMOOTH",
"1022 142 OFFCURVE",
"1030 130 OFFCURVE",
"1030 116 CURVE SMOOTH",
"1030 93 OFFCURVE",
"959 91 OFFCURVE",
"873 88 CURVE SMOOTH",
"847 87 OFFCURVE",
"840 72 OFFCURVE",
"840 51 CURVE SMOOTH",
"840 36 OFFCURVE",
"851 0 OFFCURVE",
"874 0 CURVE SMOOTH",
"1545 0 LINE SMOOTH",
"1567 0 OFFCURVE",
"1579 36 OFFCURVE",
"1579 51 CURVE SMOOTH",
"1579 132 OFFCURVE",
"1449 40 OFFCURVE",
"1392 165 CURVE SMOOTH {name = hr02;}",
"784 1452 LINE",
"710 1452 LINE",
"169 165 LINE SMOOTH",
"117 38 OFFCURVE",
"-20 131 OFFCURVE",
"-20 51 CURVE SMOOTH {name = hr03;}",
"-20 36 OFFCURVE",
"-18 0 OFFCURVE",
"4 0 CURVE SMOOTH {name = hr01;}"
);
},
{
closed = 1;
nodes = (
"654 1040 LINE",
"872 495 LINE",
"433 495 LINE"
);
}
);
width = 1552;
}
);
unicode = 0041;
},
{
glyphname = Aogonek;
layers = (
{
layerId = "62CA62AF-CD91-478A-AB8B-28A62CC47DA0";
paths = (
{
closed = 1;
nodes = (
"467 0 LINE SMOOTH",
"490 0 OFFCURVE",
"491 36 OFFCURVE",
"491 51 CURVE SMOOTH",
"491 72 OFFCURVE",
"484 86 OFFCURVE",
"458 88 CURVE SMOOTH",
"375 95 OFFCURVE",
"293 86 OFFCURVE",
"293 120 CURVE SMOOTH",
"293 124 OFFCURVE",
"293 128 OFFCURVE",
"295 132 CURVE SMOOTH",
"389 379 LINE",
"922 379 LINE",
"1015 160 LINE SMOOTH",
"1022 142 OFFCURVE",
"1030 130 OFFCURVE",
"1030 116 CURVE SMOOTH",
"1030 93 OFFCURVE",
"959 91 OFFCURVE",
"873 88 CURVE SMOOTH",
"847 87 OFFCURVE",
"840 72 OFFCURVE",
"840 51 CURVE SMOOTH",
"840 36 OFFCURVE",
"851 0 OFFCURVE",
"874 0 CURVE SMOOTH",
"1176 0 LINE",
"1052 -53 OFFCURVE",
"917 -143 OFFCURVE",
"917 -273 CURVE SMOOTH {name = hr02;}",
"917 -365 OFFCURVE",
"995 -452 OFFCURVE",
"1147 -452 CURVE SMOOTH",
"1222 -452 OFFCURVE",
"1319 -437 OFFCURVE",
"1403 -394 CURVE",
"1417 -383 OFFCURVE",
"1390 -298 OFFCURVE",
"1380 -304 CURVE",
"1354 -315 OFFCURVE",
"1308 -330 OFFCURVE",
"1265 -330 CURVE SMOOTH",
"1208 -330 OFFCURVE",
"1155 -313 OFFCURVE",
"1155 -228 CURVE SMOOTH",
"1155 -162 OFFCURVE",
"1210 -67 OFFCURVE",
"1357 0 CURVE",
"1545 0 LINE SMOOTH",
"1567 0 OFFCURVE",
"1579 36 OFFCURVE",
"1579 51 CURVE SMOOTH",
"1579 132 OFFCURVE",
"1449 40 OFFCURVE",
"1392 165 CURVE SMOOTH {name = hr03;}",
"790 1482 LINE",
"705 1482 LINE",
"169 165 LINE SMOOTH",
"117 38 OFFCURVE",
"-20 131 OFFCURVE",
"-20 51 CURVE SMOOTH {name = hr04;}",
"-20 36 OFFCURVE",
"-18 0 OFFCURVE",
"4 0 CURVE SMOOTH {name = hr01;}"
);
},
{
closed = 1;
nodes = (
"641 1040 LINE",
"872 495 LINE",
"433 495 LINE"
);
}
);
width = 1552;
}
);
unicode = 0104;
},
{
glyphname = AE;
layers = (
{
anchors = (
{
name = btm;
position = "{990, -200}";
},
{
name = top;
position = "{1295, 2000}";
}
);
layerId = "62CA62AF-CD91-478A-AB8B-28A62CC47DA0";
paths = (
{
closed = 1;
nodes = (
"481 0 LINE SMOOTH",
"504 0 OFFCURVE",
"515 36 OFFCURVE",
"515 51 CURVE SMOOTH",
"515 72 OFFCURVE",
"508 85 OFFCURVE",
"482 88 CURVE {name = hr02;}",
"312 88 OFFCURVE",
"284 113 OFFCURVE",
"321 186 CURVE SMOOTH",
"504 550 LINE",
"1011 550 LINE",
"1011 152 LINE SMOOTH",
"1011 108 OFFCURVE",
"920 93 OFFCURVE",
"856 88 CURVE {name = hr03;}",
"830 85 OFFCURVE",
"823 72 OFFCURVE",
"823 51 CURVE SMOOTH",
"823 36 OFFCURVE",
"834 0 OFFCURVE",
"857 0 CURVE SMOOTH",
"2134 0 LINE",
"2134 372 LINE",
"2136 395 OFFCURVE",
"2105 406 OFFCURVE",
"2085 406 CURVE SMOOTH",
"2054 406 OFFCURVE",
"2024 395 OFFCURVE",
"2016 370 CURVE SMOOTH",
"2001 320 OFFCURVE",
"1971 101 OFFCURVE",
"1828 101 CURVE SMOOTH",
"1439 101 LINE SMOOTH",
"1395 101 OFFCURVE",
"1350 124 OFFCURVE",
"1350 197 CURVE SMOOTH",
"1350 682 LINE",
"1621 682 LINE SMOOTH",
"1677 682 OFFCURVE",
"1722 546 OFFCURVE",
"1725 503 CURVE",
"1728 477 OFFCURVE",
"1753 470 OFFCURVE",
"1774 470 CURVE SMOOTH",
"1789 470 OFFCURVE",
"1815 481 OFFCURVE",
"1815 504 CURVE SMOOTH",
"1815 947 LINE SMOOTH",
"1815 970 OFFCURVE",
"1789 981 OFFCURVE",
"1774 981 CURVE SMOOTH",
"1753 981 OFFCURVE",
"1731 975 OFFCURVE",
"1728 949 CURVE SMOOTH",
"1723 909 OFFCURVE",
"1679 785 OFFCURVE",
"1627 778 CURVE",
"1350 778 LINE",
"1350 1320 LINE",
"1746 1320 LINE SMOOTH",
"1878 1320 OFFCURVE",
"1900 1175 OFFCURVE",
"1953 1093 CURVE SMOOTH",
"1968 1069 OFFCURVE",
"1992 1060 OFFCURVE",
"2013 1060 CURVE SMOOTH",
"2028 1060 OFFCURVE",
"2054 1071 OFFCURVE",
"2054 1094 CURVE",
"2019 1419 LINE",
"534 1419 LINE SMOOTH",
"511 1419 OFFCURVE",
"500 1393 OFFCURVE",
"500 1378 CURVE SMOOTH",
"500 1348 OFFCURVE",
"508 1333 OFFCURVE",
"536 1331 CURVE SMOOTH {name = hr04;}",
"585 1327 OFFCURVE",
"680 1319 OFFCURVE",
"776 1310 CURVE",
"165 165 LINE SMOOTH",
"121 82 OFFCURVE",
"28 93 OFFCURVE",
"-21 88 CURVE SMOOTH",
"-49 85 OFFCURVE",
"-57 81 OFFCURVE",
"-57 51 CURVE SMOOTH",
"-57 36 OFFCURVE",
"-45 0 OFFCURVE",
"-23 0 CURVE SMOOTH {name = hr01;}"
);
},
{
closed = 1;
nodes = (
"881 1300 LINE {name = hr06;}",
"933 1294 OFFCURVE",
"979 1288 OFFCURVE",
"1011 1283 CURVE",
"1011 646 LINE",
"552 646 LINE"
);
}
);
width = 2191;
}
);
unicode = 00C6;
},
{
glyphname = B;
layers = (
{
anchors = (
{
name = btm;
position = "{761, -200}";
},
{
name = top;
position = "{761, 2000}";
}
);
layerId = "62CA62AF-CD91-478A-AB8B-28A62CC47DA0";
paths = (
{
closed = 1;
nodes = (
"75 36 OFFCURVE",
"86 0 OFFCURVE",
"109 0 CURVE SMOOTH",
"727 0 LINE",
"730 0 LINE",
"855 0 LINE SMOOTH",
"1249 0 OFFCURVE",
"1441 139 OFFCURVE",
"1441 421 CURVE SMOOTH",
"1441 672 OFFCURVE",
"1163 772 OFFCURVE",
"987 768 CURVE",
"1132 778 OFFCURVE",
"1344 893 OFFCURVE",
"1344 1110 CURVE SMOOTH",
"1344 1329 OFFCURVE",
"1145 1419 OFFCURVE",
"794 1419 CURVE SMOOTH",
"100 1419 LINE SMOOTH",
"77 1419 OFFCURVE",
"66 1383 OFFCURVE",
"66 1368 CURVE SMOOTH",
"66 1338 OFFCURVE",
"74 1334 OFFCURVE",
"102 1331 CURVE",
"175 1326 OFFCURVE",
"284 1320 OFFCURVE",
"284 1234 CURVE SMOOTH",
"283 152 LINE SMOOTH",
"283 108 OFFCURVE",
"187 93 OFFCURVE",
"108 88 CURVE",
"82 85 OFFCURVE",
"75 72 OFFCURVE",
"75 51 CURVE SMOOTH {name = hr00;}"
);
},
{
closed = 1;
nodes = (
"620 1322 LINE",
"733 1322 LINE SMOOTH",
"902 1322 OFFCURVE",
"1017 1256 OFFCURVE",
"1017 1073 CURVE SMOOTH",
"1017 869 OFFCURVE",
"861 802 OFFCURVE",
"706 802 CURVE SMOOTH",
"620 802 LINE"
);
},
{
closed = 1;
nodes = (
"620 706 LINE",
"709 706 LINE SMOOTH",
"853 706 OFFCURVE",
"1077 713 OFFCURVE",
"1077 418 CURVE SMOOTH",
"1077 141 OFFCURVE",
"915 101 OFFCURVE",
"776 101 CURVE SMOOTH",
"621 101 OFFCURVE",
"620 138 OFFCURVE",
"620 138 CURVE"
);
}
);
width = 1550;
}
);
unicode = 0042;
},
{
glyphname = C;
layers = (
{
anchors = (
{
name = btm;
position = "{829, -200}";
},
{
name = top;
position = "{837, 2000}";
}
);
layerId = "62CA62AF-CD91-478A-AB8B-28A62CC47DA0";
paths = (
{
closed = 1;
nodes = (
"81 144 OFFCURVE",
"491 -30 OFFCURVE",
"892 -30 CURVE SMOOTH",
"1130 -30 OFFCURVE",
"1330 80 OFFCURVE",
"1334 108 CURVE SMOOTH",
"1362 402 LINE",
"1362 425 OFFCURVE",
"1307 436 OFFCURVE",
"1291 436 CURVE SMOOTH",
"1269 436 OFFCURVE",
"1248 429 OFFCURVE",
"1243 403 CURVE SMOOTH",
"1214 220 OFFCURVE",
"1094 65 OFFCURVE",
"891 65 CURVE SMOOTH",
"731 65 OFFCURVE",
"460 152 OFFCURVE",
"460 706 CURVE SMOOTH",
"460 1289 OFFCURVE",
"706 1353 OFFCURVE",
"869 1353 CURVE SMOOTH",
"1097 1353 OFFCURVE",
"1179 1210 OFFCURVE",
"1214 1039 CURVE SMOOTH",
"1220 1013 OFFCURVE",
"1283 1008 OFFCURVE",
"1305 1011 CURVE SMOOTH",
"1322 1013 OFFCURVE",
"1364 1028 OFFCURVE",
"1361 1051 CURVE",
"1344 1361 LINE",
"1290 1360 OFFCURVE",
"1196 1449 OFFCURVE",
"871 1449 CURVE SMOOTH",
"519 1449 OFFCURVE",
"81 1235 OFFCURVE",
"81 706 CURVE SMOOTH {name = hr00;}"
);
}
);
width = 1464;
}
);
unicode = 0043;
},
{
glyphname = Ccedilla;
layers = (
{
layerId = "62CA62AF-CD91-478A-AB8B-28A62CC47DA0";
paths = (
{
closed = 1;
nodes = (
"81 217 OFFCURVE",
"391 21 OFFCURVE",
"736 -21 CURVE {name = hr02;}",
"729 -144 LINE",
"731 -144 LINE",
"729 -145 LINE",
"850 -177 OFFCURVE",
"868 -214 OFFCURVE",
"868 -258 CURVE SMOOTH {name = hr03;}",
"868 -313 OFFCURVE",
"782 -333 OFFCURVE",
"638 -316 CURVE SMOOTH",
"611 -313 OFFCURVE",
"602 -354 OFFCURVE",
"602 -380 CURVE SMOOTH",
"602 -395 OFFCURVE",
"607 -403 OFFCURVE",
"622 -408 CURVE SMOOTH",
"658 -420 OFFCURVE",
"720 -438 OFFCURVE",
"829 -438 CURVE SMOOTH",
"1022 -438 OFFCURVE",
"1113 -368 OFFCURVE",
"1113 -279 CURVE SMOOTH",
"1113 -185 OFFCURVE",
"1044 -114 OFFCURVE",
"896 -91 CURVE {name = hr04;}",
"896 -30 LINE",
"1132 -29 OFFCURVE",
"1330 80 OFFCURVE",
"1334 108 CURVE",
"1362 402 LINE",
"1362 425 OFFCURVE",
"1307 436 OFFCURVE",
"1291 436 CURVE SMOOTH",
"1269 436 OFFCURVE",
"1248 429 OFFCURVE",
"1243 403 CURVE",
"1214 220 OFFCURVE",
"1094 65 OFFCURVE",
"891 65 CURVE SMOOTH",
"731 65 OFFCURVE",
"460 152 OFFCURVE",
"460 706 CURVE SMOOTH",
"460 1289 OFFCURVE",
"706 1353 OFFCURVE",
"869 1353 CURVE SMOOTH",
"1097 1353 OFFCURVE",
"1179 1210 OFFCURVE",
"1214 1039 CURVE SMOOTH",
"1220 1013 OFFCURVE",
"1283 1008 OFFCURVE",
"1305 1011 CURVE SMOOTH",
"1322 1013 OFFCURVE",
"1364 1028 OFFCURVE",
"1361 1051 CURVE",
"1344 1361 LINE",
"1290 1360 OFFCURVE",
"1196 1449 OFFCURVE",
"871 1449 CURVE SMOOTH",
"519 1449 OFFCURVE",
"81 1235 OFFCURVE",
"81 706 CURVE SMOOTH {name = hr01;}"
);
}
);
width = 1464;
}
);
unicode = 00C7;
},
{
glyphname = D;
layers = (
{
anchors = (
{
name = btm;
position = "{835, -200}";
},
{
name = top;
position = "{835, 2000}";
}
);
layerId = "62CA62AF-CD91-478A-AB8B-28A62CC47DA0";
paths = (
{
closed = 1;
nodes = (
"105 36 OFFCURVE",
"116 0 OFFCURVE",
"139 0 CURVE SMOOTH",
"897 0 LINE SMOOTH",
"1197 0 OFFCURVE",
"1635 217 OFFCURVE",
"1635 738 CURVE SMOOTH",
"1635 1083 OFFCURVE",
"1369 1417 OFFCURVE",
"825 1419 CURVE",
"129 1419 LINE SMOOTH",
"106 1419 OFFCURVE",
"95 1383 OFFCURVE",
"95 1368 CURVE SMOOTH",
"95 1338 OFFCURVE",
"103 1334 OFFCURVE",
"131 1331 CURVE SMOOTH",
"192 1326 OFFCURVE",
"283 1320 OFFCURVE",
"283 1234 CURVE SMOOTH",
"283 152 LINE SMOOTH",
"283 108 OFFCURVE",
"202 93 OFFCURVE",
"138 88 CURVE",
"112 85 OFFCURVE",
"105 72 OFFCURVE",
"105 51 CURVE SMOOTH {name = hr00;}"
);
},
{
closed = 1;
nodes = (
"621 1322 LINE",
"818 1322 LINE SMOOTH",
"1051 1322 OFFCURVE",
"1245 1229 OFFCURVE",
"1245 734 CURVE SMOOTH",
"1245 161 OFFCURVE",
"1071 101 OFFCURVE",
"828 101 CURVE SMOOTH",
"654 101 OFFCURVE",
"620 140 OFFCURVE",
"620 168 CURVE SMOOTH"
);
}
);
width = 1708;
}
);
unicode = 0044;
},
{
glyphname = Eth;
layers = (
{
layerId = "62CA62AF-CD91-478A-AB8B-28A62CC47DA0";
paths = (
{
closed = 1;
nodes = (
"105 36 OFFCURVE",
"116 0 OFFCURVE",
"139 0 CURVE SMOOTH",
"897 0 LINE SMOOTH",
"1197 0 OFFCURVE",
"1635 217 OFFCURVE",
"1635 738 CURVE SMOOTH",
"1635 1083 OFFCURVE",
"1369 1417 OFFCURVE",
"825 1419 CURVE",
"129 1419 LINE SMOOTH",
"106 1419 OFFCURVE",
"95 1383 OFFCURVE",
"95 1368 CURVE SMOOTH",
"95 1338 OFFCURVE",
"103 1334 OFFCURVE",
"131 1331 CURVE SMOOTH",
"192 1326 OFFCURVE",
"283 1320 OFFCURVE",
"283 1234 CURVE SMOOTH",
"283 791 LINE",
"149 791 LINE",
"135 785 OFFCURVE",
"125 753 OFFCURVE",
"125 728 CURVE SMOOTH",
"125 712 OFFCURVE",
"133 695 OFFCURVE",
"149 694 CURVE",
"283 694 LINE",
"283 152 LINE SMOOTH",
"283 108 OFFCURVE",
"202 93 OFFCURVE",
"138 88 CURVE",
"112 85 OFFCURVE",
"105 72 OFFCURVE",
"105 51 CURVE SMOOTH {name = hr00;}"
);
},
{
closed = 1;
nodes = (
"620 694 LINE",
"918 694 LINE",
"932 700 OFFCURVE",
"942 722 OFFCURVE",
"942 747 CURVE SMOOTH",
"942 763 OFFCURVE",
"934 790 OFFCURVE",
"918 791 CURVE",
"620 791 LINE",
"621 1322 LINE",
"818 1322 LINE SMOOTH",
"1051 1322 OFFCURVE",
"1245 1229 OFFCURVE",
"1245 734 CURVE SMOOTH",
"1245 161 OFFCURVE",
"1071 101 OFFCURVE",
"828 101 CURVE SMOOTH",
"654 101 OFFCURVE",
"620 140 OFFCURVE",
"620 168 CURVE SMOOTH"
);
}
);
width = 1708;
}
);
unicode = 00D0;
},
{
glyphname = Dcroat;
layers = (
{
layerId = "62CA62AF-CD91-478A-AB8B-28A62CC47DA0";
paths = (
{
closed = 1;
nodes = (
"105 36 OFFCURVE",
"116 0 OFFCURVE",
"139 0 CURVE SMOOTH",
"897 0 LINE SMOOTH",
"1197 0 OFFCURVE",
"1635 217 OFFCURVE",
"1635 738 CURVE SMOOTH",
"1635 1083 OFFCURVE",
"1369 1417 OFFCURVE",
"825 1419 CURVE",
"129 1419 LINE SMOOTH",
"106 1419 OFFCURVE",
"95 1383 OFFCURVE",
"95 1368 CURVE SMOOTH",
"95 1338 OFFCURVE",
"103 1334 OFFCURVE",
"131 1331 CURVE SMOOTH",
"192 1326 OFFCURVE",
"283 1320 OFFCURVE",
"283 1234 CURVE SMOOTH",
"283 791 LINE",
"149 791 LINE",
"135 785 OFFCURVE",
"125 753 OFFCURVE",
"125 728 CURVE SMOOTH",
"125 712 OFFCURVE",
"133 695 OFFCURVE",
"149 694 CURVE",
"283 694 LINE",
"283 152 LINE SMOOTH",
"283 108 OFFCURVE",
"202 93 OFFCURVE",
"138 88 CURVE",
"112 85 OFFCURVE",
"105 72 OFFCURVE",
"105 51 CURVE SMOOTH {name = hr00;}"
);
},
{
closed = 1;
nodes = (
"620 694 LINE",
"918 694 LINE",
"932 700 OFFCURVE",
"942 722 OFFCURVE",
"942 747 CURVE SMOOTH",
"942 763 OFFCURVE",
"934 790 OFFCURVE",
"918 791 CURVE",
"620 791 LINE",
"621 1322 LINE",
"818 1322 LINE SMOOTH",
"1051 1322 OFFCURVE",
"1245 1229 OFFCURVE",
"1245 734 CURVE SMOOTH",
"1245 161 OFFCURVE",
"1071 101 OFFCURVE",
"828 101 CURVE SMOOTH",
"654 101 OFFCURVE",
"620 140 OFFCURVE",
"620 168 CURVE SMOOTH"
);
}
);
width = 1708;
}
);
unicode = 0110;
},
{
glyphname = E;
layers = (
{
anchors = (
{
name = btm;
position = "{748, -200}";
},
{
name = top;
position = "{795, 2000}";
}
);
layerId = "62CA62AF-CD91-478A-AB8B-28A62CC47DA0";
paths = (
{
closed = 1;
nodes = (
"104 36 OFFCURVE",
"115 0 OFFCURVE",
"138 0 CURVE SMOOTH",
"1403 0 LINE",
"1403 372 LINE",
"1400 395 OFFCURVE",
"1379 406 OFFCURVE",
"1354 406 CURVE SMOOTH",
"1333 406 OFFCURVE",
"1292 398 OFFCURVE",
"1286 373 CURVE SMOOTH",
"1237 172 OFFCURVE",
"1196 101 OFFCURVE",
"1076 101 CURVE SMOOTH",
"708 101 LINE",
"664 105 OFFCURVE",
"619 124 OFFCURVE",
"619 197 CURVE SMOOTH",
"619 682 LINE",
"892 682 LINE SMOOTH",
"948 682 OFFCURVE",
"993 546 OFFCURVE",
"996 503 CURVE",
"999 477 OFFCURVE",
"1024 470 OFFCURVE",
"1045 470 CURVE SMOOTH",
"1060 470 OFFCURVE",
"1086 481 OFFCURVE",
"1086 504 CURVE SMOOTH",
"1086 947 LINE SMOOTH",
"1086 970 OFFCURVE",
"1060 981 OFFCURVE",
"1045 981 CURVE SMOOTH",
"1024 981 OFFCURVE",
"1002 975 OFFCURVE",
"999 949 CURVE SMOOTH",
"994 909 OFFCURVE",
"950 785 OFFCURVE",
"898 778 CURVE",
"619 778 LINE",
"619 1320 LINE",
"1016 1320 LINE SMOOTH",
"1124 1320 OFFCURVE",
"1142 1243 OFFCURVE",
"1222 1093 CURVE SMOOTH",
"1238 1063 OFFCURVE",
"1265 1060 OFFCURVE",
"1286 1060 CURVE SMOOTH",
"1301 1060 OFFCURVE",
"1325 1071 OFFCURVE",
"1323 1094 CURVE SMOOTH",
"1288 1419 LINE",
"129 1419 LINE SMOOTH",
"106 1419 OFFCURVE",
"95 1383 OFFCURVE",
"95 1368 CURVE SMOOTH",
"95 1338 OFFCURVE",
"103 1334 OFFCURVE",
"131 1331 CURVE SMOOTH",
"192 1326 OFFCURVE",
"283 1320 OFFCURVE",
"283 1234 CURVE SMOOTH",
"283 152 LINE SMOOTH",
"283 108 OFFCURVE",
"201 93 OFFCURVE",
"137 88 CURVE",
"111 85 OFFCURVE",
"104 72 OFFCURVE",
"104 51 CURVE SMOOTH {name = hr00;}"
);
}
);
width = 1477;
}
);
unicode = 0045;
},
{
glyphname = Eogonek;
layers = (
{
layerId = "62CA62AF-CD91-478A-AB8B-28A62CC47DA0";
paths = (
{
closed = 1;
nodes = (
"98 36 OFFCURVE",
"109 0 OFFCURVE",
"132 0 CURVE SMOOTH",
"1136 0 LINE",
"1012 -53 OFFCURVE",
"877 -143 OFFCURVE",
"877 -273 CURVE SMOOTH",
"877 -365 OFFCURVE",
"955 -452 OFFCURVE",
"1107 -452 CURVE SMOOTH",
"1182 -452 OFFCURVE",
"1279 -437 OFFCURVE",
"1363 -394 CURVE",
"1377 -383 OFFCURVE",
"1350 -298 OFFCURVE",
"1340 -304 CURVE",
"1314 -315 OFFCURVE",
"1268 -330 OFFCURVE",
"1225 -330 CURVE SMOOTH",
"1168 -330 OFFCURVE",
"1115 -313 OFFCURVE",
"1115 -228 CURVE SMOOTH",
"1115 -162 OFFCURVE",
"1170 -67 OFFCURVE",
"1317 0 CURVE",
"1397 0 LINE",
"1397 372 LINE",
"1394 395 OFFCURVE",
"1373 406 OFFCURVE",
"1348 406 CURVE SMOOTH",
"1327 406 OFFCURVE",
"1286 398 OFFCURVE",
"1280 373 CURVE SMOOTH",
"1231 172 OFFCURVE",
"1190 101 OFFCURVE",
"1070 101 CURVE SMOOTH",
"702 101 LINE",
"658 105 OFFCURVE",
"613 124 OFFCURVE",
"613 197 CURVE SMOOTH",
"613 682 LINE",
"886 682 LINE SMOOTH",
"942 682 OFFCURVE",
"987 546 OFFCURVE",
"990 503 CURVE",
"993 477 OFFCURVE",
"1018 470 OFFCURVE",
"1039 470 CURVE SMOOTH",
"1054 470 OFFCURVE",
"1080 481 OFFCURVE",
"1080 504 CURVE SMOOTH",
"1080 947 LINE SMOOTH",
"1080 970 OFFCURVE",
"1054 981 OFFCURVE",
"1039 981 CURVE SMOOTH",
"1018 981 OFFCURVE",
"996 975 OFFCURVE",
"993 949 CURVE SMOOTH",
"988 909 OFFCURVE",
"944 785 OFFCURVE",
"892 778 CURVE",
"613 778 LINE",
"613 1320 LINE",
"1010 1320 LINE SMOOTH",
"1118 1320 OFFCURVE",
"1136 1243 OFFCURVE",
"1216 1093 CURVE SMOOTH",
"1232 1063 OFFCURVE",
"1259 1060 OFFCURVE",
"1280 1060 CURVE SMOOTH",
"1295 1060 OFFCURVE",
"1319 1071 OFFCURVE",
"1317 1094 CURVE SMOOTH",
"1282 1419 LINE",
"123 1419 LINE SMOOTH",
"100 1419 OFFCURVE",
"89 1383 OFFCURVE",
"89 1368 CURVE SMOOTH",
"89 1338 OFFCURVE",
"97 1334 OFFCURVE",
"125 1331 CURVE SMOOTH",
"186 1326 OFFCURVE",
"277 1320 OFFCURVE",
"277 1234 CURVE SMOOTH",
"277 152 LINE SMOOTH",
"277 108 OFFCURVE",
"195 93 OFFCURVE",
"131 88 CURVE",
"105 85 OFFCURVE",
"98 72 OFFCURVE",
"98 51 CURVE SMOOTH {name = hr00;}"
);
}
);
width = 1477;
}
);
unicode = 0118;
},
{
glyphname = F;
layers = (
{
anchors = (
{
name = btm;
position = "{703, -200}";
},
{
name = top;
position = "{703, 2000}";
}
);
layerId = "62CA62AF-CD91-478A-AB8B-28A62CC47DA0";
paths = (
{
closed = 1;
nodes = (
"74 36 OFFCURVE",
"85 0 OFFCURVE",
"108 0 CURVE SMOOTH",
"843 0 LINE SMOOTH",
"866 0 OFFCURVE",
"877 36 OFFCURVE",
"877 51 CURVE SMOOTH",
"877 81 OFFCURVE",
"863 88 OFFCURVE",
"841 88 CURVE SMOOTH",
"756 88 OFFCURVE",
"619 111 OFFCURVE",
"619 197 CURVE SMOOTH",
"619 650 LINE",
"892 650 LINE SMOOTH",
"948 650 OFFCURVE",
"993 514 OFFCURVE",
"996 471 CURVE",
"999 445 OFFCURVE",
"1024 438 OFFCURVE",
"1045 438 CURVE SMOOTH",
"1060 438 OFFCURVE",
"1086 449 OFFCURVE",
"1086 472 CURVE SMOOTH",
"1086 915 LINE SMOOTH",
"1086 938 OFFCURVE",
"1060 949 OFFCURVE",
"1045 949 CURVE SMOOTH",
"1024 949 OFFCURVE",
"1002 943 OFFCURVE",
"999 917 CURVE SMOOTH",
"994 877 OFFCURVE",
"950 753 OFFCURVE",
"898 746 CURVE",
"619 746 LINE",
"619 1320 LINE",
"996 1320 LINE SMOOTH",
"1104 1320 OFFCURVE",
"1126 1219 OFFCURVE",
"1206 1069 CURVE SMOOTH",
"1222 1039 OFFCURVE",
"1262 1036 OFFCURVE",
"1283 1036 CURVE SMOOTH",
"1298 1036 OFFCURVE",
"1320 1047 OFFCURVE",
"1320 1070 CURVE",
"1281 1418 LINE",
"99 1419 LINE SMOOTH",
"76 1419 OFFCURVE",
"65 1383 OFFCURVE",
"65 1368 CURVE SMOOTH",
"65 1338 OFFCURVE",
"73 1334 OFFCURVE",
"101 1331 CURVE",
"174 1326 OFFCURVE",
"283 1320 OFFCURVE",
"283 1234 CURVE SMOOTH",
"283 152 LINE SMOOTH",
"283 108 OFFCURVE",
"186 93 OFFCURVE",
"107 88 CURVE",
"81 85 OFFCURVE",
"74 72 OFFCURVE",
"74 51 CURVE SMOOTH {name = hr00;}"
);
}
);
width = 1374;
}
);
unicode = 0046;
},
{
glyphname = G;
layers = (
{
anchors = (
{
name = btm;
position = "{828, -200}";
},
{
name = top;
position = "{876, 2000}";
}
);
layerId = "62CA62AF-CD91-478A-AB8B-28A62CC47DA0";
paths = (
{
closed = 1;
nodes = (
"96 153 OFFCURVE",
"589 -30 OFFCURVE",
"905 -30 CURVE SMOOTH",
"1219 -30 OFFCURVE",
"1441 79 OFFCURVE",
"1471 123 CURVE",
"1470 489 LINE SMOOTH",
"1470 533 OFFCURVE",
"1520 547 OFFCURVE",
"1579 553 CURVE SMOOTH",
"1605 556 OFFCURVE",
"1612 569 OFFCURVE",
"1612 590 CURVE SMOOTH",
"1612 605 OFFCURVE",
"1601 641 OFFCURVE",
"1578 641 CURVE SMOOTH",
"953 641 LINE SMOOTH",
"930 641 OFFCURVE",
"919 605 OFFCURVE",
"919 590 CURVE SMOOTH",
"919 560 OFFCURVE",
"927 555 OFFCURVE",
"955 553 CURVE SMOOTH",
"1032 546 OFFCURVE",
"1141 542 OFFCURVE",
"1141 456 CURVE SMOOTH",
"1141 194 LINE SMOOTH",
"1141 131 OFFCURVE",
"1108 65 OFFCURVE",
"922 65 CURVE SMOOTH",
"755 65 OFFCURVE",
"475 217 OFFCURVE",
"475 706 CURVE SMOOTH",
"475 1260 OFFCURVE",
"769 1353 OFFCURVE",
"913 1353 CURVE SMOOTH",
"1157 1353 OFFCURVE",
"1257 1207 OFFCURVE",
"1303 1039 CURVE",
"1308 1013 OFFCURVE",
"1367 1008 OFFCURVE",
"1389 1011 CURVE SMOOTH",
"1406 1013 OFFCURVE",
"1447 1028 OFFCURVE",
"1445 1051 CURVE SMOOTH",
"1423 1361 LINE",
"1353 1392 OFFCURVE",
"1175 1449 OFFCURVE",
"915 1449 CURVE SMOOTH",
"571 1449 OFFCURVE",
"96 1256 OFFCURVE",
"96 706 CURVE SMOOTH {name = hr00;}"
);
}
);
width = 1653;
}
);
unicode = 0047;
},
{
glyphname = H;
layers = (
{
anchors = (
{
name = btm;
position = "{935, -200}";
},
{
name = top;
position = "{935, 2000}";
}
);
layerId = "62CA62AF-CD91-478A-AB8B-28A62CC47DA0";
paths = (
{
closed = 1;
nodes = (
"114 36 OFFCURVE",
"125 0 OFFCURVE",
"148 0 CURVE SMOOTH",
"773 0 LINE SMOOTH",
"796 0 OFFCURVE",
"807 36 OFFCURVE",
"807 51 CURVE SMOOTH",
"807 81 OFFCURVE",
"799 85 OFFCURVE",
"771 88 CURVE SMOOTH",
"710 93 OFFCURVE",
"620 99 OFFCURVE",
"620 185 CURVE SMOOTH",
"620 672 LINE",
"1250 672 LINE",
"1250 152 LINE SMOOTH",
"1250 108 OFFCURVE",
"1168 93 OFFCURVE",
"1104 88 CURVE",
"1078 85 OFFCURVE",
"1071 72 OFFCURVE",
"1071 51 CURVE SMOOTH",
"1071 36 OFFCURVE",
"1082 0 OFFCURVE",
"1105 0 CURVE SMOOTH",
"1740 0 LINE SMOOTH",
"1763 0 OFFCURVE",
"1774 36 OFFCURVE",
"1774 51 CURVE SMOOTH",
"1774 81 OFFCURVE",
"1766 85 OFFCURVE",
"1738 88 CURVE SMOOTH",
"1677 93 OFFCURVE",
"1587 99 OFFCURVE",
"1587 185 CURVE SMOOTH",
"1587 1267 LINE SMOOTH",
"1587 1311 OFFCURVE",
"1664 1326 OFFCURVE",
"1732 1331 CURVE",
"1758 1334 OFFCURVE",
"1765 1347 OFFCURVE",
"1765 1368 CURVE SMOOTH",
"1765 1383 OFFCURVE",
"1754 1419 OFFCURVE",
"1731 1419 CURVE SMOOTH",
"1096 1419 LINE SMOOTH",
"1073 1419 OFFCURVE",
"1062 1383 OFFCURVE",
"1062 1368 CURVE SMOOTH",
"1062 1338 OFFCURVE",
"1070 1334 OFFCURVE",
"1098 1331 CURVE SMOOTH",
"1159 1326 OFFCURVE",
"1250 1320 OFFCURVE",
"1250 1234 CURVE SMOOTH",
"1250 788 LINE",
"620 788 LINE",
"620 1267 LINE SMOOTH",
"620 1311 OFFCURVE",
"697 1326 OFFCURVE",
"765 1331 CURVE",
"791 1334 OFFCURVE",
"798 1347 OFFCURVE",
"798 1368 CURVE SMOOTH",
"798 1383 OFFCURVE",
"787 1419 OFFCURVE",
"764 1419 CURVE SMOOTH",
"139 1419 LINE SMOOTH",
"116 1419 OFFCURVE",
"105 1383 OFFCURVE",
"105 1368 CURVE SMOOTH",
"105 1338 OFFCURVE",
"113 1334 OFFCURVE",
"141 1331 CURVE SMOOTH",
"202 1326 OFFCURVE",
"283 1320 OFFCURVE",
"283 1234 CURVE SMOOTH",
"283 152 LINE SMOOTH",
"283 108 OFFCURVE",
"211 93 OFFCURVE",
"147 88 CURVE",
"121 85 OFFCURVE",
"114 72 OFFCURVE",
"114 51 CURVE SMOOTH {name = hr00;}"
);
}
);
width = 1870;
}
);
unicode = 0048;
},
{
glyphname = Hbar;
layers = (
{
layerId = "62CA62AF-CD91-478A-AB8B-28A62CC47DA0";
paths = (
{
closed = 1;
nodes = (
"114 36 OFFCURVE",
"125 0 OFFCURVE",
"148 0 CURVE SMOOTH",
"773 0 LINE SMOOTH",
"796 0 OFFCURVE",
"807 36 OFFCURVE",
"807 51 CURVE SMOOTH",
"807 81 OFFCURVE",
"799 85 OFFCURVE",
"771 88 CURVE SMOOTH",
"710 93 OFFCURVE",
"619 99 OFFCURVE",
"619 185 CURVE SMOOTH",
"619 593 LINE",
"1248 593 LINE",
"1248 152 LINE SMOOTH",
"1248 108 OFFCURVE",
"1167 93 OFFCURVE",
"1103 88 CURVE",
"1077 85 OFFCURVE",
"1070 72 OFFCURVE",
"1070 51 CURVE SMOOTH",
"1070 36 OFFCURVE",
"1081 0 OFFCURVE",
"1104 0 CURVE SMOOTH",
"1739 0 LINE SMOOTH",
"1762 0 OFFCURVE",
"1773 36 OFFCURVE",
"1773 51 CURVE SMOOTH",
"1773 81 OFFCURVE",
"1765 85 OFFCURVE",
"1737 88 CURVE SMOOTH",
"1676 93 OFFCURVE",
"1585 99 OFFCURVE",
"1585 185 CURVE SMOOTH",
"1585 905 LINE",
"1759 905 LINE",
"1773 911 OFFCURVE",
"1783 933 OFFCURVE",
"1783 958 CURVE SMOOTH",
"1783 974 OFFCURVE",
"1775 1001 OFFCURVE",
"1759 1002 CURVE",
"1585 1002 LINE",
"1586 1267 LINE SMOOTH",
"1586 1311 OFFCURVE",
"1663 1326 OFFCURVE",
"1731 1331 CURVE",
"1757 1334 OFFCURVE",
"1764 1347 OFFCURVE",
"1764 1368 CURVE SMOOTH",
"1764 1383 OFFCURVE",
"1753 1419 OFFCURVE",
"1730 1419 CURVE SMOOTH",
"1095 1419 LINE SMOOTH",
"1072 1419 OFFCURVE",
"1061 1383 OFFCURVE",
"1061 1368 CURVE SMOOTH",
"1061 1338 OFFCURVE",
"1069 1334 OFFCURVE",
"1097 1331 CURVE SMOOTH",
"1158 1326 OFFCURVE",
"1249 1320 OFFCURVE",
"1249 1234 CURVE SMOOTH",
"1248 1002 LINE",
"619 1002 LINE",
"620 1267 LINE SMOOTH",
"620 1311 OFFCURVE",
"697 1326 OFFCURVE",
"765 1331 CURVE",
"791 1334 OFFCURVE",
"798 1347 OFFCURVE",
"798 1368 CURVE SMOOTH",
"798 1383 OFFCURVE",
"787 1419 OFFCURVE",
"764 1419 CURVE SMOOTH",
"139 1419 LINE SMOOTH",
"116 1419 OFFCURVE",
"105 1383 OFFCURVE",
"105 1368 CURVE SMOOTH",
"105 1338 OFFCURVE",
"113 1334 OFFCURVE",
"141 1331 CURVE SMOOTH",
"202 1326 OFFCURVE",
"283 1320 OFFCURVE",
"283 1234 CURVE SMOOTH",
"282 1002 LINE",
"122 1002 LINE",
"108 996 OFFCURVE",
"98 964 OFFCURVE",
"98 939 CURVE SMOOTH",
"98 923 OFFCURVE",
"106 906 OFFCURVE",
"122 905 CURVE",
"282 905 LINE",
"282 152 LINE SMOOTH",
"282 108 OFFCURVE",
"211 93 OFFCURVE",
"147 88 CURVE",
"121 85 OFFCURVE",
"114 72 OFFCURVE",
"114 51 CURVE SMOOTH {name = hr00;}"
);
},
{
closed = 1;
nodes = (
"619 905 LINE",
"1248 905 LINE",
"1248 679 LINE",
"619 679 LINE"
);
}
);
width = 1867;
}
);
unicode = 0126;
},
{
glyphname = I;
layers = (
{
anchors = (
{
name = btm;
position = "{456, -200}";
},
{
name = top;
position = "{456, 2000}";
}
);
layerId = "62CA62AF-CD91-478A-AB8B-28A62CC47DA0";
paths = (
{
closed = 1;
nodes = (
"109 36 OFFCURVE",
"120 0 OFFCURVE",
"143 0 CURVE SMOOTH",
"778 0 LINE SMOOTH",
"801 0 OFFCURVE",
"812 36 OFFCURVE",
"812 51 CURVE SMOOTH",
"812 81 OFFCURVE",
"804 85 OFFCURVE",
"776 88 CURVE SMOOTH",
"715 93 OFFCURVE",
"624 99 OFFCURVE",
"624 185 CURVE SMOOTH",
"625 1267 LINE SMOOTH",
"625 1311 OFFCURVE",
"702 1326 OFFCURVE",
"770 1331 CURVE SMOOTH",
"796 1334 OFFCURVE",
"803 1347 OFFCURVE",
"803 1368 CURVE SMOOTH",
"803 1383 OFFCURVE",
"792 1419 OFFCURVE",
"769 1419 CURVE SMOOTH",
"134 1419 LINE SMOOTH",
"111 1419 OFFCURVE",
"100 1383 OFFCURVE",
"100 1368 CURVE SMOOTH",
"100 1338 OFFCURVE",
"108 1334 OFFCURVE",
"136 1331 CURVE SMOOTH",
"197 1326 OFFCURVE",
"288 1320 OFFCURVE",
"288 1234 CURVE SMOOTH",
"287 152 LINE SMOOTH",
"287 108 OFFCURVE",
"206 93 OFFCURVE",
"142 88 CURVE SMOOTH",
"116 85 OFFCURVE",
"109 72 OFFCURVE",
"109 51 CURVE SMOOTH {name = hr00;}"
);
}
);
width = 913;
}
);
unicode = 0049;
},
{
glyphname = Iogonek;
layers = (
{
layerId = "62CA62AF-CD91-478A-AB8B-28A62CC47DA0";
paths = (
{
closed = 1;
nodes = (
"109 36 OFFCURVE",
"120 0 OFFCURVE",
"143 0 CURVE SMOOTH",
"428 0 LINE",
"304 -53 OFFCURVE",
"169 -143 OFFCURVE",
"169 -273 CURVE SMOOTH {name = hr02;}",
"169 -365 OFFCURVE",
"247 -452 OFFCURVE",
"399 -452 CURVE SMOOTH",
"474 -452 OFFCURVE",
"571 -437 OFFCURVE",
"655 -394 CURVE",
"669 -383 OFFCURVE",
"642 -298 OFFCURVE",
"632 -304 CURVE",
"606 -315 OFFCURVE",
"560 -330 OFFCURVE",
"517 -330 CURVE SMOOTH",
"460 -330 OFFCURVE",
"407 -313 OFFCURVE",
"407 -228 CURVE SMOOTH",
"407 -162 OFFCURVE",
"462 -67 OFFCURVE",
"609 0 CURVE",
"778 0 LINE SMOOTH",
"801 0 OFFCURVE",
"812 36 OFFCURVE",
"812 51 CURVE SMOOTH",
"812 81 OFFCURVE",
"804 85 OFFCURVE",
"776 88 CURVE SMOOTH",
"715 93 OFFCURVE",
"624 99 OFFCURVE",
"624 185 CURVE SMOOTH {name = hr03;}",
"625 1267 LINE SMOOTH",
"625 1311 OFFCURVE",
"702 1326 OFFCURVE",
"770 1331 CURVE",
"796 1334 OFFCURVE",
"803 1347 OFFCURVE",
"803 1368 CURVE SMOOTH",
"803 1383 OFFCURVE",
"792 1419 OFFCURVE",
"769 1419 CURVE SMOOTH",
"134 1419 LINE SMOOTH",
"111 1419 OFFCURVE",
"100 1383 OFFCURVE",
"100 1368 CURVE SMOOTH",
"100 1338 OFFCURVE",
"108 1334 OFFCURVE",
"136 1331 CURVE SMOOTH",
"197 1326 OFFCURVE",
"288 1320 OFFCURVE",
"288 1234 CURVE SMOOTH",
"287 152 LINE SMOOTH",
"287 108 OFFCURVE",
"206 93 OFFCURVE",
"142 88 CURVE",
"116 85 OFFCURVE",
"109 72 OFFCURVE",
"109 51 CURVE SMOOTH {name = hr01;}"
);
}
);
width = 913;
}
);
unicode = 012E;
},
{
glyphname = J;
layers = (
{
anchors = (
{
name = btm;
position = "{565, -200}";
},
{
name = top;
position = "{788, 1988}";
}
);
layerId = "62CA62AF-CD91-478A-AB8B-28A62CC47DA0";
paths = (
{
closed = 1;
nodes = (
"271 13 OFFCURVE",
"393 -30 OFFCURVE",
"489 -30 CURVE SMOOTH",
"716 -30 OFFCURVE",
"1021 48 OFFCURVE",
"1021 439 CURVE SMOOTH",
"1021 1267 LINE SMOOTH",
"1021 1311 OFFCURVE",
"1086 1327 OFFCURVE",
"1187 1331 CURVE SMOOTH",
"1213 1332 OFFCURVE",
"1220 1347 OFFCURVE",
"1220 1368 CURVE SMOOTH",
"1220 1383 OFFCURVE",
"1209 1419 OFFCURVE",
"1186 1419 CURVE SMOOTH",
"481 1419 LINE SMOOTH",
"458 1419 OFFCURVE",
"447 1383 OFFCURVE",
"447 1368 CURVE SMOOTH",
"447 1338 OFFCURVE",
"455 1334 OFFCURVE",
"483 1331 CURVE",
"564 1326 OFFCURVE",
"685 1320 OFFCURVE",
"685 1234 CURVE SMOOTH",
"684 406 LINE SMOOTH",
"684 161 OFFCURVE",
"621 59 OFFCURVE",
"480 59 CURVE SMOOTH",
"430 59 OFFCURVE",
"387 69 OFFCURVE",
"351 84 CURVE",
"377 211 OFFCURVE",
"408 404 OFFCURVE",
"410 461 CURVE SMOOTH",
"411 496 OFFCURVE",
"363 541 OFFCURVE",
"286 541 CURVE SMOOTH",
"210 541 OFFCURVE",
"121 486 OFFCURVE",
"100 431 CURVE SMOOTH",
"60 329 OFFCURVE",
"74 183 OFFCURVE",
"177 94 CURVE SMOOTH {name = hr00;}"
);
}
);
width = 1219;
}
);
unicode = 004A;
},
{
glyphname = K;
layers = (
{
anchors = (
{
name = btm;
position = "{941, -200}";
},
{
name = top;
position = "{862, 2000}";
}
);
layerId = "62CA62AF-CD91-478A-AB8B-28A62CC47DA0";
paths = (
{
closed = 1;
nodes = (
"105 36 OFFCURVE",
"116 0 OFFCURVE",
"139 0 CURVE SMOOTH",
"764 0 LINE SMOOTH",
"787 0 OFFCURVE",
"798 36 OFFCURVE",
"798 51 CURVE SMOOTH",
"798 81 OFFCURVE",
"790 85 OFFCURVE",
"762 88 CURVE SMOOTH",
"701 93 OFFCURVE",
"620 99 OFFCURVE",
"620 185 CURVE SMOOTH",
"621 1267 LINE SMOOTH",
"621 1311 OFFCURVE",
"702 1326 OFFCURVE",
"756 1331 CURVE SMOOTH",
"782 1334 OFFCURVE",
"789 1347 OFFCURVE",
"789 1368 CURVE SMOOTH",
"789 1383 OFFCURVE",
"778 1419 OFFCURVE",
"755 1419 CURVE SMOOTH",
"130 1419 LINE SMOOTH",
"107 1419 OFFCURVE",
"96 1383 OFFCURVE",
"96 1368 CURVE SMOOTH",
"96 1338 OFFCURVE",
"104 1334 OFFCURVE",
"132 1331 CURVE SMOOTH",
"193 1326 OFFCURVE",
"284 1320 OFFCURVE",
"284 1234 CURVE SMOOTH",
"283 162 LINE SMOOTH",
"283 118 OFFCURVE",
"202 93 OFFCURVE",
"138 88 CURVE",
"112 85 OFFCURVE",
"105 72 OFFCURVE",
"105 51 CURVE SMOOTH {name = hr00;}"
);
},
{
closed = 1;
nodes = (
"843 708 OFFCURVE",
"1034 0 OFFCURVE",
"1248 0 CURVE SMOOTH",
"1612 0 LINE SMOOTH",
"1634 0 OFFCURVE",
"1646 31 OFFCURVE",
"1646 46 CURVE SMOOTH",
"1646 76 OFFCURVE",
"1638 86 OFFCURVE",
"1610 89 CURVE SMOOTH",
"1561 94 OFFCURVE",
"1483 156 OFFCURVE",
"1386 293 CURVE SMOOTH",
"1260 472 OFFCURVE",
"1010 779 OFFCURVE",
"905 826 CURVE",
"1350 1260 LINE SMOOTH",
"1397 1306 OFFCURVE",
"1483 1330 OFFCURVE",
"1551 1330 CURVE SMOOTH",
"1573 1330 OFFCURVE",
"1584 1343 OFFCURVE",
"1584 1367 CURVE SMOOTH",
"1584 1382 OFFCURVE",
"1573 1418 OFFCURVE",
"1550 1418 CURVE SMOOTH",
"1068 1418 LINE SMOOTH",
"1045 1418 OFFCURVE",
"1034 1382 OFFCURVE",
"1034 1367 CURVE SMOOTH",
"1034 1346 OFFCURVE",
"1039 1333 OFFCURVE",
"1065 1330 CURVE SMOOTH",
"1109 1326 OFFCURVE",
"1211 1319 OFFCURVE",
"1171 1276 CURVE SMOOTH",
"622 692 LINE"
);
}
);
width = 1673;
}
);
unicode = 004B;
},
{
glyphname = L;
layers = (
{
anchors = (
{
name = btm;
position = "{711, -200}";
},
{
name = top;
position = "{711, 2000}";
}
);
layerId = "62CA62AF-CD91-478A-AB8B-28A62CC47DA0";
paths = (
{
closed = 1;
nodes = (
"105 36 OFFCURVE",
"116 0 OFFCURVE",
"139 0 CURVE SMOOTH",
"1306 0 LINE",
"1365 439 LINE SMOOTH",
"1368 462 OFFCURVE",
"1333 473 OFFCURVE",
"1308 473 CURVE SMOOTH",
"1287 473 OFFCURVE",
"1237 464 OFFCURVE",
"1229 440 CURVE SMOOTH",
"1179 296 OFFCURVE",
"1079 101 OFFCURVE",
"986 101 CURVE SMOOTH",
"712 101 LINE SMOOTH",
"663 101 OFFCURVE",
"620 111 OFFCURVE",
"620 177 CURVE SMOOTH",
"620 1237 LINE SMOOTH",
"620 1311 OFFCURVE",
"701 1331 OFFCURVE",
"815 1331 CURVE SMOOTH",
"841 1331 OFFCURVE",
"848 1347 OFFCURVE",
"848 1368 CURVE SMOOTH",
"848 1383 OFFCURVE",
"837 1419 OFFCURVE",
"814 1419 CURVE SMOOTH",
"129 1419 LINE SMOOTH",
"106 1419 OFFCURVE",
"95 1383 OFFCURVE",
"95 1368 CURVE SMOOTH",
"95 1338 OFFCURVE",
"103 1333 OFFCURVE",
"131 1331 CURVE SMOOTH",
"202 1326 OFFCURVE",
"283 1320 OFFCURVE",
"283 1234 CURVE SMOOTH",
"283 162 LINE SMOOTH",
"283 118 OFFCURVE",
"202 93 OFFCURVE",
"138 88 CURVE",
"112 85 OFFCURVE",
"105 72 OFFCURVE",
"105 51 CURVE SMOOTH {name = hr00;}"
);
}
);
width = 1405;
}
);
unicode = 004C;
},
{
glyphname = Lslash;
layers = (
{
layerId = "62CA62AF-CD91-478A-AB8B-28A62CC47DA0";
paths = (
{
closed = 1;
nodes = (
"99 36 OFFCURVE",
"110 0 OFFCURVE",
"133 0 CURVE SMOOTH",
"1300 0 LINE",
"1359 439 LINE SMOOTH",
"1362 462 OFFCURVE",
"1327 473 OFFCURVE",
"1302 473 CURVE SMOOTH",
"1281 473 OFFCURVE",
"1242 464 OFFCURVE",
"1234 440 CURVE SMOOTH",
"1184 296 OFFCURVE",
"1084 101 OFFCURVE",
"991 101 CURVE SMOOTH",
"706 101 LINE SMOOTH",
"657 101 OFFCURVE",
"614 111 OFFCURVE",
"614 177 CURVE SMOOTH",
"614 746 LINE",
"930 874 LINE",
"941 885 OFFCURVE",
"935 928 OFFCURVE",
"926 951 CURVE SMOOTH",
"920 966 OFFCURVE",
"906 979 OFFCURVE",
"891 974 CURVE",
"614 862 LINE",
"614 1237 LINE SMOOTH",
"614 1311 OFFCURVE",
"695 1331 OFFCURVE",
"809 1331 CURVE SMOOTH",
"835 1331 OFFCURVE",
"842 1347 OFFCURVE",
"842 1368 CURVE SMOOTH",
"842 1383 OFFCURVE",
"831 1419 OFFCURVE",
"808 1419 CURVE SMOOTH",
"123 1419 LINE SMOOTH",
"100 1419 OFFCURVE",
"89 1383 OFFCURVE",
"89 1368 CURVE SMOOTH",
"89 1338 OFFCURVE",
"97 1333 OFFCURVE",
"125 1331 CURVE SMOOTH",
"196 1326 OFFCURVE",
"277 1320 OFFCURVE",
"277 1234 CURVE SMOOTH",
"277 726 LINE",
"69 642 LINE",
"59 631 OFFCURVE",
"57 607 OFFCURVE",
"66 584 CURVE SMOOTH",
"72 569 OFFCURVE",
"93 537 OFFCURVE",
"108 542 CURVE",
"277 610 LINE",
"277 162 LINE SMOOTH",
"277 118 OFFCURVE",
"196 93 OFFCURVE",
"132 88 CURVE",
"106 85 OFFCURVE",
"99 72 OFFCURVE",
"99 51 CURVE SMOOTH {name = hr00;}"
);
}
);
width = 1405;
}
);
unicode = 0141;
},
{
glyphname = M;
layers = (
{
anchors = (
{
name = btm;
position = "{985, -200}";
},
{
name = top;
position = "{1020, 2000}";
}
);
layerId = "62CA62AF-CD91-478A-AB8B-28A62CC47DA0";
paths = (
{
closed = 1;
nodes = (
"74 36 OFFCURVE",
"85 0 OFFCURVE",
"108 0 CURVE SMOOTH",
"573 0 LINE SMOOTH",
"596 0 OFFCURVE",
"607 36 OFFCURVE",
"607 51 CURVE SMOOTH",
"607 81 OFFCURVE",
"599 85 OFFCURVE",
"571 88 CURVE",
"498 93 OFFCURVE",
"379 99 OFFCURVE",
"379 185 CURVE SMOOTH",
"379 1281 LINE",
"417 1281 LINE",
"935 0 LINE",
"936 3 LINE",
"936 0 LINE",
"986 0 LINE",
"1478 1281 LINE",
"1506 1281 LINE",
"1506 152 LINE SMOOTH",
"1506 108 OFFCURVE",
"1415 93 OFFCURVE",
"1351 88 CURVE",
"1325 85 OFFCURVE",
"1318 72 OFFCURVE",
"1318 51 CURVE SMOOTH",
"1318 36 OFFCURVE",
"1329 0 OFFCURVE",
"1352 0 CURVE SMOOTH",
"1997 0 LINE SMOOTH",
"2020 0 OFFCURVE",
"2031 36 OFFCURVE",
"2031 51 CURVE SMOOTH",
"2031 81 OFFCURVE",
"2023 85 OFFCURVE",
"1995 88 CURVE SMOOTH",
"1934 93 OFFCURVE",
"1844 99 OFFCURVE",
"1844 185 CURVE SMOOTH",
"1844 1267 LINE SMOOTH",
"1844 1311 OFFCURVE",
"1921 1326 OFFCURVE",
"1989 1331 CURVE",
"2015 1334 OFFCURVE",
"2022 1347 OFFCURVE",
"2022 1368 CURVE SMOOTH",
"2022 1383 OFFCURVE",
"2011 1419 OFFCURVE",
"1988 1419 CURVE SMOOTH",
"1411 1419 LINE",
"1411 1398 OFFCURVE",
"1401 1350 OFFCURVE",
"1394 1331 CURVE SMOOTH",
"1070 497 LINE",
"762 1333 LINE",
"753 1354 OFFCURVE",
"745 1393 OFFCURVE",
"741 1414 CURVE",
"741 1419 LINE",
"99 1419 LINE",
"76 1418 OFFCURVE",
"65 1383 OFFCURVE",
"65 1368 CURVE SMOOTH",
"65 1338 OFFCURVE",
"73 1334 OFFCURVE",
"101 1331 CURVE",
"174 1326 OFFCURVE",
"282 1320 OFFCURVE",
"282 1234 CURVE SMOOTH",
"282 184 LINE SMOOTH",
"282 100 OFFCURVE",
"186 93 OFFCURVE",
"107 88 CURVE",
"81 85 OFFCURVE",
"74 72 OFFCURVE",
"74 51 CURVE SMOOTH {name = hr00;}"
);
}
);
width = 2095;
}
);
unicode = 004D;
},
{
glyphname = N;
layers = (
{
anchors = (
{
name = btm;
position = "{850, -200}";
},
{
name = top;
position = "{850, 2000}";
}
);
layerId = "62CA62AF-CD91-478A-AB8B-28A62CC47DA0";
paths = (
{
closed = 1;
nodes = (
"68 36 OFFCURVE",
"79 0 OFFCURVE",
"102 0 CURVE SMOOTH",
"617 0 LINE SMOOTH",
"640 0 OFFCURVE",
"651 36 OFFCURVE",
"651 51 CURVE SMOOTH",
"651 81 OFFCURVE",
"643 85 OFFCURVE",
"615 88 CURVE SMOOTH",
"554 93 OFFCURVE",
"413 99 OFFCURVE",
"413 185 CURVE SMOOTH",
"413 1080 LINE",
"430 1080 LINE",
"1311 -8 LINE SMOOTH {name = hr02;}",
"1321 -20 OFFCURVE",
"1344 -30 OFFCURVE",
"1365 -30 CURVE SMOOTH",
"1406 -30 OFFCURVE",
"1479 -12 OFFCURVE",
"1475 40 CURVE SMOOTH",
"1472 78 OFFCURVE",
"1469 88 OFFCURVE",
"1469 113 CURVE SMOOTH",
"1469 1239 LINE SMOOTH",
"1469 1306 OFFCURVE",
"1583 1325 OFFCURVE",
"1644 1331 CURVE SMOOTH",
"1670 1334 OFFCURVE",
"1677 1347 OFFCURVE",
"1677 1368 CURVE SMOOTH",
"1677 1383 OFFCURVE",
"1666 1419 OFFCURVE",
"1643 1419 CURVE SMOOTH",
"1168 1419 LINE SMOOTH",
"1145 1419 OFFCURVE",
"1134 1383 OFFCURVE",
"1134 1368 CURVE SMOOTH",
"1134 1338 OFFCURVE",
"1142 1334 OFFCURVE",
"1170 1331 CURVE SMOOTH",
"1231 1326 OFFCURVE",
"1352 1320 OFFCURVE",
"1352 1234 CURVE SMOOTH",
"1352 483 LINE",
"1340 483 LINE",
"581 1419 LINE",
"123 1419 LINE SMOOTH",
"100 1419 OFFCURVE",
"89 1383 OFFCURVE",
"89 1368 CURVE SMOOTH",
"89 1338 OFFCURVE",
"97 1334 OFFCURVE",
"125 1331 CURVE SMOOTH",
"186 1326 OFFCURVE",
"286 1320 OFFCURVE",
"286 1234 CURVE SMOOTH",
"286 172 LINE SMOOTH",
"286 108 OFFCURVE",
"165 93 OFFCURVE",
"101 88 CURVE {name = hr03;}",
"75 85 OFFCURVE",
"68 72 OFFCURVE",
"68 51 CURVE SMOOTH {name = hr01;}"
);
}
);
width = 1718;
}
);
unicode = 004E;
},
{
glyphname = Eng;
layers = (
{
layerId = "62CA62AF-CD91-478A-AB8B-28A62CC47DA0";
paths = (
{
closed = 1;
nodes = (
"68 36 OFFCURVE",
"79 0 OFFCURVE",
"102 0 CURVE SMOOTH",
"617 0 LINE SMOOTH",
"640 0 OFFCURVE",
"651 36 OFFCURVE",
"651 51 CURVE SMOOTH",
"651 81 OFFCURVE",
"643 85 OFFCURVE",
"615 88 CURVE SMOOTH",
"554 93 OFFCURVE",
"413 99 OFFCURVE",
"413 185 CURVE SMOOTH",
"413 1080 LINE",
"430 1080 LINE",
"1348 -55 LINE",
"1322 -278 OFFCURVE",
"1204 -347 OFFCURVE",
"1032 -347 CURVE",
"929 -137 LINE",
"910 -101 OFFCURVE",
"876 -86 OFFCURVE",
"838 -86 CURVE SMOOTH",
"759 -86 OFFCURVE",
"700 -140 OFFCURVE",
"700 -234 CURVE SMOOTH",
"700 -316 OFFCURVE",
"842 -449 OFFCURVE",
"1015 -449 CURVE SMOOTH",
"1437 -449 OFFCURVE",
"1469 -147 OFFCURVE",
"1469 88 CURVE SMOOTH",
"1469 90 LINE",
"1469 1239 LINE SMOOTH",
"1469 1306 OFFCURVE",
"1583 1325 OFFCURVE",
"1644 1331 CURVE SMOOTH",
"1670 1334 OFFCURVE",
"1677 1347 OFFCURVE",
"1677 1368 CURVE SMOOTH",
"1677 1383 OFFCURVE",
"1666 1419 OFFCURVE",
"1643 1419 CURVE SMOOTH",
"1168 1419 LINE SMOOTH",
"1145 1419 OFFCURVE",
"1134 1383 OFFCURVE",
"1134 1368 CURVE SMOOTH",
"1134 1338 OFFCURVE",
"1142 1334 OFFCURVE",
"1170 1331 CURVE SMOOTH",
"1231 1326 OFFCURVE",
"1352 1320 OFFCURVE",
"1352 1234 CURVE SMOOTH",
"1352 483 LINE",
"1340 483 LINE",
"581 1419 LINE",
"123 1419 LINE SMOOTH",
"100 1419 OFFCURVE",
"89 1383 OFFCURVE",
"89 1368 CURVE SMOOTH",
"89 1338 OFFCURVE",
"97 1334 OFFCURVE",
"125 1331 CURVE SMOOTH",
"186 1326 OFFCURVE",
"286 1320 OFFCURVE",
"286 1234 CURVE SMOOTH",
"286 172 LINE SMOOTH",
"286 108 OFFCURVE",
"165 93 OFFCURVE",
"101 88 CURVE",
"75 85 OFFCURVE",
"68 72 OFFCURVE",
"68 51 CURVE SMOOTH {name = hr00;}"
);
}
);
width = 1718;
}
);
unicode = 014A;
},
{
glyphname = O;
layers = (
{
anchors = (
{
name = btm;
position = "{839, -200}";
},
{
name = top;
position = "{839, 2000}";
}
);
layerId = "62CA62AF-CD91-478A-AB8B-28A62CC47DA0";
paths = (
{
closed = 1;
nodes = (
"83 306 OFFCURVE",
"376 -29 OFFCURVE",
"839 -29 CURVE SMOOTH",
"1302 -29 OFFCURVE",
"1596 306 OFFCURVE",
"1596 716 CURVE SMOOTH",
"1596 1126 OFFCURVE",
"1303 1449 OFFCURVE",
"839 1449 CURVE SMOOTH",
"375 1449 OFFCURVE",
"83 1126 OFFCURVE",
"83 716 CURVE SMOOTH {name = hr00;}"
);
},
{
closed = 1;
nodes = (
"590 65 OFFCURVE",
"469 312 OFFCURVE",
"469 714 CURVE SMOOTH",
"469 1116 OFFCURVE",
"584 1356 OFFCURVE",
"837 1356 CURVE SMOOTH",
"1090 1356 OFFCURVE",
"1210 1116 OFFCURVE",
"1210 714 CURVE SMOOTH",
"1210 312 OFFCURVE",
"1096 65 OFFCURVE",
"843 65 CURVE SMOOTH"
);
}
);
width = 1679;
}
);
unicode = 004F;
},
{
glyphname = Oslash;
layers = (
{
layerId = "62CA62AF-CD91-478A-AB8B-28A62CC47DA0";
paths = (
{
closed = 1;
nodes = (
"281 -129 OFFCURVE",
"294 -149 OFFCURVE",
"316 -162 CURVE SMOOTH",
"329 -170 OFFCURVE",
"356 -177 OFFCURVE",
"365 -164 CURVE",
"490 45 LINE",
"591 -2 OFFCURVE",
"708 -29 OFFCURVE",
"839 -29 CURVE SMOOTH",
"1302 -29 OFFCURVE",
"1596 306 OFFCURVE",
"1596 716 CURVE SMOOTH",
"1596 981 OFFCURVE",
"1473 1210 OFFCURVE",
"1260 1339 CURVE",
"1371 1525 LINE",
"1373 1540 OFFCURVE",
"1351 1565 OFFCURVE",
"1330 1578 CURVE SMOOTH",
"1316 1586 OFFCURVE",
"1298 1588 OFFCURVE",
"1288 1575 CURVE",
"1174 1383 LINE",
"1076 1425 OFFCURVE",
"964 1449 OFFCURVE",
"839 1449 CURVE SMOOTH",
"375 1449 OFFCURVE",
"83 1126 OFFCURVE",
"83 716 CURVE SMOOTH",
"83 455 OFFCURVE",
"201 226 OFFCURVE",
"406 92 CURVE",
"283 -114 LINE {name = hr00;}"
);
},
{
closed = 1;
nodes = (
"489 409 OFFCURVE",
"469 548 OFFCURVE",
"469 714 CURVE SMOOTH",
"469 1116 OFFCURVE",
"584 1356 OFFCURVE",
"837 1356 CURVE SMOOTH",
"943 1356 OFFCURVE",
"1025 1314 OFFCURVE",
"1086 1235 CURVE",
"531 303 LINE"
);
},
{
closed = 1;
nodes = (
"1141 1139 LINE",
"1187 1032 OFFCURVE",
"1210 888 OFFCURVE",
"1210 714 CURVE SMOOTH",
"1210 312 OFFCURVE",
"1096 65 OFFCURVE",
"843 65 CURVE SMOOTH",
"731 65 OFFCURVE",
"644 113 OFFCURVE",
"583 202 CURVE"
);
}
);
width = 1679;
}
);
unicode = 00D8;
},
{
glyphname = OE;
layers = (
{
anchors = (
{
name = top;
position = "{1137, 2000}";
}
);
layerId = "62CA62AF-CD91-478A-AB8B-28A62CC47DA0";
paths = (
{
closed = 1;
nodes = (
"83 306 OFFCURVE",
"398 -29 OFFCURVE",
"791 -29 CURVE SMOOTH",
"926 -29 OFFCURVE",
"1003 0 OFFCURVE",
"1159 0 CURVE SMOOTH {name = hr02;}",
"2176 0 LINE",
"2176 372 LINE",
"2173 395 OFFCURVE",
"2152 406 OFFCURVE",
"2127 406 CURVE SMOOTH",
"2106 406 OFFCURVE",
"2065 398 OFFCURVE",
"2059 373 CURVE SMOOTH",
"2010 172 OFFCURVE",
"1969 101 OFFCURVE",
"1849 101 CURVE SMOOTH",
"1481 101 LINE",
"1437 105 OFFCURVE",
"1392 124 OFFCURVE",
"1392 197 CURVE SMOOTH",
"1392 682 LINE",
"1665 682 LINE SMOOTH",
"1721 682 OFFCURVE",
"1766 546 OFFCURVE",
"1769 503 CURVE",
"1772 477 OFFCURVE",
"1797 470 OFFCURVE",
"1818 470 CURVE SMOOTH",
"1833 470 OFFCURVE",
"1859 481 OFFCURVE",
"1859 504 CURVE SMOOTH",
"1859 947 LINE SMOOTH",
"1859 970 OFFCURVE",
"1833 981 OFFCURVE",
"1818 981 CURVE SMOOTH",
"1797 981 OFFCURVE",
"1775 975 OFFCURVE",
"1772 949 CURVE SMOOTH",
"1767 909 OFFCURVE",
"1723 785 OFFCURVE",
"1671 778 CURVE",
"1392 778 LINE",
"1392 1320 LINE",
"1789 1320 LINE SMOOTH",
"1897 1320 OFFCURVE",
"1915 1243 OFFCURVE",
"1995 1093 CURVE SMOOTH",
"2011 1063 OFFCURVE",
"2038 1060 OFFCURVE",
"2059 1060 CURVE SMOOTH",
"2074 1060 OFFCURVE",
"2098 1071 OFFCURVE",
"2096 1094 CURVE SMOOTH",
"2061 1419 LINE",
"1085 1419 LINE",
"1019 1421 OFFCURVE",
"958 1449 OFFCURVE",
"801 1449 CURVE SMOOTH {name = hr03;}",
"405 1449 OFFCURVE",
"83 1126 OFFCURVE",
"83 716 CURVE SMOOTH {name = hr01;}"
);
},
{
closed = 1;
nodes = (
"591 65 OFFCURVE",
"455 312 OFFCURVE",
"455 714 CURVE SMOOTH",
"455 1116 OFFCURVE",
"588 1360 OFFCURVE",
"790 1360 CURVE SMOOTH",
"1007 1360 OFFCURVE",
"1039 1314 OFFCURVE",
"1056 1290 CURVE",
"1056 141 LINE",
"1055 143 LINE",
"1016 78 OFFCURVE",
"932 65 OFFCURVE",
"795 65 CURVE SMOOTH"
);
}
);
width = 2255;
}
);
unicode = 0152;
},
{
glyphname = P;
layers = (
{
anchors = (
{
name = btm;
position = "{728, -200}";
},
{
name = top;
position = "{728, 2000}";
}
);
layerId = "62CA62AF-CD91-478A-AB8B-28A62CC47DA0";
paths = (
{
closed = 1;
nodes = (
"115 36 OFFCURVE",
"126 0 OFFCURVE",
"149 0 CURVE SMOOTH",
"844 0 LINE SMOOTH",
"867 0 OFFCURVE",
"878 36 OFFCURVE",
"878 51 CURVE SMOOTH",
"878 81 OFFCURVE",
"870 85 OFFCURVE",
"842 88 CURVE",
"765 93 OFFCURVE",
"621 99 OFFCURVE",
"621 185 CURVE SMOOTH",
"621 555 LINE",
"803 555 LINE SMOOTH",
"1210 555 OFFCURVE",
"1396 742 OFFCURVE",
"1396 1010 CURVE SMOOTH",
"1396 1321 OFFCURVE",
"1158 1429 OFFCURVE",
"833 1429 CURVE SMOOTH",
"724 1429 OFFCURVE",
"571 1419 OFFCURVE",
"425 1419 CURVE {name = hr02;}",
"130 1419 LINE SMOOTH",
"107 1419 OFFCURVE",
"96 1383 OFFCURVE",
"96 1368 CURVE SMOOTH",
"96 1338 OFFCURVE",
"104 1334 OFFCURVE",
"132 1331 CURVE SMOOTH",
"193 1326 OFFCURVE",
"283 1320 OFFCURVE",
"283 1234 CURVE SMOOTH",
"283 152 LINE SMOOTH",
"283 108 OFFCURVE",
"212 93 OFFCURVE",
"148 88 CURVE",
"122 85 OFFCURVE",
"115 72 OFFCURVE",
"115 51 CURVE SMOOTH {name = hr01;}"
);
},
{
closed = 1;
nodes = (
"621 1332 LINE",
"720 1332 LINE SMOOTH",
"920 1332 OFFCURVE",
"1028 1265 OFFCURVE",
"1028 989 CURVE SMOOTH",
"1028 721 OFFCURVE",
"864 651 OFFCURVE",
"720 651 CURVE SMOOTH",
"621 651 LINE"
);
}
);
width = 1436;
}
);
unicode = 0050;
},
{
glyphname = Thorn;
layers = (
{
anchors = (
{
name = top;
position = "{683, 2000}";
}
);
layerId = "62CA62AF-CD91-478A-AB8B-28A62CC47DA0";
paths = (
{
closed = 1;
nodes = (
"114 36 OFFCURVE",
"125 0 OFFCURVE",
"148 0 CURVE SMOOTH",
"773 0 LINE SMOOTH",
"796 0 OFFCURVE",
"807 36 OFFCURVE",
"807 51 CURVE SMOOTH",
"807 81 OFFCURVE",
"799 85 OFFCURVE",
"771 88 CURVE SMOOTH",
"710 93 OFFCURVE",
"620 99 OFFCURVE",
"620 185 CURVE SMOOTH",
"620 318 LINE",
"825 318 LINE SMOOTH",
"1230 318 OFFCURVE",
"1398 503 OFFCURVE",
"1398 749 CURVE SMOOTH",
"1398 1024 OFFCURVE",
"1194 1144 OFFCURVE",
"796 1140 CURVE SMOOTH",
"620 1138 LINE",
"620 1267 LINE SMOOTH",
"620 1311 OFFCURVE",
"697 1326 OFFCURVE",
"765 1331 CURVE",
"791 1334 OFFCURVE",
"798 1347 OFFCURVE",
"798 1368 CURVE SMOOTH",
"798 1383 OFFCURVE",
"787 1419 OFFCURVE",
"764 1419 CURVE SMOOTH",
"139 1419 LINE SMOOTH",
"116 1419 OFFCURVE",
"105 1383 OFFCURVE",
"105 1368 CURVE SMOOTH",
"105 1338 OFFCURVE",
"113 1334 OFFCURVE",
"141 1331 CURVE SMOOTH",
"202 1326 OFFCURVE",
"283 1320 OFFCURVE",
"283 1234 CURVE SMOOTH",
"283 152 LINE SMOOTH",
"283 108 OFFCURVE",
"211 93 OFFCURVE",
"147 88 CURVE",
"121 85 OFFCURVE",
"114 72 OFFCURVE",
"114 51 CURVE SMOOTH {name = hr00;}"
);
},
{
closed = 1;
nodes = (
"620 1061 LINE",
"685 1061 LINE SMOOTH",
"843 1061 OFFCURVE",
"1030 1018 OFFCURVE",
"1030 728 CURVE SMOOTH",
"1030 436 OFFCURVE",
"797 401 OFFCURVE",
"722 401 CURVE SMOOTH",
"620 401 LINE"
);
}
);
width = 1450;
}
);
unicode = 00DE;
},
{
glyphname = Q;
layers = (
{
anchors = (
{
name = btm;
position = "{839, -200}";
},
{
name = top;
position = "{839, 2000}";
}
);
layerId = "62CA62AF-CD91-478A-AB8B-28A62CC47DA0";
paths = (
{
closed = 1;
nodes = (
"717 -370 OFFCURVE",
"1000 -419 OFFCURVE",
"1220 -419 CURVE SMOOTH",
"1329 -419 OFFCURVE",
"1433 -393 OFFCURVE",
"1433 -393 CURVE",
"1433 -303 LINE",
"1097 -309 OFFCURVE",
"1044 -119 OFFCURVE",
"1035 -5 CURVE",
"1377 79 OFFCURVE",
"1585 371 OFFCURVE",
"1585 716 CURVE SMOOTH",
"1585 1126 OFFCURVE",
"1292 1449 OFFCURVE",
"828 1449 CURVE SMOOTH",
"364 1449 OFFCURVE",
"72 1126 OFFCURVE",
"72 716 CURVE SMOOTH",
"72 360 OFFCURVE",
"292 61 OFFCURVE",
"653 -12 CURVE {name = hr00;}"
);
},
{
closed = 1;
nodes = (
"579 65 OFFCURVE",
"458 312 OFFCURVE",
"458 714 CURVE SMOOTH",
"458 1116 OFFCURVE",
"573 1356 OFFCURVE",
"826 1356 CURVE SMOOTH",
"1079 1356 OFFCURVE",
"1199 1116 OFFCURVE",
"1199 714 CURVE SMOOTH",
"1199 312 OFFCURVE",
"1085 65 OFFCURVE",
"832 65 CURVE SMOOTH"
);
}
);
width = 1679;
}
);
unicode = 0051;
},
{
glyphname = R;
layers = (
{
anchors = (
{
name = btm;
position = "{904, -200}";
},
{
name = top;
position = "{851, 2000}";
}
);
layerId = "62CA62AF-CD91-478A-AB8B-28A62CC47DA0";
paths = (
{
closed = 1;
nodes = (
"114 36 OFFCURVE",
"125 0 OFFCURVE",
"148 0 CURVE SMOOTH",
"763 0 LINE SMOOTH",
"786 0 OFFCURVE",
"797 36 OFFCURVE",
"797 51 CURVE SMOOTH",
"797 81 OFFCURVE",
"789 85 OFFCURVE",
"761 88 CURVE",
"688 93 OFFCURVE",
"619 99 OFFCURVE",
"619 185 CURVE SMOOTH",
"619 615 LINE",
"801 615 LINE",
"903 500 OFFCURVE",
"984 200 OFFCURVE",
"1086 70 CURVE",
"1114 37 OFFCURVE",
"1148 0 OFFCURVE",
"1219 0 CURVE SMOOTH",
"1571 0 LINE SMOOTH",
"1593 0 OFFCURVE",
"1606 17 OFFCURVE",
"1607 32 CURVE SMOOTH",
"1609 62 OFFCURVE",
"1603 86 OFFCURVE",
"1575 89 CURVE SMOOTH",
"1487 99 OFFCURVE",
"1392 245 OFFCURVE",
"1335 317 CURVE",
"1258 418 OFFCURVE",
"1196 560 OFFCURVE",
"1121 656 CURVE",
"1322 723 OFFCURVE",
"1406 846 OFFCURVE",
"1406 1050 CURVE SMOOTH",
"1406 1337 OFFCURVE",
"1184 1429 OFFCURVE",
"816 1429 CURVE SMOOTH",
"639 1429 OFFCURVE",
"563 1419 OFFCURVE",
"366 1419 CURVE SMOOTH {name = hr02;}",
"129 1419 LINE SMOOTH",
"106 1419 OFFCURVE",
"95 1383 OFFCURVE",
"95 1368 CURVE SMOOTH",
"95 1338 OFFCURVE",
"103 1334 OFFCURVE",
"131 1331 CURVE SMOOTH",
"192 1326 OFFCURVE",
"283 1320 OFFCURVE",
"283 1234 CURVE SMOOTH",
"283 152 LINE SMOOTH",
"283 108 OFFCURVE",
"211 93 OFFCURVE",
"147 88 CURVE",
"121 85 OFFCURVE",
"114 72 OFFCURVE",
"114 51 CURVE SMOOTH {name = hr01;}"
);
},
{
closed = 1;
nodes = (
"619 1325 LINE",
"645 1328 OFFCURVE",
"673 1332 OFFCURVE",
"733 1332 CURVE SMOOTH",
"941 1332 OFFCURVE",
"1027 1271 OFFCURVE",
"1027 1019 CURVE SMOOTH",
"1027 751 OFFCURVE",
"918 711 OFFCURVE",
"753 711 CURVE SMOOTH",
"619 711 LINE"
);
}
);
width = 1632;
}
);
unicode = 0052;
},
{
glyphname = S;
layers = (
{
anchors = (
{
name = btm;
position = "{656, -200}";
},
{
name = top;
position = "{661, 2000}";
}
);
layerId = "62CA62AF-CD91-478A-AB8B-28A62CC47DA0";
paths = (
{
closed = 1;
nodes = (
"126 3 OFFCURVE",
"203 -20 OFFCURVE",
"261 46 CURVE SMOOTH",
"299 88 OFFCURVE",
"312 61 OFFCURVE",
"368 41 CURVE SMOOTH",
"415 24 OFFCURVE",
"550 -30 OFFCURVE",
"683 -30 CURVE SMOOTH",
"1043 -30 OFFCURVE",
"1261 117 OFFCURVE",
"1261 372 CURVE SMOOTH {name = hr02;}",
"1261 591 OFFCURVE",
"1049 743 OFFCURVE",
"833 848 CURVE SMOOTH",
"655 935 OFFCURVE",
"465 1035 OFFCURVE",
"465 1194 CURVE SMOOTH",
"465 1326 OFFCURVE",
"576 1366 OFFCURVE",
"720 1366 CURVE SMOOTH",
"841 1366 OFFCURVE",
"999 1298 OFFCURVE",
"1052 1051 CURVE SMOOTH",
"1058 1022 OFFCURVE",
"1181 1003 OFFCURVE",
"1167 1100 CURVE",
"1153 1210 OFFCURVE",
"1142 1369 OFFCURVE",
"1142 1394 CURVE SMOOTH {name = hr03;}",
"1142 1421 OFFCURVE",
"1071 1444 OFFCURVE",
"1041 1425 CURVE SMOOTH",
"1018 1411 OFFCURVE",
"1021 1388 OFFCURVE",
"966 1398 CURVE SMOOTH {name = hr04;}",
"931 1404 OFFCURVE",
"817 1448 OFFCURVE",
"688 1448 CURVE SMOOTH",
"374 1448 OFFCURVE",
"160 1326 OFFCURVE",
"160 1069 CURVE SMOOTH",
"160 831 OFFCURVE",
"363 692 OFFCURVE",
"542 601 CURVE SMOOTH",
"738 502 OFFCURVE",
"944 413 OFFCURVE",
"944 240 CURVE SMOOTH",
"944 90 OFFCURVE",
"806 61 OFFCURVE",
"666 61 CURVE SMOOTH",
"556 61 OFFCURVE",
"381 141 OFFCURVE",
"305 294 CURVE",
"251 409 OFFCURVE",
"238 444 OFFCURVE",
"231 478 CURVE SMOOTH",
"219 538 OFFCURVE",
"101 536 OFFCURVE",
"111 458 CURVE",
"120 378 OFFCURVE",
"138 195 OFFCURVE",
"129 53 CURVE SMOOTH {name = hr01;}"
);
}
);
width = 1329;
}
);
unicode = 0053;
},
{
glyphname = Scedilla;
layers = (
{
layerId = "62CA62AF-CD91-478A-AB8B-28A62CC47DA0";
paths = (
{
closed = 1;
nodes = (
"126 3 OFFCURVE",
"203 -20 OFFCURVE",
"261 46 CURVE SMOOTH",
"299 88 OFFCURVE",
"312 61 OFFCURVE",
"368 41 CURVE SMOOTH",
"401 29 OFFCURVE",
"476 0 OFFCURVE",
"564 -17 CURVE",
"556 -144 LINE",
"558 -144 LINE",
"556 -145 LINE",
"677 -177 OFFCURVE",
"695 -214 OFFCURVE",
"695 -258 CURVE SMOOTH {name = hr02;}",
"695 -313 OFFCURVE",
"609 -333 OFFCURVE",
"465 -316 CURVE SMOOTH",
"438 -313 OFFCURVE",
"429 -354 OFFCURVE",
"429 -380 CURVE SMOOTH",
"429 -395 OFFCURVE",
"434 -403 OFFCURVE",
"449 -408 CURVE SMOOTH",
"485 -420 OFFCURVE",
"547 -438 OFFCURVE",
"656 -438 CURVE SMOOTH",
"849 -438 OFFCURVE",
"940 -368 OFFCURVE",
"940 -279 CURVE SMOOTH",
"940 -185 OFFCURVE",
"871 -114 OFFCURVE",
"723 -91 CURVE {name = hr03;}",
"723 -29 LINE",
"1059 -18 OFFCURVE",
"1261 126 OFFCURVE",
"1261 372 CURVE SMOOTH",
"1261 591 OFFCURVE",
"1049 736 OFFCURVE",
"833 848 CURVE SMOOTH",
"655 939 OFFCURVE",
"465 1065 OFFCURVE",
"465 1194 CURVE SMOOTH",
"465 1326 OFFCURVE",
"556 1366 OFFCURVE",
"720 1366 CURVE SMOOTH",
"841 1366 OFFCURVE",
"999 1298 OFFCURVE",
"1052 1051 CURVE SMOOTH",
"1058 1022 OFFCURVE",
"1181 1003 OFFCURVE",
"1167 1100 CURVE",
"1153 1210 OFFCURVE",
"1142 1369 OFFCURVE",
"1142 1394 CURVE SMOOTH {name = hr04;}",
"1142 1421 OFFCURVE",
"1071 1444 OFFCURVE",
"1041 1425 CURVE SMOOTH",
"1018 1411 OFFCURVE",
"1021 1388 OFFCURVE",
"966 1398 CURVE SMOOTH {name = hr05;}",
"931 1404 OFFCURVE",
"817 1448 OFFCURVE",
"688 1448 CURVE SMOOTH",
"404 1448 OFFCURVE",
"160 1326 OFFCURVE",
"160 1069 CURVE SMOOTH",
"160 831 OFFCURVE",
"366 702 OFFCURVE",
"542 601 CURVE",
"740 496 OFFCURVE",
"944 393 OFFCURVE",
"944 240 CURVE SMOOTH",
"944 90 OFFCURVE",
"806 61 OFFCURVE",
"666 61 CURVE SMOOTH",
"556 61 OFFCURVE",
"381 141 OFFCURVE",
"305 294 CURVE",
"251 409 OFFCURVE",
"238 444 OFFCURVE",
"231 478 CURVE SMOOTH",
"219 538 OFFCURVE",
"101 536 OFFCURVE",
"111 458 CURVE",
"120 378 OFFCURVE",
"138 195 OFFCURVE",
"129 53 CURVE SMOOTH {name = hr01;}"
);
}
);
width = 1329;
}
);
unicode = 015E;
},
{
glyphname = T;
layers = (
{
anchors = (
{
name = btm;
position = "{692, -200}";
},
{
name = top;
position = "{692, 2000}";
}
);
layerId = "62CA62AF-CD91-478A-AB8B-28A62CC47DA0";
paths = (
{
closed = 1;
nodes = (
"284 36 OFFCURVE",
"295 0 OFFCURVE",
"318 0 CURVE SMOOTH",
"1063 0 LINE SMOOTH",
"1086 0 OFFCURVE",
"1097 36 OFFCURVE",
"1097 51 CURVE SMOOTH",
"1097 81 OFFCURVE",
"1089 85 OFFCURVE",
"1061 88 CURVE",
"980 93 OFFCURVE",
"859 99 OFFCURVE",
"859 185 CURVE SMOOTH",
"859 1320 LINE",
"1106 1320 LINE SMOOTH",
"1221 1320 OFFCURVE",
"1254 1084 OFFCURVE",
"1260 1019 CURVE SMOOTH",
"1263 993 OFFCURVE",
"1296 986 OFFCURVE",
"1317 986 CURVE SMOOTH",
"1332 986 OFFCURVE",
"1368 997 OFFCURVE",
"1368 1020 CURVE",
"1364 1151 OFFCURVE",
"1353 1419 OFFCURVE",
"1338 1419 CURVE SMOOTH",
"31 1419 LINE SMOOTH",
"16 1419 OFFCURVE",
"5 1151 OFFCURVE",
"1 1020 CURVE",
"1 997 OFFCURVE",
"37 986 OFFCURVE",
"52 986 CURVE SMOOTH",
"73 986 OFFCURVE",
"106 993 OFFCURVE",
"109 1019 CURVE",
"114 1084 OFFCURVE",
"149 1320 OFFCURVE",
"263 1320 CURVE SMOOTH",
"523 1320 LINE",
"523 182 LINE SMOOTH",
"523 108 OFFCURVE",
"411 93 OFFCURVE",
"317 88 CURVE",
"291 85 OFFCURVE",
"284 72 OFFCURVE",
"284 51 CURVE SMOOTH {name = hr00;}"
);
}
);
width = 1401;
}
);
unicode = 0054;
},
{
glyphname = Tbar;
layers = (
{
layerId = "62CA62AF-CD91-478A-AB8B-28A62CC47DA0";
paths = (
{
closed = 1;
nodes = (
"284 36 OFFCURVE",
"295 0 OFFCURVE",
"318 0 CURVE SMOOTH",
"1063 0 LINE SMOOTH",
"1086 0 OFFCURVE",
"1097 36 OFFCURVE",
"1097 51 CURVE SMOOTH",
"1097 81 OFFCURVE",
"1089 85 OFFCURVE",
"1061 88 CURVE",
"980 93 OFFCURVE",
"859 99 OFFCURVE",
"859 185 CURVE SMOOTH",
"859 631 LINE",
"1157 631 LINE",
"1171 637 OFFCURVE",
"1181 659 OFFCURVE",
"1181 684 CURVE SMOOTH",
"1181 700 OFFCURVE",
"1173 727 OFFCURVE",
"1157 728 CURVE",
"859 728 LINE",
"859 1320 LINE",
"1106 1320 LINE SMOOTH",
"1221 1320 OFFCURVE",
"1254 1084 OFFCURVE",
"1260 1019 CURVE SMOOTH",
"1263 993 OFFCURVE",
"1296 986 OFFCURVE",
"1317 986 CURVE SMOOTH",
"1332 986 OFFCURVE",
"1368 997 OFFCURVE",
"1368 1020 CURVE",
"1364 1151 OFFCURVE",
"1353 1419 OFFCURVE",
"1338 1419 CURVE SMOOTH",
"31 1419 LINE SMOOTH",
"16 1419 OFFCURVE",
"5 1151 OFFCURVE",
"1 1020 CURVE",
"1 997 OFFCURVE",
"37 986 OFFCURVE",
"52 986 CURVE SMOOTH",
"73 986 OFFCURVE",
"106 993 OFFCURVE",
"109 1019 CURVE",
"114 1084 OFFCURVE",
"149 1320 OFFCURVE",
"263 1320 CURVE SMOOTH",
"523 1320 LINE",
"523 728 LINE",
"237 728 LINE",
"223 722 OFFCURVE",
"213 690 OFFCURVE",
"213 665 CURVE SMOOTH",
"213 649 OFFCURVE",
"221 632 OFFCURVE",
"237 631 CURVE",
"523 631 LINE",
"523 182 LINE SMOOTH",
"523 108 OFFCURVE",
"411 93 OFFCURVE",
"317 88 CURVE",
"291 85 OFFCURVE",
"284 72 OFFCURVE",
"284 51 CURVE SMOOTH {name = hr00;}"
);
}
);
width = 1401;
}
);
unicode = 0166;
},
{
glyphname = Tcedilla;
lastChange = "2018-05-14 03:32:21 +0000";
layers = (
{
layerId = "62CA62AF-CD91-478A-AB8B-28A62CC47DA0";
paths = (
{
closed = 1;
nodes = (
"284 36 OFFCURVE",
"295 0 OFFCURVE",
"318 0 CURVE SMOOTH",
"601 0 LINE {name = hr02;}",
"592 -144 LINE",
"594 -144 LINE",
"592 -145 LINE",
"713 -177 OFFCURVE",
"731 -214 OFFCURVE",
"731 -258 CURVE SMOOTH {name = hr03;}",
"731 -313 OFFCURVE",
"645 -333 OFFCURVE",
"501 -316 CURVE SMOOTH",
"474 -313 OFFCURVE",
"465 -354 OFFCURVE",
"465 -380 CURVE SMOOTH",
"465 -395 OFFCURVE",
"470 -403 OFFCURVE",
"485 -408 CURVE SMOOTH",
"521 -420 OFFCURVE",
"583 -438 OFFCURVE",
"692 -438 CURVE SMOOTH",
"885 -438 OFFCURVE",
"976 -368 OFFCURVE",
"976 -279 CURVE SMOOTH",
"976 -185 OFFCURVE",
"907 -114 OFFCURVE",
"759 -91 CURVE {name = hr04;}",
"759 0 LINE",
"1063 0 LINE SMOOTH",
"1086 0 OFFCURVE",
"1097 36 OFFCURVE",
"1097 51 CURVE SMOOTH",
"1097 81 OFFCURVE",
"1089 85 OFFCURVE",
"1061 88 CURVE",
"980 93 OFFCURVE",
"859 99 OFFCURVE",
"859 185 CURVE SMOOTH {name = hr05;}",
"859 1320 LINE",
"1106 1320 LINE SMOOTH",
"1221 1320 OFFCURVE",
"1254 1084 OFFCURVE",
"1260 1019 CURVE SMOOTH",
"1263 993 OFFCURVE",
"1296 986 OFFCURVE",
"1317 986 CURVE SMOOTH",
"1332 986 OFFCURVE",
"1368 997 OFFCURVE",
"1368 1020 CURVE",
"1364 1151 OFFCURVE",
"1353 1419 OFFCURVE",
"1338 1419 CURVE SMOOTH",
"31 1419 LINE SMOOTH",
"16 1419 OFFCURVE",
"5 1151 OFFCURVE",
"1 1020 CURVE",
"1 997 OFFCURVE",
"37 986 OFFCURVE",
"52 986 CURVE SMOOTH",
"73 986 OFFCURVE",
"106 993 OFFCURVE",
"109 1019 CURVE",
"114 1084 OFFCURVE",
"149 1320 OFFCURVE",
"263 1320 CURVE SMOOTH",
"523 1320 LINE",
"523 182 LINE SMOOTH",
"523 108 OFFCURVE",
"411 93 OFFCURVE",
"317 88 CURVE",
"291 85 OFFCURVE",
"284 72 OFFCURVE",
"284 51 CURVE SMOOTH {name = hr01;}"
);
}
);
width = 1401;
}
);
unicode = 0162;
},
{
glyphname = U;
layers = (
{
anchors = (
{
name = btm;
position = "{837, -200}";
},
{
name = top;
position = "{926, 2000}";
}
);
layerId = "62CA62AF-CD91-478A-AB8B-28A62CC47DA0";
paths = (
{
closed = 1;
nodes = (
"256 194 OFFCURVE",
"415 -29 OFFCURVE",
"901 -29 CURVE SMOOTH",
"1242 -29 OFFCURVE",
"1463 169 OFFCURVE",
"1463 566 CURVE SMOOTH",
"1463 1230 LINE SMOOTH",
"1463 1294 OFFCURVE",
"1531 1326 OFFCURVE",
"1634 1331 CURVE SMOOTH",
"1660 1332 OFFCURVE",
"1667 1347 OFFCURVE",
"1667 1368 CURVE SMOOTH",
"1667 1383 OFFCURVE",
"1656 1419 OFFCURVE",
"1633 1419 CURVE SMOOTH",
"1177 1419 LINE SMOOTH",
"1154 1419 OFFCURVE",
"1143 1383 OFFCURVE",
"1143 1368 CURVE SMOOTH",
"1143 1338 OFFCURVE",
"1151 1334 OFFCURVE",
"1179 1331 CURVE SMOOTH",
"1235 1326 OFFCURVE",
"1353 1311 OFFCURVE",
"1353 1244 CURVE SMOOTH",
"1353 564 LINE SMOOTH",
"1353 297 OFFCURVE",
"1254 65 OFFCURVE",
"918 65 CURVE SMOOTH",
"684 65 OFFCURVE",
"603 227 OFFCURVE",
"603 574 CURVE SMOOTH",
"603 1267 LINE SMOOTH",
"603 1311 OFFCURVE",
"690 1326 OFFCURVE",
"758 1331 CURVE SMOOTH",
"784 1334 OFFCURVE",
"791 1347 OFFCURVE",
"791 1368 CURVE SMOOTH",
"791 1383 OFFCURVE",
"780 1419 OFFCURVE",
"757 1419 CURVE SMOOTH",
"112 1419 LINE SMOOTH",
"89 1419 OFFCURVE",
"78 1383 OFFCURVE",
"78 1368 CURVE SMOOTH",
"78 1338 OFFCURVE",
"86 1334 OFFCURVE",
"114 1331 CURVE SMOOTH",
"175 1326 OFFCURVE",
"256 1320 OFFCURVE",
"256 1234 CURVE SMOOTH",
"256 566 LINE SMOOTH {name = hr00;}"
);
}
);
width = 1706;
}
);
unicode = 0055;
},
{
glyphname = Uogonek;
layers = (
{
layerId = "62CA62AF-CD91-478A-AB8B-28A62CC47DA0";
paths = (
{
closed = 1;
nodes = (
"256 198 OFFCURVE",
"411 -24 OFFCURVE",
"884 -29 CURVE",
"786 -87 OFFCURVE",
"701 -171 OFFCURVE",
"701 -273 CURVE SMOOTH",
"701 -365 OFFCURVE",
"779 -452 OFFCURVE",
"931 -452 CURVE SMOOTH",
"1006 -452 OFFCURVE",
"1103 -437 OFFCURVE",
"1187 -394 CURVE",
"1201 -383 OFFCURVE",
"1174 -298 OFFCURVE",
"1164 -304 CURVE",
"1138 -315 OFFCURVE",
"1092 -330 OFFCURVE",
"1049 -330 CURVE SMOOTH",
"992 -330 OFFCURVE",
"939 -313 OFFCURVE",
"939 -228 CURVE SMOOTH",
"939 -161 OFFCURVE",
"999 -52 OFFCURVE",
"1151 15 CURVE",
"1150 15 LINE",
"1346 93 OFFCURVE",
"1463 277 OFFCURVE",
"1463 566 CURVE SMOOTH",
"1463 1230 LINE SMOOTH",
"1463 1294 OFFCURVE",
"1531 1326 OFFCURVE",
"1634 1331 CURVE SMOOTH",
"1660 1332 OFFCURVE",
"1667 1347 OFFCURVE",
"1667 1368 CURVE SMOOTH",
"1667 1383 OFFCURVE",
"1656 1419 OFFCURVE",
"1633 1419 CURVE SMOOTH",
"1177 1419 LINE SMOOTH",
"1154 1419 OFFCURVE",
"1143 1383 OFFCURVE",
"1143 1368 CURVE SMOOTH",
"1143 1338 OFFCURVE",
"1151 1334 OFFCURVE",
"1179 1331 CURVE SMOOTH",
"1235 1326 OFFCURVE",
"1353 1311 OFFCURVE",
"1353 1244 CURVE SMOOTH",
"1353 564 LINE SMOOTH",
"1353 297 OFFCURVE",
"1254 65 OFFCURVE",
"918 65 CURVE SMOOTH",
"684 65 OFFCURVE",
"603 227 OFFCURVE",
"603 574 CURVE SMOOTH",
"603 1267 LINE SMOOTH",
"603 1311 OFFCURVE",
"690 1326 OFFCURVE",
"758 1331 CURVE",
"784 1334 OFFCURVE",
"791 1347 OFFCURVE",
"791 1368 CURVE SMOOTH",
"791 1383 OFFCURVE",
"780 1419 OFFCURVE",
"757 1419 CURVE SMOOTH",
"112 1419 LINE SMOOTH",
"89 1419 OFFCURVE",
"78 1383 OFFCURVE",
"78 1368 CURVE SMOOTH",
"78 1338 OFFCURVE",
"86 1334 OFFCURVE",
"114 1331 CURVE SMOOTH",
"175 1326 OFFCURVE",
"256 1320 OFFCURVE",
"256 1234 CURVE SMOOTH",
"256 566 LINE SMOOTH {name = hr00;}"
);
}
);
width = 1706;
}
);
unicode = 0172;
},
{
glyphname = V;
layers = (
{
anchors = (
{
name = btm;
position = "{745, -200}";
},
{
name = top;
position = "{745, 2000}";
}
);
layerId = "62CA62AF-CD91-478A-AB8B-28A62CC47DA0";
paths = (
{
closed = 1;
nodes = (
"884 -18 LINE",
"1404 1254 LINE SMOOTH",
"1425 1306 OFFCURVE",
"1456 1326 OFFCURVE",
"1575 1331 CURVE SMOOTH",
"1603 1332 OFFCURVE",
"1611 1338 OFFCURVE",
"1611 1368 CURVE SMOOTH",
"1611 1383 OFFCURVE",
"1599 1419 OFFCURVE",
"1577 1419 CURVE SMOOTH",
"1112 1419 LINE SMOOTH",
"1089 1419 OFFCURVE",
"1078 1383 OFFCURVE",
"1078 1368 CURVE SMOOTH",
"1078 1347 OFFCURVE",
"1085 1334 OFFCURVE",
"1111 1331 CURVE",
"1202 1326 OFFCURVE",
"1285 1304 OFFCURVE",
"1269 1257 CURVE",
"919 347 LINE",
"516 1287 LINE",
"499 1334 OFFCURVE",
"563 1326 OFFCURVE",
"654 1331 CURVE",
"680 1334 OFFCURVE",
"687 1347 OFFCURVE",
"687 1368 CURVE SMOOTH",
"687 1383 OFFCURVE",
"676 1419 OFFCURVE",
"653 1419 CURVE SMOOTH",
"-2 1419 LINE SMOOTH",
"-24 1419 OFFCURVE",
"-36 1383 OFFCURVE",
"-36 1368 CURVE SMOOTH",
"-36 1338 OFFCURVE",
"-28 1334 OFFCURVE",
"0 1331 CURVE SMOOTH",
"49 1326 OFFCURVE",
"128 1342 OFFCURVE",
"161 1254 CURVE",
"761 -18 LINE {name = hr00;}"
);
}
);
width = 1561;
}
);
unicode = 0056;
},
{
glyphname = W;
layers = (
{
anchors = (
{
name = btm;
position = "{1223, -200}";
},
{
name = top;
position = "{1235, 2000}";
}
);
layerId = "62CA62AF-CD91-478A-AB8B-28A62CC47DA0";
paths = (
{
closed = 1;
nodes = (
"783 -18 LINE",
"1122 987 LINE",
"1534 -18 LINE",
"1657 -18 LINE",
"2107 1180 LINE SMOOTH",
"2139 1269 OFFCURVE",
"2164 1331 OFFCURVE",
"2305 1331 CURVE SMOOTH",
"2333 1331 OFFCURVE",
"2341 1338 OFFCURVE",
"2341 1368 CURVE SMOOTH",
"2341 1383 OFFCURVE",
"2329 1419 OFFCURVE",
"2307 1419 CURVE SMOOTH",
"1822 1419 LINE SMOOTH",
"1799 1419 OFFCURVE",
"1788 1383 OFFCURVE",
"1788 1368 CURVE SMOOTH",
"1788 1347 OFFCURVE",
"1795 1334 OFFCURVE",
"1821 1331 CURVE",
"2004 1331 OFFCURVE",
"2017 1280 OFFCURVE",
"2000 1233 CURVE SMOOTH",
"1708 448 LINE",
"1323 1389 LINE",
"1149 1389 LINE",
"824 418 LINE",
"509 1230 LINE SMOOTH",
"492 1277 OFFCURVE",
"508 1331 OFFCURVE",
"650 1331 CURVE",
"676 1334 OFFCURVE",
"683 1347 OFFCURVE",
"683 1368 CURVE SMOOTH",
"683 1383 OFFCURVE",
"672 1419 OFFCURVE",
"649 1419 CURVE SMOOTH",
"-1 1419 LINE SMOOTH",
"-23 1419 OFFCURVE",
"-35 1383 OFFCURVE",
"-35 1368 CURVE SMOOTH",
"-35 1338 OFFCURVE",
"-27 1335 OFFCURVE",
"1 1331 CURVE SMOOTH",
"93 1317 OFFCURVE",
"124 1293 OFFCURVE",
"158 1205 CURVE SMOOTH",
"660 -18 LINE {name = hr00;}"
);
}
);
width = 2306;
}
);
unicode = 0057;
},
{
glyphname = X;
layers = (
{
anchors = (
{
name = btm;
position = "{776, -200}";
},
{
name = top;
position = "{776, 2000}";
}
);
layerId = "62CA62AF-CD91-478A-AB8B-28A62CC47DA0";
paths = (
{
closed = 1;
nodes = (
"47 36 OFFCURVE",
"59 0 OFFCURVE",
"81 0 CURVE SMOOTH",
"558 0 LINE SMOOTH",
"581 0 OFFCURVE",
"592 36 OFFCURVE",
"592 51 CURVE SMOOTH",
"592 72 OFFCURVE",
"585 85 OFFCURVE",
"559 88 CURVE",
"481 92 OFFCURVE",
"415 113 OFFCURVE",
"415 145 CURVE SMOOTH",
"415 150 OFFCURVE",
"417 156 OFFCURVE",
"421 162 CURVE SMOOTH",
"742 580 LINE",
"1046 170 LINE",
"1061 148 OFFCURVE",
"1070 133 OFFCURVE",
"1070 119 CURVE SMOOTH",
"1070 97 OFFCURVE",
"1005 85 OFFCURVE",
"914 88 CURVE",
"888 85 OFFCURVE",
"881 72 OFFCURVE",
"881 51 CURVE SMOOTH",
"881 36 OFFCURVE",
"892 0 OFFCURVE",
"915 0 CURVE SMOOTH",
"1620 0 LINE SMOOTH",
"1642 0 OFFCURVE",
"1654 36 OFFCURVE",
"1654 51 CURVE SMOOTH",
"1654 81 OFFCURVE",
"1646 85 OFFCURVE",
"1618 88 CURVE SMOOTH",
"1569 93 OFFCURVE",
"1488 86 OFFCURVE",
"1437 165 CURVE",
"969 786 LINE",
"1357 1254 LINE",
"1414 1330 OFFCURVE",
"1490 1326 OFFCURVE",
"1538 1331 CURVE SMOOTH",
"1566 1334 OFFCURVE",
"1574 1338 OFFCURVE",
"1574 1368 CURVE SMOOTH",
"1574 1383 OFFCURVE",
"1562 1419 OFFCURVE",
"1540 1419 CURVE SMOOTH",
"1085 1419 LINE SMOOTH",
"1062 1419 OFFCURVE",
"1051 1383 OFFCURVE",
"1051 1368 CURVE SMOOTH",
"1051 1347 OFFCURVE",
"1058 1334 OFFCURVE",
"1084 1331 CURVE",
"1156 1327 OFFCURVE",
"1209 1307 OFFCURVE",
"1209 1277 CURVE SMOOTH",
"1209 1271 OFFCURVE",
"1207 1264 OFFCURVE",
"1202 1257 CURVE SMOOTH",
"909 871 LINE",
"615 1277 LINE SMOOTH",
"612 1282 OFFCURVE",
"610 1286 OFFCURVE",
"610 1290 CURVE SMOOTH",
"610 1318 OFFCURVE",
"639 1325 OFFCURVE",
"757 1331 CURVE",
"783 1334 OFFCURVE",
"790 1347 OFFCURVE",
"790 1368 CURVE SMOOTH",
"790 1383 OFFCURVE",
"779 1419 OFFCURVE",
"756 1419 CURVE SMOOTH",
"61 1419 LINE SMOOTH",
"39 1419 OFFCURVE",
"27 1383 OFFCURVE",
"27 1368 CURVE SMOOTH",
"27 1338 OFFCURVE",
"35 1334 OFFCURVE",
"63 1331 CURVE SMOOTH",
"112 1326 OFFCURVE",
"183 1333 OFFCURVE",
"234 1254 CURVE",
"685 657 LINE",
"264 165 LINE SMOOTH",
"208 99 OFFCURVE",
"132 93 OFFCURVE",
"83 88 CURVE SMOOTH",
"55 85 OFFCURVE",
"47 81 OFFCURVE",
"47 51 CURVE SMOOTH {name = hr00;}"
);
}
);
width = 1657;
}
);
unicode = 0058;
},
{
glyphname = Y;
layers = (
{
anchors = (
{
name = btm;
position = "{761, -200}";
},
{
name = top;
position = "{850, 2000}";
}
);
layerId = "62CA62AF-CD91-478A-AB8B-28A62CC47DA0";
paths = (
{
closed = 1;
nodes = (
"391 36 OFFCURVE",
"402 0 OFFCURVE",
"425 0 CURVE SMOOTH",
"1120 0 LINE SMOOTH",
"1142 0 OFFCURVE",
"1154 36 OFFCURVE",
"1154 51 CURVE SMOOTH",
"1154 81 OFFCURVE",
"1136 85 OFFCURVE",
"1108 88 CURVE",
"1041 93 OFFCURVE",
"936 79 OFFCURVE",
"936 165 CURVE SMOOTH",
"936 535 LINE",
"1341 1254 LINE SMOOTH",
"1386 1335 OFFCURVE",
"1442 1336 OFFCURVE",
"1492 1341 CURVE SMOOTH",
"1520 1344 OFFCURVE",
"1528 1348 OFFCURVE",
"1528 1378 CURVE SMOOTH",
"1528 1393 OFFCURVE",
"1516 1419 OFFCURVE",
"1494 1419 CURVE SMOOTH",
"1079 1419 LINE SMOOTH",
"1056 1419 OFFCURVE",
"1045 1393 OFFCURVE",
"1045 1378 CURVE SMOOTH",
"1045 1357 OFFCURVE",
"1052 1343 OFFCURVE",
"1078 1341 CURVE SMOOTH",
"1172 1333 OFFCURVE",
"1229 1324 OFFCURVE",
"1229 1299 CURVE SMOOTH",
"1229 1295 OFFCURVE",
"1227 1288 OFFCURVE",
"1221 1277 CURVE SMOOTH",
"879 658 LINE",
"553 1287 LINE SMOOTH",
"551 1291 OFFCURVE",
"548 1297 OFFCURVE",
"548 1301 CURVE SMOOTH",
"548 1334 OFFCURVE",
"597 1334 OFFCURVE",
"701 1341 CURVE",
"727 1344 OFFCURVE",
"734 1357 OFFCURVE",
"734 1378 CURVE SMOOTH",
"734 1393 OFFCURVE",
"723 1419 OFFCURVE",
"700 1419 CURVE SMOOTH",
"-5 1419 LINE SMOOTH",
"-27 1419 OFFCURVE",
"-39 1393 OFFCURVE",
"-39 1378 CURVE SMOOTH",
"-39 1348 OFFCURVE",
"-31 1344 OFFCURVE",
"-3 1341 CURVE SMOOTH",
"46 1336 OFFCURVE",
"98 1334 OFFCURVE",
"148 1254 CURVE SMOOTH",
"599 525 LINE",
"599 152 LINE SMOOTH",
"599 81 OFFCURVE",
"501 93 OFFCURVE",
"434 88 CURVE",
"409 85 OFFCURVE",
"391 72 OFFCURVE",
"391 51 CURVE SMOOTH {name = hr00;}"
);
}
);
width = 1499;
}
);
unicode = 0059;
},
{
glyphname = Z;
layers = (
{
anchors = (
{
name = btm;
position = "{649, -200}";
},
{
name = top;
position = "{723, 2000}";
}
);
layerId = "62CA62AF-CD91-478A-AB8B-28A62CC47DA0";
paths = (
{
closed = 1;
nodes = (
"73 21 OFFCURVE",
"77 0 OFFCURVE",
"107 0 CURVE SMOOTH",
"1242 0 LINE",
"1262 1 OFFCURVE",
"1277 14 OFFCURVE",
"1289 41 CURVE",
"1339 429 LINE",
"1339 452 OFFCURVE",
"1283 463 OFFCURVE",
"1268 463 CURVE SMOOTH",
"1247 463 OFFCURVE",
"1234 456 OFFCURVE",
"1231 430 CURVE",
"1183 254 OFFCURVE",
"1062 83 OFFCURVE",
"973 83 CURVE SMOOTH",
"479 83 LINE",
"577 214 LINE",
"1299 1340 LINE SMOOTH",
"1305 1350 OFFCURVE",
"1309 1366 OFFCURVE",
"1309 1377 CURVE SMOOTH",
"1309 1393 LINE SMOOTH",
"1309 1412 OFFCURVE",
"1290 1419 OFFCURVE",
"1275 1419 CURVE SMOOTH",
"213 1419 LINE",
"193 1418 OFFCURVE",
"178 1405 OFFCURVE",
"166 1378 CURVE",
"137 1020 LINE",
"137 997 OFFCURVE",
"183 986 OFFCURVE",
"198 986 CURVE SMOOTH",
"219 986 OFFCURVE",
"229 994 OFFCURVE",
"235 1019 CURVE SMOOTH",
"272 1165 OFFCURVE",
"354 1336 OFFCURVE",
"442 1336 CURVE SMOOTH",
"904 1336 LINE",
"805 1205 LINE",
"115 123 LINE",
"79 69 OFFCURVE",
"73 49 OFFCURVE",
"73 36 CURVE SMOOTH",
"73 30 LINE SMOOTH {name = hr00;}"
);
}
);
width = 1411;
}
);
unicode = 005A;
},
{
glyphname = a;
layers = (
{
anchors = (
{
name = btm;
position = "{622, -200}";
},
{
name = top;
position = "{590, 2000}";
}
);
layerId = "62CA62AF-CD91-478A-AB8B-28A62CC47DA0";
paths = (
{
closed = 1;
nodes = (
"85 48 OFFCURVE",
"259 -24 OFFCURVE",
"379 -24 CURVE SMOOTH",
"519 -24 OFFCURVE",
"644 21 OFFCURVE",
"731 112 CURVE",
"731 109 LINE SMOOTH",
"730 87 OFFCURVE",
"715 -25 OFFCURVE",
"883 -25 CURVE SMOOTH",
"1046 -25 OFFCURVE",
"1148 22 OFFCURVE",
"1170 37 CURVE",
"1186 50 OFFCURVE",
"1167 118 OFFCURVE",
"1136 109 CURVE SMOOTH",
"1112 102 OFFCURVE",
"1097 101 OFFCURVE",
"1078 101 CURVE SMOOTH",
"1056 101 OFFCURVE",
"1040 141 OFFCURVE",
"1040 193 CURVE SMOOTH",
"1040 736 LINE SMOOTH",
"1040 895 OFFCURVE",
"911 1014 OFFCURVE",
"606 1014 CURVE SMOOTH",
"454 1014 OFFCURVE",
"131 944 OFFCURVE",
"131 781 CURVE SMOOTH",
"131 703 OFFCURVE",
"199 645 OFFCURVE",
"268 645 CURVE SMOOTH",
"312 645 OFFCURVE",
"328 674 OFFCURVE",
"346 702 CURVE SMOOTH",
"371 741 OFFCURVE",
"427 870 OFFCURVE",
"446 900 CURVE",
"446 900 OFFCURVE",
"478 919 OFFCURVE",
"563 919 CURVE SMOOTH",
"652 919 OFFCURVE",
"713 890 OFFCURVE",
"713 763 CURVE SMOOTH",
"713 738 OFFCURVE",
"712 676 OFFCURVE",
"712 598 CURVE",
"441 570 OFFCURVE",
"75 507 OFFCURVE",
"81 235 CURVE SMOOTH {name = hr00;}"
);
},
{
closed = 1;
nodes = (
"420 460 OFFCURVE",
"577 498 OFFCURVE",
"712 518 CURVE",
"712 196 LINE",
"686 164 OFFCURVE",
"636 120 OFFCURVE",
"551 120 CURVE SMOOTH",
"463 120 OFFCURVE",
"420 185 OFFCURVE",
"420 252 CURVE SMOOTH"
);
}
);
width = 1221;
}
);
unicode = 0061;
},
{
glyphname = aogonek;
layers = (
{
layerId = "62CA62AF-CD91-478A-AB8B-28A62CC47DA0";
paths = (
{
closed = 1;
nodes = (
"85 48 OFFCURVE",
"259 -24 OFFCURVE",
"379 -24 CURVE SMOOTH",
"519 -24 OFFCURVE",
"644 21 OFFCURVE",
"731 112 CURVE",
"731 109 LINE SMOOTH",
"730 88 OFFCURVE",
"716 -11 OFFCURVE",
"854 -23 CURVE",
"746 -78 OFFCURVE",
"645 -161 OFFCURVE",
"645 -273 CURVE SMOOTH {name = hr02;}",
"645 -365 OFFCURVE",
"723 -452 OFFCURVE",
"875 -452 CURVE SMOOTH",
"950 -452 OFFCURVE",
"1047 -437 OFFCURVE",
"1131 -394 CURVE",
"1145 -383 OFFCURVE",
"1118 -298 OFFCURVE",
"1108 -304 CURVE",
"1082 -315 OFFCURVE",
"1036 -330 OFFCURVE",
"993 -330 CURVE SMOOTH",
"936 -330 OFFCURVE",
"883 -313 OFFCURVE",
"883 -228 CURVE SMOOTH",
"883 -161 OFFCURVE",
"940 -64 OFFCURVE",
"1092 3 CURVE",
"1089 3 LINE",
"1132 16 OFFCURVE",
"1159 30 OFFCURVE",
"1170 37 CURVE",
"1186 50 OFFCURVE",
"1167 118 OFFCURVE",
"1136 109 CURVE SMOOTH {name = hr03;}",
"1112 102 OFFCURVE",
"1097 101 OFFCURVE",
"1078 101 CURVE SMOOTH",
"1056 101 OFFCURVE",
"1040 141 OFFCURVE",
"1040 193 CURVE SMOOTH",
"1040 736 LINE SMOOTH",
"1040 895 OFFCURVE",
"911 1014 OFFCURVE",
"606 1014 CURVE SMOOTH",
"454 1014 OFFCURVE",
"131 944 OFFCURVE",
"131 781 CURVE SMOOTH",
"131 703 OFFCURVE",
"199 645 OFFCURVE",
"268 645 CURVE SMOOTH",
"312 645 OFFCURVE",
"328 674 OFFCURVE",
"346 702 CURVE SMOOTH",
"371 741 OFFCURVE",
"427 870 OFFCURVE",
"446 900 CURVE",
"446 900 OFFCURVE",
"478 919 OFFCURVE",
"563 919 CURVE SMOOTH",
"652 919 OFFCURVE",
"713 890 OFFCURVE",
"713 763 CURVE SMOOTH",
"713 738 OFFCURVE",
"712 676 OFFCURVE",
"712 598 CURVE",
"441 570 OFFCURVE",
"75 507 OFFCURVE",
"81 235 CURVE SMOOTH {name = hr01;}"
);
},
{
closed = 1;
nodes = (
"420 460 OFFCURVE",
"577 498 OFFCURVE",
"712 518 CURVE",
"712 196 LINE",
"686 164 OFFCURVE",
"636 120 OFFCURVE",
"551 120 CURVE SMOOTH",
"463 120 OFFCURVE",
"420 185 OFFCURVE",
"420 252 CURVE SMOOTH"
);
}
);
width = 1221;
}
);
unicode = 0105;
},
{
glyphname = ae;
layers = (
{
anchors = (
{
name = top;
position = "{919, 2000}";
}
);
layerId = "62CA62AF-CD91-478A-AB8B-28A62CC47DA0";
paths = (
{
closed = 1;
nodes = (
"85 48 OFFCURVE",
"259 -24 OFFCURVE",
"379 -24 CURVE SMOOTH {name = hr02;}",
"595 -24 OFFCURVE",
"718 35 OFFCURVE",
"807 147 CURVE",
"890 33 OFFCURVE",
"1032 -29 OFFCURVE",
"1243 -29 CURVE SMOOTH {name = hr03;}",
"1459 -29 OFFCURVE",
"1600 52 OFFCURVE",
"1667 173 CURVE SMOOTH",
"1675 188 OFFCURVE",
"1676 196 OFFCURVE",
"1663 202 CURVE SMOOTH",
"1619 223 LINE",
"1606 226 OFFCURVE",
"1599 215 OFFCURVE",
"1593 208 CURVE SMOOTH",
"1529 131 OFFCURVE",
"1444 105 OFFCURVE",
"1319 105 CURVE SMOOTH",
"1193 105 OFFCURVE",
"1040 200 OFFCURVE",
"1040 508 CURVE",
"1040 509 LINE",
"1714 509 LINE",
"1714 564 OFFCURVE",
"1714 626 OFFCURVE",
"1705 674 CURVE SMOOTH",
"1668 885 OFFCURVE",
"1543 1014 OFFCURVE",
"1227 1014 CURVE SMOOTH",
"1107 1014 OFFCURVE",
"996 981 OFFCURVE",
"908 919 CURVE",
"838 979 OFFCURVE",
"739 1014 OFFCURVE",
"606 1014 CURVE SMOOTH",
"454 1014 OFFCURVE",
"131 944 OFFCURVE",
"131 781 CURVE SMOOTH",
"131 703 OFFCURVE",
"199 645 OFFCURVE",
"268 645 CURVE SMOOTH",
"312 645 OFFCURVE",
"328 674 OFFCURVE",
"346 702 CURVE SMOOTH",
"371 741 OFFCURVE",
"427 870 OFFCURVE",
"446 900 CURVE {name = hr04;}",
"446 900 OFFCURVE",
"478 919 OFFCURVE",
"563 919 CURVE SMOOTH",
"652 919 OFFCURVE",
"712 890 OFFCURVE",
"712 763 CURVE SMOOTH",
"712 598 LINE",
"440 570 OFFCURVE",
"75 506 OFFCURVE",
"81 235 CURVE SMOOTH {name = hr01;}"
);
},
{
closed = 1;
nodes = (
"1059 838 OFFCURVE",
"1138 929 OFFCURVE",
"1224 929 CURVE SMOOTH",
"1333 929 OFFCURVE",
"1381 833 OFFCURVE",
"1381 601 CURVE",
"1043 601 LINE"
);
},
{
closed = 1;
nodes = (
"420 460 OFFCURVE",
"576 498 OFFCURVE",
"712 518 CURVE",
"712 171 LINE",
"678 145 OFFCURVE",
"626 120 OFFCURVE",
"551 120 CURVE SMOOTH",
"463 120 OFFCURVE",
"420 185 OFFCURVE",
"420 252 CURVE SMOOTH {name = hr06;}"
);
}
);
width = 1755;
}
);
unicode = 00E6;
},
{
glyphname = b;
layers = (
{
anchors = (
{
name = btm;
position = "{597, -200}";
},
{
name = top;
position = "{850, 2000}";
}
);
layerId = "62CA62AF-CD91-478A-AB8B-28A62CC47DA0";
paths = (
{
closed = 1;
nodes = (
"160 -4 OFFCURVE",
"167 -32 OFFCURVE",
"195 -32 CURVE SMOOTH",
"215 -32 OFFCURVE",
"230 -33 OFFCURVE",
"259 -8 CURVE SMOOTH",
"278 8 OFFCURVE",
"302 24 OFFCURVE",
"328 40 CURVE",
"449 -21 OFFCURVE",
"618 -29 OFFCURVE",
"732 -29 CURVE SMOOTH",
"1076 -29 OFFCURVE",
"1242 224 OFFCURVE",
"1242 493 CURVE SMOOTH",
"1242 763 OFFCURVE",
"1123 1014 OFFCURVE",
"794 1014 CURVE SMOOTH",
"678 1014 OFFCURVE",
"534 970 OFFCURVE",
"466 877 CURVE",
"476 1015 LINE",
"476 1500 LINE",
"478 1503 OFFCURVE",
"478 1506 OFFCURVE",
"476 1508 CURVE",
"473 1540 OFFCURVE",
"457 1548 OFFCURVE",
"446 1548 CURVE SMOOTH",
"367 1547 OFFCURVE",
"195 1546 OFFCURVE",
"11 1538 CURVE SMOOTH",
"-5 1537 OFFCURVE",
"-13 1510 OFFCURVE",
"-13 1494 CURVE SMOOTH",
"-13 1469 OFFCURVE",
"-3 1460 OFFCURVE",
"11 1454 CURVE",
"62 1440 OFFCURVE",
"160 1453 OFFCURVE",
"160 1329 CURVE SMOOTH",
"160 25 LINE SMOOTH {name = hr00;}"
);
},
{
closed = 1;
nodes = (
"476 776 LINE",
"510 838 OFFCURVE",
"590 869 OFFCURVE",
"651 869 CURVE SMOOTH",
"841 869 OFFCURVE",
"905 722 OFFCURVE",
"905 493 CURVE SMOOTH",
"905 235 OFFCURVE",
"841 76 OFFCURVE",
"635 76 CURVE SMOOTH",
"572 76 OFFCURVE",
"493 135 OFFCURVE",
"476 164 CURVE"
);
}
);
width = 1323;
}
);
unicode = 0062;
},
{
glyphname = c;
layers = (
{
anchors = (
{
name = btm;
position = "{564, -200}";
},
{
name = top;
position = "{620, 2000}";
}
);
layerId = "62CA62AF-CD91-478A-AB8B-28A62CC47DA0";
paths = (
{
closed = 1;
nodes = (
"62 176 OFFCURVE",
"236 -29 OFFCURVE",
"655 -29 CURVE SMOOTH",
"779 -29 OFFCURVE",
"956 52 OFFCURVE",
"1019 173 CURVE SMOOTH",
"1027 188 OFFCURVE",
"1028 196 OFFCURVE",
"1015 202 CURVE",
"971 223 LINE",
"958 226 OFFCURVE",
"951 215 OFFCURVE",
"945 208 CURVE SMOOTH",
"885 141 OFFCURVE",
"796 105 OFFCURVE",
"681 105 CURVE SMOOTH",
"554 105 OFFCURVE",
"407 224 OFFCURVE",
"407 490 CURVE SMOOTH",
"407 825 OFFCURVE",
"505 929 OFFCURVE",
"616 929 CURVE SMOOTH",
"694 929 OFFCURVE",
"686 912 OFFCURVE",
"686 912 CURVE",
"803 670 LINE SMOOTH",
"814 646 OFFCURVE",
"854 613 OFFCURVE",
"900 613 CURVE SMOOTH",
"955 613 OFFCURVE",
"1074 670 OFFCURVE",
"1022 824 CURVE SMOOTH",
"975 963 OFFCURVE",
"859 1014 OFFCURVE",
"654 1014 CURVE SMOOTH",
"333 1014 OFFCURVE",
"62 834 OFFCURVE",
"62 500 CURVE SMOOTH {name = hr00;}"
);
}
);
width = 1087;
}
);
unicode = 0063;
},
{
glyphname = ccedilla;
layers = (
{
layerId = "62CA62AF-CD91-478A-AB8B-28A62CC47DA0";
paths = (
{
closed = 1;
nodes = (
"464 -144 LINE",
"466 -144 LINE",
"464 -145 LINE",
"585 -177 OFFCURVE",
"603 -214 OFFCURVE",
"603 -258 CURVE SMOOTH {name = hr02;}",
"603 -313 OFFCURVE",
"517 -333 OFFCURVE",
"373 -316 CURVE SMOOTH",
"346 -313 OFFCURVE",
"337 -354 OFFCURVE",
"337 -380 CURVE SMOOTH",
"337 -395 OFFCURVE",
"342 -403 OFFCURVE",
"357 -408 CURVE SMOOTH",
"393 -420 OFFCURVE",
"455 -438 OFFCURVE",
"564 -438 CURVE SMOOTH",
"757 -438 OFFCURVE",
"848 -368 OFFCURVE",
"848 -279 CURVE SMOOTH",
"848 -185 OFFCURVE",
"779 -114 OFFCURVE",
"631 -91 CURVE {name = hr03;}",
"631 -28 LINE",
"639 -28 OFFCURVE",
"647 -29 OFFCURVE",
"655 -29 CURVE SMOOTH",
"779 -29 OFFCURVE",
"956 52 OFFCURVE",
"1019 173 CURVE SMOOTH",
"1027 188 OFFCURVE",
"1028 196 OFFCURVE",
"1015 202 CURVE SMOOTH",
"971 223 LINE",
"958 226 OFFCURVE",
"951 215 OFFCURVE",
"945 208 CURVE SMOOTH",
"885 141 OFFCURVE",
"796 105 OFFCURVE",
"681 105 CURVE SMOOTH",
"554 105 OFFCURVE",
"407 224 OFFCURVE",
"407 490 CURVE SMOOTH",
"407 825 OFFCURVE",
"505 929 OFFCURVE",
"616 929 CURVE SMOOTH",
"694 929 OFFCURVE",
"686 912 OFFCURVE",
"686 912 CURVE",
"803 670 LINE SMOOTH",
"814 646 OFFCURVE",
"854 613 OFFCURVE",
"900 613 CURVE SMOOTH",
"955 613 OFFCURVE",
"1074 670 OFFCURVE",
"1022 824 CURVE SMOOTH",
"975 963 OFFCURVE",
"859 1014 OFFCURVE",
"654 1014 CURVE SMOOTH",
"333 1014 OFFCURVE",
"62 834 OFFCURVE",
"62 500 CURVE SMOOTH",
"62 228 OFFCURVE",
"184 40 OFFCURVE",
"472 -13 CURVE {name = hr01;}"
);
}
);
width = 1087;
}
);
unicode = 00E7;
},
{
glyphname = d;
layers = (
{
anchors = (
{
name = btm;
position = "{676, -200}";
},
{
name = top;
position = "{408, 2000}";
}
);
layerId = "62CA62AF-CD91-478A-AB8B-28A62CC47DA0";
paths = (
{
closed = 1;
nodes = (
"82 222 OFFCURVE",
"201 -29 OFFCURVE",
"530 -29 CURVE SMOOTH",
"645 -29 OFFCURVE",
"790 15 OFFCURVE",
"858 108 CURVE",
"857 37 OFFCURVE",
"854 0 OFFCURVE",
"934 0 CURVE SMOOTH {name = hr02;}",
"1278 0 LINE SMOOTH",
"1300 0 OFFCURVE",
"1312 26 OFFCURVE",
"1312 41 CURVE SMOOTH",
"1312 71 OFFCURVE",
"1304 75 OFFCURVE",
"1276 78 CURVE SMOOTH",
"1227 83 OFFCURVE",
"1164 89 OFFCURVE",
"1164 175 CURVE SMOOTH",
"1164 1508 LINE SMOOTH",
"1164 1540 OFFCURVE",
"1145 1548 OFFCURVE",
"1134 1548 CURVE SMOOTH",
"1054 1547 OFFCURVE",
"836 1546 OFFCURVE",
"649 1538 CURVE SMOOTH",
"634 1537 OFFCURVE",
"625 1510 OFFCURVE",
"625 1494 CURVE SMOOTH",
"625 1469 OFFCURVE",
"635 1460 OFFCURVE",
"649 1454 CURVE",
"761 1446 OFFCURVE",
"848 1425 OFFCURVE",
"848 1329 CURVE SMOOTH",
"848 1105 LINE",
"857 948 LINE",
"768 1002 OFFCURVE",
"699 1014 OFFCURVE",
"592 1014 CURVE SMOOTH",
"248 1014 OFFCURVE",
"82 761 OFFCURVE",
"82 492 CURVE SMOOTH {name = hr01;}"
);
},
{
closed = 1;
nodes = (
"419 740 OFFCURVE",
"483 909 OFFCURVE",
"689 909 CURVE SMOOTH",
"752 909 OFFCURVE",
"831 850 OFFCURVE",
"848 801 CURVE",
"848 209 LINE",
"813 147 OFFCURVE",
"734 116 OFFCURVE",
"673 116 CURVE SMOOTH",
"483 116 OFFCURVE",
"419 273 OFFCURVE",
"419 492 CURVE SMOOTH"
);
}
);
width = 1358;
}
);
unicode = 0064;
},
{
glyphname = eth;
layers = (
{
anchors = (
{
name = top;
position = "{535, 2000}";
}
);
layerId = "62CA62AF-CD91-478A-AB8B-28A62CC47DA0";
paths = (
{
closed = 1;
nodes = (
"76 211 OFFCURVE",
"305 -29 OFFCURVE",
"653 -29 CURVE SMOOTH",
"1050 -29 OFFCURVE",
"1226 258 OFFCURVE",
"1226 602 CURVE SMOOTH",
"1226 925 OFFCURVE",
"1064 1265 OFFCURVE",
"757 1455 CURVE",
"963 1615 LINE",
"970 1629 OFFCURVE",
"958 1659 OFFCURVE",
"941 1679 CURVE SMOOTH",
"931 1691 OFFCURVE",
"915 1699 OFFCURVE",
"901 1689 CURVE SMOOTH",
"665 1506 LINE",
"551 1561 OFFCURVE",
"420 1596 OFFCURVE",
"273 1606 CURVE",
"253 1606 OFFCURVE",
"246 1591 OFFCURVE",
"238 1566 CURVE SMOOTH",
"229 1537 OFFCURVE",
"236 1497 OFFCURVE",
"252 1495 CURVE SMOOTH",
"361 1481 OFFCURVE",
"454 1450 OFFCURVE",
"534 1405 CURVE",
"331 1247 LINE",
"325 1233 OFFCURVE",
"331 1211 OFFCURVE",
"348 1191 CURVE SMOOTH",
"358 1179 OFFCURVE",
"380 1164 OFFCURVE",
"393 1173 CURVE",
"618 1348 LINE",
"746 1245 OFFCURVE",
"828 1098 OFFCURVE",
"871 924 CURVE",
"811 980 OFFCURVE",
"725 1015 OFFCURVE",
"633 1015 CURVE SMOOTH",
"288 1015 OFFCURVE",
"76 823 OFFCURVE",
"76 492 CURVE SMOOTH {name = hr00;}"
);
},
{
closed = 1;
nodes = (
"423 743 OFFCURVE",
"492 897 OFFCURVE",
"649 897 CURVE SMOOTH",
"827 897 OFFCURVE",
"873 829 OFFCURVE",
"874 625 CURVE SMOOTH",
"874 620 LINE SMOOTH",
"874 350 OFFCURVE",
"848 66 OFFCURVE",
"650 66 CURVE SMOOTH",
"489 66 OFFCURVE",
"423 218 OFFCURVE",
"423 462 CURVE SMOOTH"
);
}
);
width = 1307;
}
);
unicode = 00F0;
},
{
glyphname = dcroat;
layers = (
{
layerId = "62CA62AF-CD91-478A-AB8B-28A62CC47DA0";
paths = (
{
closed = 1;
nodes = (
"82 222 OFFCURVE",
"201 -29 OFFCURVE",
"530 -29 CURVE SMOOTH",
"645 -29 OFFCURVE",
"790 15 OFFCURVE",
"858 108 CURVE",
"857 37 OFFCURVE",
"854 0 OFFCURVE",
"934 0 CURVE SMOOTH {name = hr02;}",
"1278 0 LINE SMOOTH",
"1300 0 OFFCURVE",
"1312 26 OFFCURVE",
"1312 41 CURVE SMOOTH",
"1312 71 OFFCURVE",
"1304 75 OFFCURVE",
"1276 78 CURVE SMOOTH",
"1227 83 OFFCURVE",
"1164 89 OFFCURVE",
"1164 175 CURVE SMOOTH",
"1164 1191 LINE",
"1306 1191 LINE",
"1320 1197 OFFCURVE",
"1330 1219 OFFCURVE",
"1330 1244 CURVE SMOOTH",
"1330 1260 OFFCURVE",
"1322 1287 OFFCURVE",
"1306 1288 CURVE",
"1164 1288 LINE",
"1164 1508 LINE SMOOTH",
"1164 1540 OFFCURVE",
"1145 1548 OFFCURVE",
"1134 1548 CURVE SMOOTH",
"1054 1547 OFFCURVE",
"836 1546 OFFCURVE",
"649 1538 CURVE SMOOTH",
"634 1537 OFFCURVE",
"625 1510 OFFCURVE",
"625 1494 CURVE SMOOTH",
"625 1469 OFFCURVE",
"635 1460 OFFCURVE",
"649 1454 CURVE",
"761 1446 OFFCURVE",
"848 1425 OFFCURVE",
"848 1329 CURVE SMOOTH",
"848 1288 LINE",
"537 1288 LINE",
"523 1282 OFFCURVE",
"513 1250 OFFCURVE",
"513 1225 CURVE SMOOTH",
"513 1209 OFFCURVE",
"521 1192 OFFCURVE",
"537 1191 CURVE",
"848 1191 LINE",
"848 1105 LINE",
"857 948 LINE",
"768 1002 OFFCURVE",
"699 1014 OFFCURVE",
"592 1014 CURVE SMOOTH",
"248 1014 OFFCURVE",
"82 761 OFFCURVE",
"82 492 CURVE SMOOTH {name = hr01;}"
);
},
{
closed = 1;
nodes = (
"419 740 OFFCURVE",
"483 909 OFFCURVE",
"689 909 CURVE SMOOTH",
"752 909 OFFCURVE",
"831 850 OFFCURVE",
"848 801 CURVE",
"848 209 LINE",
"813 147 OFFCURVE",
"734 116 OFFCURVE",
"673 116 CURVE SMOOTH",
"483 116 OFFCURVE",
"419 273 OFFCURVE",
"419 492 CURVE SMOOTH"
);
}
);
width = 1358;
}
);
unicode = 0111;
},
{
glyphname = e;
layers = (
{
anchors = (
{
name = btm;
position = "{590, -200}";
},
{
name = top;
position = "{620, 2000}";
}
);
layerId = "62CA62AF-CD91-478A-AB8B-28A62CC47DA0";
paths = (
{
closed = 1;
nodes = (
"72 168 OFFCURVE",
"249 -29 OFFCURVE",
"645 -29 CURVE SMOOTH",
"856 -29 OFFCURVE",
"994 52 OFFCURVE",
"1059 173 CURVE SMOOTH",
"1067 188 OFFCURVE",
"1068 196 OFFCURVE",
"1055 202 CURVE SMOOTH",
"1011 223 LINE",
"998 226 OFFCURVE",
"991 215 OFFCURVE",
"985 208 CURVE SMOOTH",
"923 131 OFFCURVE",
"841 105 OFFCURVE",
"721 105 CURVE SMOOTH",
"581 105 OFFCURVE",
"412 200 OFFCURVE",
"412 508 CURVE",
"412 509 LINE",
"1106 509 LINE",
"1106 564 OFFCURVE",
"1105 626 OFFCURVE",
"1097 674 CURVE SMOOTH",
"1061 885 OFFCURVE",
"938 1014 OFFCURVE",
"629 1014 CURVE SMOOTH",
"332 1014 OFFCURVE",
"72 836 OFFCURVE",
"72 502 CURVE SMOOTH {name = hr01;}"
);
},
{
closed = 1;
nodes = (
"434 838 OFFCURVE",
"527 929 OFFCURVE",
"626 929 CURVE SMOOTH",
"728 929 OFFCURVE",
"773 833 OFFCURVE",
"773 601 CURVE",
"415 601 LINE"
);
}
);
width = 1171;
}
);
unicode = 0065;
},
{
glyphname = eogonek;
layers = (
{
layerId = "62CA62AF-CD91-478A-AB8B-28A62CC47DA0";
paths = (
{
closed = 1;
nodes = (
"72 176 OFFCURVE",
"240 -19 OFFCURVE",
"615 -28 CURVE",
"518 -86 OFFCURVE",
"432 -171 OFFCURVE",
"432 -273 CURVE SMOOTH {name = hr02;}",
"432 -365 OFFCURVE",
"510 -452 OFFCURVE",
"662 -452 CURVE SMOOTH",
"737 -452 OFFCURVE",
"834 -437 OFFCURVE",
"918 -394 CURVE",
"932 -383 OFFCURVE",
"905 -298 OFFCURVE",
"895 -304 CURVE",
"869 -315 OFFCURVE",
"823 -330 OFFCURVE",
"780 -330 CURVE SMOOTH",
"723 -330 OFFCURVE",
"670 -313 OFFCURVE",
"670 -228 CURVE SMOOTH",
"670 -161 OFFCURVE",
"730 -52 OFFCURVE",
"882 15 CURVE SMOOTH",
"963 50 OFFCURVE",
"1022 105 OFFCURVE",
"1059 173 CURVE SMOOTH",
"1067 188 OFFCURVE",
"1068 196 OFFCURVE",
"1055 202 CURVE SMOOTH",
"1011 223 LINE",
"998 226 OFFCURVE",
"991 215 OFFCURVE",
"985 208 CURVE SMOOTH",
"923 131 OFFCURVE",
"841 105 OFFCURVE",
"721 105 CURVE SMOOTH",
"581 105 OFFCURVE",
"412 200 OFFCURVE",
"412 508 CURVE {name = hr03;}",
"412 509 LINE",
"1106 509 LINE",
"1106 564 OFFCURVE",
"1105 626 OFFCURVE",
"1097 674 CURVE SMOOTH",
"1061 885 OFFCURVE",
"938 1014 OFFCURVE",
"629 1014 CURVE SMOOTH",
"332 1014 OFFCURVE",
"72 836 OFFCURVE",
"72 502 CURVE SMOOTH {name = hr01;}"
);
},
{
closed = 1;
nodes = (
"434 838 OFFCURVE",
"527 929 OFFCURVE",
"626 929 CURVE SMOOTH",
"728 929 OFFCURVE",
"773 833 OFFCURVE",
"773 601 CURVE",
"415 601 LINE"
);
}
);
width = 1171;
}
);
unicode = 0119;
},
{
glyphname = f;
layers = (
{
anchors = (
{
name = btm;
position = "{422, -200}";
},
{
name = top;
position = "{206, 2322}";
}
);
layerId = "62CA62AF-CD91-478A-AB8B-28A62CC47DA0";
paths = (
{
closed = 1;
nodes = (
"59 26 OFFCURVE",
"70 0 OFFCURVE",
"93 0 CURVE SMOOTH",
"688 0 LINE SMOOTH",
"711 0 OFFCURVE",
"722 26 OFFCURVE",
"722 41 CURVE SMOOTH",
"722 71 OFFCURVE",
"714 75 OFFCURVE",
"686 78 CURVE",
"621 82 OFFCURVE",
"524 88 OFFCURVE",
"524 165 CURVE SMOOTH",
"524 887 LINE",
"756 887 LINE",
"770 893 OFFCURVE",
"780 935 OFFCURVE",
"780 960 CURVE SMOOTH",
"780 976 OFFCURVE",
"772 993 OFFCURVE",
"756 994 CURVE",
"524 994 LINE",
"524 1107 LINE SMOOTH",
"524 1396 OFFCURVE",
"561 1449 OFFCURVE",
"614 1449 CURVE",
"762 1278 LINE",
"762 1276 OFFCURVE",
"773 1275 OFFCURVE",
"773 1275 CURVE",
"838 1274 OFFCURVE",
"891 1334 OFFCURVE",
"891 1416 CURVE SMOOTH",
"891 1494 OFFCURVE",
"825 1563 OFFCURVE",
"642 1563 CURVE SMOOTH",
"348 1563 OFFCURVE",
"208 1331 OFFCURVE",
"208 1076 CURVE SMOOTH",
"208 994 LINE",
"55 977 LINE",
"41 971 OFFCURVE",
"30 956 OFFCURVE",
"30 931 CURVE SMOOTH",
"30 915 OFFCURVE",
"38 888 OFFCURVE",
"54 887 CURVE",
"208 887 LINE",
"208 132 LINE SMOOTH",
"208 95 OFFCURVE",
"141 82 OFFCURVE",
"92 78 CURVE",
"66 75 OFFCURVE",
"59 62 OFFCURVE",
"59 41 CURVE SMOOTH {name = hr00;}"
);
}
);
width = 805;
}
);
unicode = 0066;
},
{
glyphname = g;
layers = (
{
anchors = (
{
name = btm;
position = "{625, -200}";
},
{
name = top;
position = "{554, 2000}";
}
);
layerId = "62CA62AF-CD91-478A-AB8B-28A62CC47DA0";
paths = (
{
closed = 1;
nodes = (
"58 -335 OFFCURVE",
"218 -448 OFFCURVE",
"569 -448 CURVE SMOOTH",
"961 -448 OFFCURVE",
"1144 -281 OFFCURVE",
"1146 -114 CURVE SMOOTH",
"1148 93 OFFCURVE",
"1056 158 OFFCURVE",
"806 182 CURVE SMOOTH",
"491 212 LINE SMOOTH",
"393 221 OFFCURVE",
"323 234 OFFCURVE",
"323 288 CURVE SMOOTH {name = hr02;}",
"323 324 OFFCURVE",
"344 362 OFFCURVE",
"374 387 CURVE",
"424 375 OFFCURVE",
"482 369 OFFCURVE",
"549 369 CURVE SMOOTH",
"868 369 OFFCURVE",
"985 507 OFFCURVE",
"985 694 CURVE SMOOTH",
"985 766 OFFCURVE",
"967 830 OFFCURVE",
"928 881 CURVE",
"956 894 OFFCURVE",
"988 900 OFFCURVE",
"997 896 CURVE",
"1090 802 LINE",
"1097 793 OFFCURVE",
"1124 784 OFFCURVE",
"1136 785 CURVE SMOOTH",
"1177 788 OFFCURVE",
"1221 817 OFFCURVE",
"1221 890 CURVE SMOOTH",
"1221 969 OFFCURVE",
"1156 1014 OFFCURVE",
"1095 1014 CURVE SMOOTH",
"994 1014 OFFCURVE",
"919 973 OFFCURVE",
"875 933 CURVE",
"806 984 OFFCURVE",
"700 1014 OFFCURVE",
"549 1014 CURVE SMOOTH",
"238 1014 OFFCURVE",
"106 882 OFFCURVE",
"106 694 CURVE SMOOTH {name = hr03;}",
"106 578 OFFCURVE",
"156 481 OFFCURVE",
"268 424 CURVE",
"202 393 OFFCURVE",
"112 322 OFFCURVE",
"112 223 CURVE SMOOTH {name = hr04;}",
"112 136 OFFCURVE",
"130 78 OFFCURVE",
"203 42 CURVE",
"124 8 OFFCURVE",
"58 -54 OFFCURVE",
"58 -164 CURVE SMOOTH {name = hr01;}"
);
},
{
closed = 1;
nodes = (
"438 454 OFFCURVE",
"404 565 OFFCURVE",
"404 690 CURVE SMOOTH",
"404 816 OFFCURVE",
"439 928 OFFCURVE",
"549 928 CURVE SMOOTH",
"659 928 OFFCURVE",
"705 824 OFFCURVE",
"705 698 CURVE SMOOTH",
"705 573 OFFCURVE",
"659 454 OFFCURVE",
"549 454 CURVE SMOOTH {name = hr06;}"
);
},
{
closed = 1;
nodes = (
"364 2 OFFCURVE",
"370 1 OFFCURVE",
"376 1 CURVE",
"654 -29 LINE SMOOTH",
"790 -44 OFFCURVE",
"870 -69 OFFCURVE",
"870 -139 CURVE SMOOTH",
"870 -313 OFFCURVE",
"705 -352 OFFCURVE",
"579 -352 CURVE SMOOTH",
"447 -352 OFFCURVE",
"330 -317 OFFCURVE",
"330 -155 CURVE SMOOTH",
"330 -82 OFFCURVE",
"346 -31 OFFCURVE",
"359 3 CURVE {name = hr07;}"
);
}
);
width = 1182;
}
);
unicode = 0067;
},
{
glyphname = h;
layers = (
{
anchors = (
{
name = btm;
position = "{685, -200}";
},
{
name = top;
position = "{685, 2000}";
}
);
layerId = "62CA62AF-CD91-478A-AB8B-28A62CC47DA0";
paths = (
{
closed = 1;
nodes = (
"38 26 OFFCURVE",
"49 0 OFFCURVE",
"72 0 CURVE SMOOTH",
"617 0 LINE SMOOTH",
"639 0 OFFCURVE",
"651 26 OFFCURVE",
"651 41 CURVE SMOOTH",
"651 71 OFFCURVE",
"643 75 OFFCURVE",
"615 78 CURVE SMOOTH",
"566 82 OFFCURVE",
"503 88 OFFCURVE",
"503 165 CURVE SMOOTH",
"503 727 LINE",
"550 778 OFFCURVE",
"675 852 OFFCURVE",
"783 852 CURVE SMOOTH",
"902 852 OFFCURVE",
"902 764 OFFCURVE",
"902 721 CURVE SMOOTH",
"902 132 LINE SMOOTH",
"902 100 OFFCURVE",
"838 81 OFFCURVE",
"796 78 CURVE",
"769 75 OFFCURVE",
"765 62 OFFCURVE",
"765 41 CURVE SMOOTH",
"765 26 OFFCURVE",
"776 0 OFFCURVE",
"799 0 CURVE SMOOTH",
"1346 0 LINE SMOOTH",
"1369 0 OFFCURVE",
"1380 26 OFFCURVE",
"1380 41 CURVE SMOOTH",
"1380 70 OFFCURVE",
"1369 75 OFFCURVE",
"1347 78 CURVE SMOOTH",
"1297 84 OFFCURVE",
"1210 79 OFFCURVE",
"1210 165 CURVE SMOOTH",
"1210 736 LINE SMOOTH",
"1210 968 OFFCURVE",
"1069 1014 OFFCURVE",
"919 1014 CURVE SMOOTH",
"726 1014 OFFCURVE",
"534 890 OFFCURVE",
"493 845 CURVE",
"503 992 LINE",
"503 1508 LINE",
"500 1540 OFFCURVE",
"484 1548 OFFCURVE",
"473 1548 CURVE SMOOTH",
"392 1547 OFFCURVE",
"228 1542 OFFCURVE",
"38 1534 CURVE SMOOTH",
"22 1533 OFFCURVE",
"14 1506 OFFCURVE",
"14 1490 CURVE SMOOTH",
"14 1465 OFFCURVE",
"24 1456 OFFCURVE",
"38 1450 CURVE",
"92 1436 OFFCURVE",
"187 1453 OFFCURVE",
"187 1329 CURVE SMOOTH",
"187 132 LINE SMOOTH",
"187 95 OFFCURVE",
"120 82 OFFCURVE",
"71 78 CURVE",
"45 75 OFFCURVE",
"38 62 OFFCURVE",
"38 41 CURVE SMOOTH {name = hr00;}"
);
}
);
width = 1393;
}
);
unicode = 0068;
},
{
glyphname = hbar;
layers = (
{
layerId = "62CA62AF-CD91-478A-AB8B-28A62CC47DA0";
paths = (
{
closed = 1;
nodes = (
"37 26 OFFCURVE",
"48 0 OFFCURVE",
"71 0 CURVE SMOOTH",
"616 0 LINE SMOOTH",
"638 0 OFFCURVE",
"650 26 OFFCURVE",
"650 41 CURVE SMOOTH",
"650 71 OFFCURVE",
"642 75 OFFCURVE",
"614 78 CURVE SMOOTH",
"565 82 OFFCURVE",
"502 88 OFFCURVE",
"502 165 CURVE SMOOTH",
"502 727 LINE",
"549 778 OFFCURVE",
"674 852 OFFCURVE",
"782 852 CURVE SMOOTH",
"901 852 OFFCURVE",
"901 764 OFFCURVE",
"901 721 CURVE SMOOTH",
"901 132 LINE SMOOTH",
"901 100 OFFCURVE",
"837 81 OFFCURVE",
"795 78 CURVE",
"768 75 OFFCURVE",
"764 62 OFFCURVE",
"764 41 CURVE SMOOTH",
"764 26 OFFCURVE",
"775 0 OFFCURVE",
"798 0 CURVE SMOOTH",
"1345 0 LINE SMOOTH",
"1368 0 OFFCURVE",
"1379 26 OFFCURVE",
"1379 41 CURVE SMOOTH",
"1379 70 OFFCURVE",
"1368 75 OFFCURVE",
"1346 78 CURVE SMOOTH",
"1296 84 OFFCURVE",
"1209 79 OFFCURVE",
"1209 165 CURVE SMOOTH",
"1209 736 LINE SMOOTH",
"1209 968 OFFCURVE",
"1068 1014 OFFCURVE",
"918 1014 CURVE SMOOTH",
"725 1014 OFFCURVE",
"533 890 OFFCURVE",
"492 845 CURVE",
"502 992 LINE",
"502 1191 LINE",
"815 1191 LINE",
"829 1197 OFFCURVE",
"839 1219 OFFCURVE",
"839 1244 CURVE SMOOTH",
"839 1260 OFFCURVE",
"831 1287 OFFCURVE",
"815 1288 CURVE",
"502 1288 LINE",
"502 1508 LINE",
"499 1540 OFFCURVE",
"483 1548 OFFCURVE",
"472 1548 CURVE SMOOTH",
"391 1547 OFFCURVE",
"227 1542 OFFCURVE",
"37 1534 CURVE SMOOTH",
"21 1533 OFFCURVE",
"13 1506 OFFCURVE",
"13 1490 CURVE SMOOTH",
"13 1465 OFFCURVE",
"23 1456 OFFCURVE",
"37 1450 CURVE",
"91 1436 OFFCURVE",
"186 1453 OFFCURVE",
"186 1329 CURVE SMOOTH",
"186 1288 LINE",
"46 1288 LINE",
"32 1282 OFFCURVE",
"22 1250 OFFCURVE",
"22 1225 CURVE SMOOTH",
"22 1209 OFFCURVE",
"30 1192 OFFCURVE",
"46 1191 CURVE",
"186 1191 LINE",
"186 132 LINE SMOOTH",
"186 95 OFFCURVE",
"119 82 OFFCURVE",
"70 78 CURVE",
"44 75 OFFCURVE",
"37 62 OFFCURVE",
"37 41 CURVE SMOOTH {name = hr00;}"
);
}
);
width = 1393;
}
);
unicode = 0127;
},
{
glyphname = idotless;
lastChange = "2018-05-14 03:31:36 +0000";
layers = (
{
anchors = (
{
name = btm;
position = "{356, -200}";
},
{
name = top;
position = "{351, 2000}";
}
);
layerId = "62CA62AF-CD91-478A-AB8B-28A62CC47DA0";
paths = (
{
closed = 1;
nodes = (
"68 26 OFFCURVE",
"79 0 OFFCURVE",
"102 0 CURVE SMOOTH",
"657 0 LINE SMOOTH",
"679 0 OFFCURVE",
"691 26 OFFCURVE",
"691 41 CURVE SMOOTH",
"691 71 OFFCURVE",
"683 75 OFFCURVE",
"655 78 CURVE SMOOTH",
"606 82 OFFCURVE",
"533 88 OFFCURVE",
"533 165 CURVE SMOOTH",
"533 957 LINE SMOOTH",
"533 989 OFFCURVE",
"514 997 OFFCURVE",
"503 997 CURVE SMOOTH",
"422 996 OFFCURVE",
"258 991 OFFCURVE",
"68 983 CURVE SMOOTH",
"52 982 OFFCURVE",
"44 955 OFFCURVE",
"44 939 CURVE SMOOTH",
"44 914 OFFCURVE",
"54 905 OFFCURVE",
"68 899 CURVE",
"122 885 OFFCURVE",
"217 902 OFFCURVE",
"217 778 CURVE SMOOTH",
"216 132 LINE SMOOTH",
"216 95 OFFCURVE",
"150 82 OFFCURVE",
"101 78 CURVE SMOOTH",
"75 75 OFFCURVE",
"68 62 OFFCURVE",
"68 41 CURVE SMOOTH {name = hr00;}"
);
}
);
width = 725;
}
);
unicode = 0131;
},
{
glyphname = idieresis;
lastChange = "2018-05-14 03:31:36 +0000";
layers = (
{
components = (
{
name = idotless;
}
);
layerId = "62CA62AF-CD91-478A-AB8B-28A62CC47DA0";
paths = (
{
closed = 1;
nodes = (
"673 1180 OFFCURVE",
"740 1263 OFFCURVE",
"740 1363 CURVE SMOOTH",
"740 1464 OFFCURVE",
"673 1547 OFFCURVE",
"571 1547 CURVE SMOOTH",
"468 1547 OFFCURVE",
"403 1464 OFFCURVE",
"403 1363 CURVE SMOOTH",
"403 1263 OFFCURVE",
"468 1180 OFFCURVE",
"571 1180 CURVE SMOOTH {name = hr00;}"
);
},
{
closed = 1;
nodes = (
"236 1180 OFFCURVE",
"303 1263 OFFCURVE",
"303 1363 CURVE SMOOTH",
"303 1464 OFFCURVE",
"236 1547 OFFCURVE",
"134 1547 CURVE SMOOTH",
"31 1547 OFFCURVE",
"-34 1464 OFFCURVE",
"-34 1363 CURVE SMOOTH",
"-34 1263 OFFCURVE",
"31 1180 OFFCURVE",
"134 1180 CURVE SMOOTH"
);
}
);
width = 725;
}
);
unicode = 00EF;
},
{
glyphname = iogonek;
layers = (
{
layerId = "62CA62AF-CD91-478A-AB8B-28A62CC47DA0";
paths = (
{
closed = 1;
nodes = (
"485 1180 OFFCURVE",
"560 1263 OFFCURVE",
"560 1363 CURVE SMOOTH",
"560 1464 OFFCURVE",
"485 1547 OFFCURVE",
"371 1547 CURVE SMOOTH",
"256 1547 OFFCURVE",
"183 1464 OFFCURVE",
"183 1363 CURVE SMOOTH",
"183 1263 OFFCURVE",
"256 1180 OFFCURVE",
"371 1180 CURVE SMOOTH {name = hr01;}"
);
},
{
closed = 1;
nodes = (
"68 26 OFFCURVE",
"79 0 OFFCURVE",
"102 0 CURVE SMOOTH",
"327 0 LINE",
"203 -53 OFFCURVE",
"68 -143 OFFCURVE",
"68 -273 CURVE SMOOTH {name = hr02;}",
"68 -365 OFFCURVE",
"146 -452 OFFCURVE",
"298 -452 CURVE SMOOTH",
"373 -452 OFFCURVE",
"470 -437 OFFCURVE",
"554 -394 CURVE",
"568 -383 OFFCURVE",
"541 -298 OFFCURVE",
"531 -304 CURVE",
"505 -315 OFFCURVE",
"459 -330 OFFCURVE",
"416 -330 CURVE SMOOTH",
"359 -330 OFFCURVE",
"306 -313 OFFCURVE",
"306 -228 CURVE SMOOTH",
"306 -162 OFFCURVE",
"361 -67 OFFCURVE",
"508 0 CURVE",
"657 0 LINE SMOOTH",
"679 0 OFFCURVE",
"691 26 OFFCURVE",
"691 41 CURVE SMOOTH",
"691 71 OFFCURVE",
"683 75 OFFCURVE",
"655 78 CURVE SMOOTH",
"606 82 OFFCURVE",
"533 88 OFFCURVE",
"533 165 CURVE SMOOTH {name = hr03;}",
"533 957 LINE SMOOTH",
"533 989 OFFCURVE",
"514 997 OFFCURVE",
"503 997 CURVE SMOOTH",
"422 996 OFFCURVE",
"258 991 OFFCURVE",
"68 983 CURVE SMOOTH",
"52 982 OFFCURVE",
"44 955 OFFCURVE",
"44 939 CURVE SMOOTH",
"44 914 OFFCURVE",
"54 905 OFFCURVE",
"68 899 CURVE",
"122 885 OFFCURVE",
"217 902 OFFCURVE",
"217 778 CURVE SMOOTH",
"216 132 LINE SMOOTH",
"216 95 OFFCURVE",
"150 82 OFFCURVE",
"101 78 CURVE",
"75 75 OFFCURVE",
"68 62 OFFCURVE",
"68 41 CURVE SMOOTH"
);
}
);
width = 725;
}
);
unicode = 012F;
},
{
glyphname = dotlessj;
layers = (
{
anchors = (
{
name = btm;
position = "{172, -200}";
},
{
name = top;
position = "{382, 2000}";
}
);
layerId = "62CA62AF-CD91-478A-AB8B-28A62CC47DA0";
paths = (
{
closed = 1;
nodes = (
"-96 -116 OFFCURVE",
"-155 -180 OFFCURVE",
"-155 -254 CURVE SMOOTH",
"-155 -336 OFFCURVE",
"-53 -449 OFFCURVE",
"120 -449 CURVE SMOOTH",
"506 -449 OFFCURVE",
"564 -187 OFFCURVE",
"564 88 CURVE SMOOTH",
"565 957 LINE SMOOTH",
"565 989 OFFCURVE",
"546 997 OFFCURVE",
"535 997 CURVE SMOOTH",
"454 996 OFFCURVE",
"278 991 OFFCURVE",
"90 983 CURVE SMOOTH",
"74 982 OFFCURVE",
"66 955 OFFCURVE",
"66 939 CURVE SMOOTH",
"66 914 OFFCURVE",
"76 905 OFFCURVE",
"90 899 CURVE",
"144 885 OFFCURVE",
"249 902 OFFCURVE",
"249 778 CURVE SMOOTH",
"248 -57 LINE SMOOTH",
"248 -268 OFFCURVE",
"208 -347 OFFCURVE",
"158 -347 CURVE",
"46 -158 LINE",
"36 -136 OFFCURVE",
"11 -116 OFFCURVE",
"-27 -116 CURVE SMOOTH {name = hr00;}"
);
}
);
width = 709;
}
);
unicode = 0237;
},
{
glyphname = k;
layers = (
{
anchors = (
{
name = btm;
position = "{657, -200}";
},
{
name = top;
position = "{657, 2000}";
}
);
layerId = "62CA62AF-CD91-478A-AB8B-28A62CC47DA0";
paths = (
{
closed = 1;
nodes = (
"37 26 OFFCURVE",
"48 0 OFFCURVE",
"71 0 CURVE SMOOTH",
"596 0 LINE SMOOTH",
"619 0 OFFCURVE",
"630 26 OFFCURVE",
"630 41 CURVE SMOOTH",
"630 71 OFFCURVE",
"622 75 OFFCURVE",
"594 78 CURVE SMOOTH",
"545 82 OFFCURVE",
"502 88 OFFCURVE",
"502 165 CURVE SMOOTH",
"502 374 LINE",
"590 452 LINE",
"688 355 OFFCURVE",
"831 0 OFFCURVE",
"943 0 CURVE SMOOTH",
"1269 0 LINE SMOOTH",
"1292 0 OFFCURVE",
"1303 26 OFFCURVE",
"1303 41 CURVE SMOOTH",
"1303 70 OFFCURVE",
"1292 75 OFFCURVE",
"1270 78 CURVE SMOOTH",
"1220 85 OFFCURVE",
"1177 143 OFFCURVE",
"1122 198 CURVE SMOOTH",
"999 321 OFFCURVE",
"878 550 OFFCURVE",
"783 621 CURVE",
"1029 837 LINE",
"1078 876 OFFCURVE",
"1153 906 OFFCURVE",
"1217 906 CURVE SMOOTH",
"1239 906 OFFCURVE",
"1250 925 OFFCURVE",
"1250 949 CURVE SMOOTH",
"1250 964 OFFCURVE",
"1239 994 OFFCURVE",
"1216 994 CURVE SMOOTH",
"759 994 LINE SMOOTH",
"736 994 OFFCURVE",
"725 964 OFFCURVE",
"725 949 CURVE SMOOTH",
"725 928 OFFCURVE",
"729 909 OFFCURVE",
"756 906 CURVE",
"819 902 OFFCURVE",
"921 876 OFFCURVE",
"881 842 CURVE",
"502 484 LINE",
"502 1508 LINE SMOOTH",
"502 1540 OFFCURVE",
"483 1548 OFFCURVE",
"472 1548 CURVE SMOOTH",
"390 1547 OFFCURVE",
"226 1542 OFFCURVE",
"37 1534 CURVE SMOOTH",
"21 1533 OFFCURVE",
"13 1506 OFFCURVE",
"13 1490 CURVE SMOOTH",
"13 1465 OFFCURVE",
"23 1456 OFFCURVE",
"37 1450 CURVE",
"91 1436 OFFCURVE",
"186 1453 OFFCURVE",
"186 1329 CURVE SMOOTH",
"186 132 LINE SMOOTH",
"186 95 OFFCURVE",
"119 82 OFFCURVE",
"70 78 CURVE",
"44 75 OFFCURVE",
"37 62 OFFCURVE",
"37 41 CURVE SMOOTH {name = hr00;}"
);
}
);
width = 1294;
}
);
unicode = 006B;
},
{
glyphname = kgreenlandic;
layers = (
{
layerId = "62CA62AF-CD91-478A-AB8B-28A62CC47DA0";
paths = (
{
closed = 1;
nodes = (
"77 16 OFFCURVE",
"88 0 OFFCURVE",
"111 0 CURVE SMOOTH",
"626 0 LINE SMOOTH",
"648 0 OFFCURVE",
"660 16 OFFCURVE",
"660 31 CURVE SMOOTH",
"660 61 OFFCURVE",
"652 65 OFFCURVE",
"624 68 CURVE SMOOTH",
"575 73 OFFCURVE",
"532 79 OFFCURVE",
"532 165 CURVE SMOOTH",
"532 400 LINE",
"604 463 LINE",
"671 391 OFFCURVE",
"758 262 OFFCURVE",
"829 142 CURVE SMOOTH",
"849 107 OFFCURVE",
"835 81 OFFCURVE",
"813 78 CURVE SMOOTH",
"787 75 OFFCURVE",
"782 62 OFFCURVE",
"782 41 CURVE SMOOTH",
"782 26 OFFCURVE",
"793 0 OFFCURVE",
"816 0 CURVE SMOOTH",
"1300 0 LINE SMOOTH",
"1323 0 OFFCURVE",
"1334 26 OFFCURVE",
"1334 41 CURVE SMOOTH",
"1334 70 OFFCURVE",
"1323 75 OFFCURVE",
"1301 78 CURVE SMOOTH",
"1251 85 OFFCURVE",
"1213 139 OFFCURVE",
"1158 194 CURVE SMOOTH",
"1044 308 OFFCURVE",
"895 548 OFFCURVE",
"812 641 CURVE",
"1039 837 LINE",
"1088 876 OFFCURVE",
"1163 906 OFFCURVE",
"1227 906 CURVE SMOOTH",
"1249 906 OFFCURVE",
"1260 925 OFFCURVE",
"1260 949 CURVE SMOOTH",
"1260 964 OFFCURVE",
"1249 994 OFFCURVE",
"1226 994 CURVE SMOOTH",
"769 994 LINE SMOOTH",
"746 994 OFFCURVE",
"735 964 OFFCURVE",
"735 949 CURVE SMOOTH",
"735 928 OFFCURVE",
"739 909 OFFCURVE",
"766 906 CURVE SMOOTH",
"870 896 OFFCURVE",
"899 883 OFFCURVE",
"899 857 CURVE SMOOTH",
"899 847 OFFCURVE",
"889 839 OFFCURVE",
"878 829 CURVE SMOOTH",
"532 511 LINE",
"532 947 LINE",
"529 979 OFFCURVE",
"513 987 OFFCURVE",
"502 987 CURVE SMOOTH",
"423 986 OFFCURVE",
"263 985 OFFCURVE",
"77 977 CURVE SMOOTH",
"61 976 OFFCURVE",
"53 959 OFFCURVE",
"53 943 CURVE SMOOTH",
"53 918 OFFCURVE",
"63 909 OFFCURVE",
"77 903 CURVE",
"127 889 OFFCURVE",
"216 902 OFFCURVE",
"216 778 CURVE SMOOTH",
"216 132 LINE SMOOTH",
"216 88 OFFCURVE",
"159 73 OFFCURVE",
"110 68 CURVE SMOOTH",
"84 65 OFFCURVE",
"77 52 OFFCURVE",
"77 31 CURVE SMOOTH {name = hr00;}"
);
}
);
width = 1317;
}
);
unicode = 0138;
},
{
glyphname = l;
layers = (
{
anchors = (
{
name = btm;
position = "{353, -200}";
},
{
name = top;
position = "{333, 2000}";
}
);
layerId = "62CA62AF-CD91-478A-AB8B-28A62CC47DA0";
paths = (
{
closed = 1;
nodes = (
"56 26 OFFCURVE",
"67 0 OFFCURVE",
"90 0 CURVE SMOOTH",
"635 0 LINE SMOOTH",
"658 0 OFFCURVE",
"669 26 OFFCURVE",
"669 41 CURVE SMOOTH",
"669 71 OFFCURVE",
"661 75 OFFCURVE",
"633 78 CURVE SMOOTH",
"584 82 OFFCURVE",
"511 88 OFFCURVE",
"511 165 CURVE SMOOTH",
"511 1508 LINE SMOOTH",
"511 1540 OFFCURVE",
"492 1548 OFFCURVE",
"481 1548 CURVE SMOOTH",
"398 1547 OFFCURVE",
"221 1542 OFFCURVE",
"36 1534 CURVE SMOOTH",
"21 1533 OFFCURVE",
"12 1506 OFFCURVE",
"12 1490 CURVE SMOOTH",
"12 1465 OFFCURVE",
"22 1456 OFFCURVE",
"36 1450 CURVE",
"93 1436 OFFCURVE",
"205 1453 OFFCURVE",
"205 1329 CURVE",
"205 1328 LINE",
"204 132 LINE SMOOTH",
"204 95 OFFCURVE",
"138 82 OFFCURVE",
"89 78 CURVE SMOOTH",
"63 75 OFFCURVE",
"56 62 OFFCURVE",
"56 41 CURVE SMOOTH {name = hr00;}"
);
}
);
width = 705;
}
);
unicode = 006C;
},
{
glyphname = lacute;
layers = (
{
components = (
{
name = acute.cap;
transform = "{1, 0, 0, 1, 147, 0}";
}
);
layerId = "62CA62AF-CD91-478A-AB8B-28A62CC47DA0";
paths = (
{
closed = 1;
nodes = (
"50 26 OFFCURVE",
"61 0 OFFCURVE",
"84 0 CURVE SMOOTH",
"629 0 LINE SMOOTH",
"652 0 OFFCURVE",
"663 26 OFFCURVE",
"663 41 CURVE SMOOTH",
"663 71 OFFCURVE",
"655 75 OFFCURVE",
"627 78 CURVE SMOOTH",
"578 83 OFFCURVE",
"505 89 OFFCURVE",
"505 175 CURVE SMOOTH",
"505 1378 LINE",
"502 1410 OFFCURVE",
"486 1418 OFFCURVE",
"475 1418 CURVE SMOOTH",
"392 1417 OFFCURVE",
"215 1416 OFFCURVE",
"30 1408 CURVE SMOOTH",
"15 1407 OFFCURVE",
"6 1380 OFFCURVE",
"6 1364 CURVE SMOOTH",
"6 1339 OFFCURVE",
"16 1330 OFFCURVE",
"30 1324 CURVE",
"87 1310 OFFCURVE",
"199 1323 OFFCURVE",
"199 1199 CURVE SMOOTH",
"198 142 LINE SMOOTH",
"198 98 OFFCURVE",
"132 83 OFFCURVE",
"83 78 CURVE SMOOTH",
"57 75 OFFCURVE",
"50 62 OFFCURVE",
"50 41 CURVE SMOOTH {name = hr00;}"
);
}
);
width = 705;
}
);
unicode = 013A;
},
{
glyphname = lslash;
layers = (
{
layerId = "62CA62AF-CD91-478A-AB8B-28A62CC47DA0";
paths = (
{
closed = 1;
nodes = (
"56 26 OFFCURVE",
"67 0 OFFCURVE",
"90 0 CURVE SMOOTH",
"635 0 LINE SMOOTH",
"658 0 OFFCURVE",
"669 26 OFFCURVE",
"669 41 CURVE SMOOTH",
"669 71 OFFCURVE",
"661 75 OFFCURVE",
"633 78 CURVE SMOOTH",
"584 82 OFFCURVE",
"511 88 OFFCURVE",
"511 165 CURVE SMOOTH",
"511 780 LINE",
"681 849 LINE",
"692 860 OFFCURVE",
"686 903 OFFCURVE",
"677 926 CURVE SMOOTH",
"671 941 OFFCURVE",
"657 954 OFFCURVE",
"642 949 CURVE",
"511 896 LINE",
"511 1508 LINE SMOOTH",
"511 1540 OFFCURVE",
"492 1548 OFFCURVE",
"481 1548 CURVE SMOOTH",
"398 1547 OFFCURVE",
"221 1542 OFFCURVE",
"36 1534 CURVE SMOOTH",
"21 1533 OFFCURVE",
"12 1506 OFFCURVE",
"12 1490 CURVE SMOOTH",
"12 1465 OFFCURVE",
"22 1456 OFFCURVE",
"36 1450 CURVE",
"93 1436 OFFCURVE",
"205 1453 OFFCURVE",
"205 1329 CURVE",
"205 1328 LINE",
"204 773 LINE",
"29 702 LINE",
"19 691 OFFCURVE",
"17 667 OFFCURVE",
"26 644 CURVE SMOOTH",
"32 629 OFFCURVE",
"53 597 OFFCURVE",
"68 602 CURVE",
"204 657 LINE",
"204 132 LINE SMOOTH",
"204 95 OFFCURVE",
"138 82 OFFCURVE",
"89 78 CURVE",
"63 75 OFFCURVE",
"56 62 OFFCURVE",
"56 41 CURVE SMOOTH {name = hr00;}"
);
}
);
width = 705;
}
);
unicode = 0142;
},
{
glyphname = m;
layers = (
{
anchors = (
{
name = btm;
position = "{1063, -200}";
},
{
name = top;
position = "{1063, 2000}";
}
);
layerId = "62CA62AF-CD91-478A-AB8B-28A62CC47DA0";
paths = (
{
closed = 1;
nodes = (
"71 26 OFFCURVE",
"82 0 OFFCURVE",
"105 0 CURVE SMOOTH",
"630 0 LINE SMOOTH",
"652 0 OFFCURVE",
"664 26 OFFCURVE",
"664 41 CURVE SMOOTH",
"664 71 OFFCURVE",
"656 75 OFFCURVE",
"628 78 CURVE SMOOTH",
"579 82 OFFCURVE",
"526 88 OFFCURVE",
"526 165 CURVE SMOOTH",
"526 737 LINE",
"583 788 OFFCURVE",
"649 862 OFFCURVE",
"778 862 CURVE SMOOTH",
"897 862 OFFCURVE",
"906 760 OFFCURVE",
"906 711 CURVE SMOOTH",
"906 132 LINE SMOOTH",
"906 100 OFFCURVE",
"844 81 OFFCURVE",
"802 78 CURVE",
"776 75 OFFCURVE",
"771 62 OFFCURVE",
"771 41 CURVE SMOOTH",
"771 26 OFFCURVE",
"782 0 OFFCURVE",
"805 0 CURVE SMOOTH",
"1322 0 LINE SMOOTH",
"1345 0 OFFCURVE",
"1356 26 OFFCURVE",
"1356 41 CURVE SMOOTH",
"1356 70 OFFCURVE",
"1345 75 OFFCURVE",
"1323 78 CURVE SMOOTH",
"1273 84 OFFCURVE",
"1214 79 OFFCURVE",
"1214 165 CURVE SMOOTH",
"1214 716 LINE SMOOTH",
"1214 731 OFFCURVE",
"1213 745 OFFCURVE",
"1212 759 CURVE",
"1272 808 OFFCURVE",
"1358 862 OFFCURVE",
"1462 862 CURVE SMOOTH",
"1581 862 OFFCURVE",
"1581 760 OFFCURVE",
"1581 711 CURVE SMOOTH",
"1581 132 LINE SMOOTH",
"1581 100 OFFCURVE",
"1527 81 OFFCURVE",
"1485 78 CURVE",
"1459 75 OFFCURVE",
"1454 62 OFFCURVE",
"1454 41 CURVE SMOOTH",
"1454 26 OFFCURVE",
"1465 0 OFFCURVE",
"1488 0 CURVE SMOOTH",
"2025 0 LINE SMOOTH",
"2048 0 OFFCURVE",
"2059 26 OFFCURVE",
"2059 41 CURVE SMOOTH",
"2059 70 OFFCURVE",
"2048 75 OFFCURVE",
"2026 78 CURVE SMOOTH",
"1976 84 OFFCURVE",
"1899 79 OFFCURVE",
"1899 165 CURVE SMOOTH",
"1899 716 LINE SMOOTH",
"1899 964 OFFCURVE",
"1775 1014 OFFCURVE",
"1627 1014 CURVE SMOOTH",
"1421 1014 OFFCURVE",
"1258 909 OFFCURVE",
"1193 860 CURVE",
"1149 984 OFFCURVE",
"1044 1014 OFFCURVE",
"933 1014 CURVE SMOOTH",
"735 1014 OFFCURVE",
"558 890 OFFCURVE",
"516 845 CURVE",
"516 957 LINE {name = hr02;}",
"513 989 OFFCURVE",
"497 997 OFFCURVE",
"486 997 CURVE SMOOTH",
"408 996 OFFCURVE",
"245 991 OFFCURVE",
"61 983 CURVE SMOOTH",
"45 982 OFFCURVE",
"37 955 OFFCURVE",
"37 939 CURVE SMOOTH",
"37 914 OFFCURVE",
"47 905 OFFCURVE",
"61 899 CURVE",
"111 885 OFFCURVE",
"210 902 OFFCURVE",
"210 778 CURVE SMOOTH",
"210 132 LINE SMOOTH",
"210 95 OFFCURVE",
"153 82 OFFCURVE",
"104 78 CURVE",
"78 75 OFFCURVE",
"71 62 OFFCURVE",
"71 41 CURVE SMOOTH {name = hr01;}"
);
}
);
width = 2081;
}
);
unicode = 006D;
},
{
glyphname = n;
layers = (
{
anchors = (
{
name = btm;
position = "{727, -200}";
},
{
name = top;
position = "{765, 2000}";
}
);
layerId = "62CA62AF-CD91-478A-AB8B-28A62CC47DA0";
paths = (
{
closed = 1;
nodes = (
"71 26 OFFCURVE",
"82 0 OFFCURVE",
"105 0 CURVE SMOOTH",
"630 0 LINE SMOOTH",
"652 0 OFFCURVE",
"664 26 OFFCURVE",
"664 41 CURVE SMOOTH",
"664 71 OFFCURVE",
"656 75 OFFCURVE",
"628 78 CURVE SMOOTH",
"579 83 OFFCURVE",
"526 89 OFFCURVE",
"526 175 CURVE SMOOTH",
"526 737 LINE",
"573 788 OFFCURVE",
"688 862 OFFCURVE",
"796 862 CURVE SMOOTH",
"915 862 OFFCURVE",
"915 760 OFFCURVE",
"915 711 CURVE SMOOTH",
"915 142 LINE SMOOTH",
"915 104 OFFCURVE",
"861 82 OFFCURVE",
"819 78 CURVE SMOOTH",
"792 75 OFFCURVE",
"788 62 OFFCURVE",
"788 41 CURVE SMOOTH",
"788 26 OFFCURVE",
"799 0 OFFCURVE",
"822 0 CURVE SMOOTH",
"1359 0 LINE SMOOTH",
"1382 0 OFFCURVE",
"1393 26 OFFCURVE",
"1393 41 CURVE SMOOTH",
"1393 70 OFFCURVE",
"1382 75 OFFCURVE",
"1360 78 CURVE SMOOTH",
"1310 85 OFFCURVE",
"1233 79 OFFCURVE",
"1233 175 CURVE SMOOTH",
"1233 716 LINE SMOOTH",
"1233 964 OFFCURVE",
"1081 1014 OFFCURVE",
"911 1014 CURVE SMOOTH",
"733 1014 OFFCURVE",
"554 890 OFFCURVE",
"516 845 CURVE",
"516 957 LINE {name = hr02;}",
"513 989 OFFCURVE",
"497 997 OFFCURVE",
"486 997 CURVE SMOOTH",
"408 996 OFFCURVE",
"245 991 OFFCURVE",
"61 983 CURVE SMOOTH",
"45 982 OFFCURVE",
"37 955 OFFCURVE",
"37 939 CURVE SMOOTH",
"37 914 OFFCURVE",
"47 905 OFFCURVE",
"61 899 CURVE",
"111 885 OFFCURVE",
"210 902 OFFCURVE",
"210 778 CURVE SMOOTH",
"210 142 LINE SMOOTH",
"210 98 OFFCURVE",
"153 83 OFFCURVE",
"104 78 CURVE SMOOTH",
"78 75 OFFCURVE",
"71 62 OFFCURVE",
"71 41 CURVE SMOOTH {name = hr01;}"
);
}
);
width = 1413;
}
);
unicode = 006E;
},
{
glyphname = eng;
layers = (
{
anchors = (
{
name = btm;
position = "{635, -200}";
},
{
name = top;
position = "{535, 2000}";
}
);
layerId = "62CA62AF-CD91-478A-AB8B-28A62CC47DA0";
paths = (
{
closed = 1;
nodes = (
"61 26 OFFCURVE",
"72 0 OFFCURVE",
"95 0 CURVE SMOOTH",
"640 0 LINE SMOOTH",
"662 0 OFFCURVE",
"674 26 OFFCURVE",
"674 41 CURVE SMOOTH",
"674 71 OFFCURVE",
"666 75 OFFCURVE",
"638 78 CURVE SMOOTH",
"589 83 OFFCURVE",
"526 89 OFFCURVE",
"526 175 CURVE SMOOTH",
"526 737 LINE",
"573 788 OFFCURVE",
"688 862 OFFCURVE",
"796 862 CURVE SMOOTH",
"915 862 OFFCURVE",
"915 760 OFFCURVE",
"915 711 CURVE SMOOTH",
"915 58 LINE SMOOTH",
"915 -294 OFFCURVE",
"846 -346 OFFCURVE",
"772 -346 CURVE",
"668 -161 LINE SMOOTH",
"649 -127 OFFCURVE",
"625 -115 OFFCURVE",
"587 -115 CURVE SMOOTH",
"508 -115 OFFCURVE",
"457 -169 OFFCURVE",
"457 -243 CURVE SMOOTH",
"457 -325 OFFCURVE",
"570 -448 OFFCURVE",
"743 -448 CURVE SMOOTH",
"1165 -448 OFFCURVE",
"1233 -185 OFFCURVE",
"1233 90 CURVE SMOOTH",
"1233 716 LINE SMOOTH",
"1233 964 OFFCURVE",
"1080 1014 OFFCURVE",
"910 1014 CURVE SMOOTH",
"732 1014 OFFCURVE",
"554 890 OFFCURVE",
"516 845 CURVE",
"516 957 LINE {name = hr02;}",
"513 989 OFFCURVE",
"497 997 OFFCURVE",
"486 997 CURVE SMOOTH",
"408 996 OFFCURVE",
"245 991 OFFCURVE",
"61 983 CURVE SMOOTH",
"45 982 OFFCURVE",
"37 955 OFFCURVE",
"37 939 CURVE SMOOTH",
"37 914 OFFCURVE",
"47 905 OFFCURVE",
"61 899 CURVE",
"111 885 OFFCURVE",
"210 902 OFFCURVE",
"210 778 CURVE SMOOTH",
"210 142 LINE SMOOTH",
"210 98 OFFCURVE",
"143 83 OFFCURVE",
"94 78 CURVE SMOOTH",
"68 75 OFFCURVE",
"61 62 OFFCURVE",
"61 41 CURVE SMOOTH {name = hr01;}"
);
}
);
width = 1395;
}
);
unicode = 014B;
},
{
glyphname = o;
layers = (
{
anchors = (
{
name = btm;
position = "{651, -200}";
},
{
name = top;
position = "{657, 2000}";
}
);
layerId = "62CA62AF-CD91-478A-AB8B-28A62CC47DA0";
paths = (
{
closed = 1;
nodes = (
"76 146 OFFCURVE",
"301 -29 OFFCURVE",
"650 -29 CURVE SMOOTH",
"1000 -29 OFFCURVE",
"1227 146 OFFCURVE",
"1227 492 CURVE SMOOTH",
"1227 838 OFFCURVE",
"1007 1014 OFFCURVE",
"657 1014 CURVE SMOOTH",
"309 1014 OFFCURVE",
"76 838 OFFCURVE",
"76 492 CURVE SMOOTH {name = hr00;}"
);
},
{
closed = 1;
nodes = (
"427 759 OFFCURVE",
"471 918 OFFCURVE",
"649 918 CURVE SMOOTH",
"826 918 OFFCURVE",
"875 760 OFFCURVE",
"875 492 CURVE SMOOTH",
"875 224 OFFCURVE",
"830 66 OFFCURVE",
"653 66 CURVE SMOOTH",
"475 66 OFFCURVE",
"427 224 OFFCURVE",
"427 492 CURVE SMOOTH"
);
}
);
width = 1303;
}
);
unicode = 006F;
},
{
glyphname = oslash;
layers = (
{
layerId = "62CA62AF-CD91-478A-AB8B-28A62CC47DA0";
paths = (
{
closed = 1;
nodes = (
"239 -137 OFFCURVE",
"252 -157 OFFCURVE",
"274 -170 CURVE SMOOTH",
"287 -178 OFFCURVE",
"314 -185 OFFCURVE",
"323 -172 CURVE",
"425 0 LINE {name = hr02;}",
"492 -19 OFFCURVE",
"567 -29 OFFCURVE",
"650 -29 CURVE SMOOTH {name = hr03;}",
"1000 -29 OFFCURVE",
"1227 146 OFFCURVE",
"1227 492 CURVE SMOOTH",
"1227 711 OFFCURVE",
"1138 862 OFFCURVE",
"984 943 CURVE",
"1079 1104 LINE",
"1081 1119 OFFCURVE",
"1059 1144 OFFCURVE",
"1038 1157 CURVE SMOOTH",
"1024 1165 OFFCURVE",
"1006 1167 OFFCURVE",
"996 1154 CURVE",
"893 981 LINE",
"823 1003 OFFCURVE",
"744 1014 OFFCURVE",
"657 1014 CURVE SMOOTH",
"309 1014 OFFCURVE",
"76 838 OFFCURVE",
"76 492 CURVE SMOOTH",
"76 267 OFFCURVE",
"171 114 OFFCURVE",
"334 35 CURVE",
"241 -122 LINE {name = hr01;}"
);
},
{
closed = 1;
nodes = (
"434 303 OFFCURVE",
"427 389 OFFCURVE",
"427 492 CURVE SMOOTH",
"427 759 OFFCURVE",
"471 918 OFFCURVE",
"649 918 CURVE SMOOTH",
"723 918 OFFCURVE",
"774 890 OFFCURVE",
"809 839 CURVE",
"452 235 LINE"
);
},
{
closed = 1;
nodes = (
"855 726 LINE",
"869 662 OFFCURVE",
"875 583 OFFCURVE",
"875 492 CURVE SMOOTH",
"875 224 OFFCURVE",
"830 66 OFFCURVE",
"653 66 CURVE SMOOTH",
"585 66 OFFCURVE",
"537 88 OFFCURVE",
"502 131 CURVE"
);
}
);
width = 1303;
}
);
unicode = 00F8;
},
{
glyphname = oe;
layers = (
{
anchors = (
{
name = top;
position = "{843, 2000}";
}
);
layerId = "62CA62AF-CD91-478A-AB8B-28A62CC47DA0";
paths = (
{
closed = 1;
nodes = (
"72 146 OFFCURVE",
"289 -29 OFFCURVE",
"626 -29 CURVE SMOOTH",
"784 -29 OFFCURVE",
"910 15 OFFCURVE",
"1001 89 CURVE",
"1087 12 OFFCURVE",
"1213 -29 OFFCURVE",
"1385 -29 CURVE SMOOTH",
"1601 -29 OFFCURVE",
"1742 52 OFFCURVE",
"1809 173 CURVE SMOOTH",
"1817 188 OFFCURVE",
"1818 196 OFFCURVE",
"1805 202 CURVE SMOOTH",
"1761 223 LINE",
"1748 226 OFFCURVE",
"1741 215 OFFCURVE",
"1735 208 CURVE SMOOTH",
"1671 131 OFFCURVE",
"1586 105 OFFCURVE",
"1461 105 CURVE SMOOTH {name = hr02;}",
"1335 105 OFFCURVE",
"1182 200 OFFCURVE",
"1182 508 CURVE {name = hr03;}",
"1182 509 LINE",
"1856 509 LINE",
"1856 564 OFFCURVE",
"1856 626 OFFCURVE",
"1847 674 CURVE SMOOTH",
"1810 885 OFFCURVE",
"1685 1014 OFFCURVE",
"1369 1014 CURVE SMOOTH",
"1234 1014 OFFCURVE",
"1111 973 OFFCURVE",
"1018 894 CURVE",
"927 971 OFFCURVE",
"799 1014 OFFCURVE",
"633 1014 CURVE SMOOTH",
"297 1014 OFFCURVE",
"72 838 OFFCURVE",
"72 492 CURVE SMOOTH {name = hr01;}"
);
},
{
closed = 1;
nodes = (
"1201 838 OFFCURVE",
"1280 929 OFFCURVE",
"1366 929 CURVE SMOOTH {name = hr05;}",
"1475 929 OFFCURVE",
"1523 833 OFFCURVE",
"1523 601 CURVE",
"1185 601 LINE"
);
},
{
closed = 1;
nodes = (
"467 66 OFFCURVE",
"423 224 OFFCURVE",
"423 492 CURVE SMOOTH",
"423 759 OFFCURVE",
"463 918 OFFCURVE",
"625 918 CURVE SMOOTH",
"794 918 OFFCURVE",
"840 760 OFFCURVE",
"840 492 CURVE SMOOTH",
"840 224 OFFCURVE",
"798 66 OFFCURVE",
"629 66 CURVE SMOOTH {name = hr06;}"
);
}
);
width = 1921;
}
);
unicode = 0153;
},
{
glyphname = p;
layers = (
{
anchors = (
{
name = btm;
position = "{627, -200}";
},
{
name = top;
position = "{696, 2000}";
}
);
layerId = "62CA62AF-CD91-478A-AB8B-28A62CC47DA0";
paths = (
{
closed = 1;
nodes = (
"186 -355 OFFCURVE",
"113 -361 OFFCURVE",
"64 -366 CURVE SMOOTH",
"36 -369 OFFCURVE",
"28 -373 OFFCURVE",
"28 -403 CURVE SMOOTH",
"28 -418 OFFCURVE",
"40 -444 OFFCURVE",
"62 -444 CURVE SMOOTH",
"677 -444 LINE SMOOTH",
"700 -444 OFFCURVE",
"711 -418 OFFCURVE",
"711 -403 CURVE SMOOTH",
"711 -382 OFFCURVE",
"704 -369 OFFCURVE",
"678 -366 CURVE",
"599 -361 OFFCURVE",
"502 -346 OFFCURVE",
"502 -302 CURVE SMOOTH",
"502 -87 LINE",
"492 9 LINE",
"580 -21 OFFCURVE",
"672 -29 OFFCURVE",
"758 -29 CURVE SMOOTH",
"1102 -29 OFFCURVE",
"1268 224 OFFCURVE",
"1268 493 CURVE SMOOTH",
"1268 763 OFFCURVE",
"1149 1014 OFFCURVE",
"820 1014 CURVE SMOOTH",
"704 1014 OFFCURVE",
"560 969 OFFCURVE",
"492 876 CURVE",
"492 957 LINE {name = hr02;}",
"489 989 OFFCURVE",
"473 997 OFFCURVE",
"462 997 CURVE SMOOTH",
"384 996 OFFCURVE",
"221 991 OFFCURVE",
"37 983 CURVE SMOOTH",
"21 982 OFFCURVE",
"13 955 OFFCURVE",
"13 939 CURVE SMOOTH",
"13 914 OFFCURVE",
"23 905 OFFCURVE",
"37 899 CURVE",
"87 885 OFFCURVE",
"186 902 OFFCURVE",
"186 778 CURVE SMOOTH",
"186 -269 LINE SMOOTH {name = hr01;}"
);
},
{
closed = 1;
nodes = (
"502 776 LINE {name = hr03;}",
"536 838 OFFCURVE",
"616 869 OFFCURVE",
"677 869 CURVE SMOOTH",
"867 869 OFFCURVE",
"931 712 OFFCURVE",
"931 493 CURVE SMOOTH",
"931 245 OFFCURVE",
"867 76 OFFCURVE",
"661 76 CURVE SMOOTH",
"598 76 OFFCURVE",
"519 125 OFFCURVE",
"502 164 CURVE"
);
}
);
width = 1348;
}
);
unicode = 0070;
},
{
glyphname = thorn;
layers = (
{
anchors = (
{
name = top;
position = "{596, 2000}";
}
);
layerId = "62CA62AF-CD91-478A-AB8B-28A62CC47DA0";
paths = (
{
closed = 1;
nodes = (
"163 -355 OFFCURVE",
"90 -361 OFFCURVE",
"41 -366 CURVE SMOOTH",
"13 -369 OFFCURVE",
"5 -373 OFFCURVE",
"5 -403 CURVE SMOOTH",
"5 -418 OFFCURVE",
"17 -444 OFFCURVE",
"39 -444 CURVE SMOOTH",
"624 -444 LINE SMOOTH",
"647 -444 OFFCURVE",
"658 -418 OFFCURVE",
"658 -403 CURVE SMOOTH",
"658 -382 OFFCURVE",
"651 -369 OFFCURVE",
"625 -366 CURVE",
"546 -361 OFFCURVE",
"479 -346 OFFCURVE",
"479 -302 CURVE SMOOTH",
"479 -127 LINE",
"464 -5 LINE {name = hr02;}",
"559 -25 OFFCURVE",
"659 -29 OFFCURVE",
"735 -29 CURVE SMOOTH {name = hr03;}",
"1079 -29 OFFCURVE",
"1245 224 OFFCURVE",
"1245 493 CURVE SMOOTH",
"1245 763 OFFCURVE",
"1126 1014 OFFCURVE",
"797 1014 CURVE SMOOTH",
"681 1014 OFFCURVE",
"537 970 OFFCURVE",
"469 877 CURVE",
"479 1015 LINE",
"479 1500 LINE",
"481 1503 OFFCURVE",
"481 1506 OFFCURVE",
"479 1508 CURVE",
"476 1540 OFFCURVE",
"460 1548 OFFCURVE",
"449 1548 CURVE SMOOTH",
"370 1547 OFFCURVE",
"198 1546 OFFCURVE",
"14 1538 CURVE SMOOTH",
"-2 1537 OFFCURVE",
"-10 1510 OFFCURVE",
"-10 1494 CURVE SMOOTH",
"-10 1469 OFFCURVE",
"0 1460 OFFCURVE",
"14 1454 CURVE",
"65 1440 OFFCURVE",
"163 1453 OFFCURVE",
"163 1329 CURVE SMOOTH",
"163 -269 LINE SMOOTH {name = hr01;}"
);
},
{
closed = 1;
nodes = (
"479 776 LINE",
"513 838 OFFCURVE",
"593 869 OFFCURVE",
"654 869 CURVE SMOOTH",
"844 869 OFFCURVE",
"908 722 OFFCURVE",
"908 493 CURVE SMOOTH",
"908 235 OFFCURVE",
"844 76 OFFCURVE",
"638 76 CURVE SMOOTH",
"575 76 OFFCURVE",
"496 135 OFFCURVE",
"479 164 CURVE"
);
}
);
width = 1321;
}
);
unicode = 00FE;
},
{
glyphname = q;
layers = (
{
anchors = (
{
name = btm;
position = "{682, -200}";
},
{
name = top;
position = "{699, 2000}";
}
);
layerId = "62CA62AF-CD91-478A-AB8B-28A62CC47DA0";
paths = (
{
closed = 1;
nodes = (
"87 222 OFFCURVE",
"216 -29 OFFCURVE",
"545 -29 CURVE SMOOTH",
"660 -29 OFFCURVE",
"795 15 OFFCURVE",
"862 108 CURVE",
"853 0 LINE",
"853 -302 LINE SMOOTH",
"853 -346 OFFCURVE",
"741 -361 OFFCURVE",
"667 -366 CURVE",
"641 -369 OFFCURVE",
"634 -382 OFFCURVE",
"634 -403 CURVE SMOOTH",
"634 -418 OFFCURVE",
"645 -444 OFFCURVE",
"668 -444 CURVE SMOOTH",
"1293 -444 LINE SMOOTH",
"1316 -444 OFFCURVE",
"1327 -418 OFFCURVE",
"1327 -403 CURVE SMOOTH",
"1327 -373 OFFCURVE",
"1319 -369 OFFCURVE",
"1291 -366 CURVE SMOOTH",
"1238 -361 OFFCURVE",
"1169 -355 OFFCURVE",
"1169 -269 CURVE SMOOTH",
"1169 998 LINE SMOOTH",
"1169 1018 OFFCURVE",
"1149 1028 OFFCURVE",
"1131 1028 CURVE SMOOTH",
"1107 1028 OFFCURVE",
"1092 1020 OFFCURVE",
"1078 1008 CURVE SMOOTH",
"1054 987 OFFCURVE",
"996 928 OFFCURVE",
"931 914 CURVE",
"873 962 OFFCURVE",
"782 1014 OFFCURVE",
"597 1014 CURVE SMOOTH",
"253 1014 OFFCURVE",
"87 761 OFFCURVE",
"87 492 CURVE SMOOTH {name = hr00;}"
);
},
{
closed = 1;
nodes = (
"424 740 OFFCURVE",
"488 909 OFFCURVE",
"694 909 CURVE SMOOTH",
"757 909 OFFCURVE",
"836 850 OFFCURVE",
"853 801 CURVE",
"853 209 LINE",
"818 147 OFFCURVE",
"739 116 OFFCURVE",
"678 116 CURVE SMOOTH",
"488 116 OFFCURVE",
"424 273 OFFCURVE",
"424 492 CURVE SMOOTH"
);
}
);
width = 1327;
}
);
unicode = 0071;
},
{
glyphname = r;
layers = (
{
anchors = (
{
name = btm;
position = "{357, -200}";
},
{
name = top;
position = "{544, 2000}";
}
);
layerId = "62CA62AF-CD91-478A-AB8B-28A62CC47DA0";
paths = (
{
closed = 1;
nodes = (
"59 26 OFFCURVE",
"70 0 OFFCURVE",
"93 0 CURVE SMOOTH",
"717 0 LINE SMOOTH",
"740 0 OFFCURVE",
"751 26 OFFCURVE",
"751 41 CURVE SMOOTH",
"751 71 OFFCURVE",
"743 75 OFFCURVE",
"715 78 CURVE",
"636 82 OFFCURVE",
"524 88 OFFCURVE",
"524 165 CURVE SMOOTH",
"524 641 LINE",
"567 747 OFFCURVE",
"657 819 OFFCURVE",
"752 833 CURVE",
"774 796 OFFCURVE",
"871 685 OFFCURVE",
"893 660 CURVE",
"898 660 OFFCURVE",
"915 649 OFFCURVE",
"931 649 CURVE SMOOTH",
"992 649 OFFCURVE",
"1055 718 OFFCURVE",
"1055 816 CURVE SMOOTH",
"1055 907 OFFCURVE",
"1003 1014 OFFCURVE",
"839 1014 CURVE SMOOTH",
"676 1014 OFFCURVE",
"554 855 OFFCURVE",
"512 783 CURVE",
"512 957 LINE {name = hr02;}",
"509 989 OFFCURVE",
"493 997 OFFCURVE",
"482 997 CURVE SMOOTH",
"401 996 OFFCURVE",
"249 995 OFFCURVE",
"59 987 CURVE SMOOTH",
"44 986 OFFCURVE",
"35 959 OFFCURVE",
"35 943 CURVE SMOOTH",
"35 918 OFFCURVE",
"45 909 OFFCURVE",
"59 903 CURVE",
"113 889 OFFCURVE",
"208 902 OFFCURVE",
"208 778 CURVE SMOOTH",
"208 132 LINE SMOOTH",
"208 95 OFFCURVE",
"146 82 OFFCURVE",
"92 78 CURVE",
"66 75 OFFCURVE",
"59 62 OFFCURVE",
"59 41 CURVE SMOOTH {name = hr01;}"
);
}
);
width = 1065;
}
);
unicode = 0072;
},
{
glyphname = s;
layers = (
{
anchors = (
{
name = btm;
position = "{526, -200}";
},
{
name = top;
position = "{529, 2000}";
}
);
layerId = "62CA62AF-CD91-478A-AB8B-28A62CC47DA0";
paths = (
{
closed = 1;
nodes = (
"119 -8 OFFCURVE",
"194 -21 OFFCURVE",
"220 18 CURVE SMOOTH",
"229 32 OFFCURVE",
"258 48 OFFCURVE",
"292 30 CURVE SMOOTH {name = hr02;}",
"328 11 OFFCURVE",
"433 -30 OFFCURVE",
"542 -30 CURVE SMOOTH",
"843 -30 OFFCURVE",
"1012 65 OFFCURVE",
"1012 261 CURVE SMOOTH",
"1012 436 OFFCURVE",
"817 545 OFFCURVE",
"639 618 CURVE SMOOTH",
"504 674 OFFCURVE",
"398 726 OFFCURVE",
"402 821 CURVE SMOOTH",
"406 903 OFFCURVE",
"469 928 OFFCURVE",
"563 928 CURVE SMOOTH",
"748 928 OFFCURVE",
"810 798 OFFCURVE",
"838 713 CURVE SMOOTH",
"848 684 OFFCURVE",
"943 679 OFFCURVE",
"934 748 CURVE SMOOTH",
"924 830 OFFCURVE",
"932 974 OFFCURVE",
"932 994 CURVE SMOOTH",
"932 1033 OFFCURVE",
"846 1041 OFFCURVE",
"828 1008 CURVE SMOOTH",
"818 991 OFFCURVE",
"823 969 OFFCURVE",
"776 977 CURVE SMOOTH",
"746 982 OFFCURVE",
"688 1014 OFFCURVE",
"559 1014 CURVE SMOOTH",
"311 1014 OFFCURVE",
"121 896 OFFCURVE",
"121 721 CURVE SMOOTH",
"121 528 OFFCURVE",
"269 447 OFFCURVE",
"425 383 CURVE SMOOTH",
"581 325 OFFCURVE",
"724 289 OFFCURVE",
"724 189 CURVE SMOOTH",
"724 91 OFFCURVE",
"629 55 OFFCURVE",
"539 55 CURVE SMOOTH",
"457 55 OFFCURVE",
"335 93 OFFCURVE",
"279 188 CURVE SMOOTH",
"224 282 OFFCURVE",
"214 318 OFFCURVE",
"206 347 CURVE SMOOTH",
"198 377 OFFCURVE",
"110 383 OFFCURVE",
"110 326 CURVE SMOOTH",
"110 269 OFFCURVE",
"119 56 OFFCURVE",
"119 24 CURVE SMOOTH {name = hr01;}"
);
}
);
width = 1051;
}
);
unicode = 0073;
},
{
glyphname = germandbls;
layers = (
{
anchors = (
{
name = top;
position = "{554, 2000}";
}
);
layerId = "62CA62AF-CD91-478A-AB8B-28A62CC47DA0";
paths = (
{
closed = 1;
nodes = (
"461 0 LINE",
"461 1093 LINE SMOOTH",
"461 1453 OFFCURVE",
"605 1467 OFFCURVE",
"691 1467 CURVE SMOOTH",
"791 1467 OFFCURVE",
"844 1386 OFFCURVE",
"844 1270 CURVE SMOOTH",
"844 1046 OFFCURVE",
"668 1047 OFFCURVE",
"668 880 CURVE SMOOTH {name = hr02;}",
"668 626 OFFCURVE",
"985 569 OFFCURVE",
"985 287 CURVE SMOOTH",
"985 166 OFFCURVE",
"934 70 OFFCURVE",
"851 70 CURVE SMOOTH",
"821 70 OFFCURVE",
"795 86 OFFCURVE",
"795 86 CURVE",
"731 268 LINE",
"725 290 OFFCURVE",
"699 299 OFFCURVE",
"667 299 CURVE SMOOTH",
"626 299 OFFCURVE",
"556 260 OFFCURVE",
"556 180 CURVE SMOOTH",
"556 55 OFFCURVE",
"648 -19 OFFCURVE",
"860 -19 CURVE SMOOTH",
"1027 -19 OFFCURVE",
"1290 60 OFFCURVE",
"1290 337 CURVE SMOOTH",
"1290 715 OFFCURVE",
"844 815 OFFCURVE",
"844 926 CURVE SMOOTH",
"844 1091 OFFCURVE",
"1159 1078 OFFCURVE",
"1159 1330 CURVE SMOOTH",
"1159 1494 OFFCURVE",
"953 1559 OFFCURVE",
"720 1559 CURVE SMOOTH {name = hr03;}",
"353 1559 OFFCURVE",
"150 1326 OFFCURVE",
"150 1031 CURVE SMOOTH",
"150 152 LINE SMOOTH",
"150 108 OFFCURVE",
"98 93 OFFCURVE",
"49 88 CURVE SMOOTH",
"23 85 OFFCURVE",
"16 72 OFFCURVE",
"16 51 CURVE SMOOTH",
"16 36 OFFCURVE",
"27 0 OFFCURVE",
"50 0 CURVE SMOOTH {name = hr01;}"
);
}
);
width = 1348;
}
);
unicode = 00DF;
},
{
glyphname = t;
layers = (
{
anchors = (
{
name = btm;
position = "{425, -200}";
},
{
name = top;
position = "{382, 2169}";
}
);
layerId = "62CA62AF-CD91-478A-AB8B-28A62CC47DA0";
paths = (
{
closed = 1;
nodes = (
"189 20 OFFCURVE",
"335 -30 OFFCURVE",
"504 -30 CURVE SMOOTH",
"595 -30 OFFCURVE",
"747 28 OFFCURVE",
"798 84 CURVE",
"811 93 OFFCURVE",
"776 156 OFFCURVE",
"764 150 CURVE SMOOTH",
"717 125 OFFCURVE",
"649 105 OFFCURVE",
"603 105 CURVE SMOOTH",
"528 105 OFFCURVE",
"505 142 OFFCURVE",
"505 312 CURVE SMOOTH",
"505 887 LINE",
"731 887 LINE",
"745 893 OFFCURVE",
"755 935 OFFCURVE",
"755 960 CURVE SMOOTH",
"755 976 OFFCURVE",
"747 993 OFFCURVE",
"731 994 CURVE",
"505 994 LINE",
"505 1277 LINE SMOOTH",
"505 1299 OFFCURVE",
"463 1307 OFFCURVE",
"426 1307 CURVE SMOOTH",
"396 1307 OFFCURVE",
"364 1299 OFFCURVE",
"357 1268 CURVE SMOOTH",
"326 1129 OFFCURVE",
"254 1022 OFFCURVE",
"208 1012 CURVE",
"83 975 LINE",
"69 969 OFFCURVE",
"58 954 OFFCURVE",
"58 929 CURVE SMOOTH",
"58 913 OFFCURVE",
"67 886 OFFCURVE",
"82 885 CURVE",
"189 885 LINE",
"189 223 LINE SMOOTH {name = hr00;}"
);
}
);
width = 813;
}
);
unicode = 0074;
},
{
glyphname = tbar;
layers = (
{
layerId = "62CA62AF-CD91-478A-AB8B-28A62CC47DA0";
paths = (
{
closed = 1;
nodes = (
"189 20 OFFCURVE",
"335 -30 OFFCURVE",
"504 -30 CURVE SMOOTH",
"595 -30 OFFCURVE",
"747 28 OFFCURVE",
"798 84 CURVE",
"811 93 OFFCURVE",
"776 156 OFFCURVE",
"764 150 CURVE SMOOTH",
"717 125 OFFCURVE",
"649 105 OFFCURVE",
"603 105 CURVE SMOOTH",
"528 105 OFFCURVE",
"505 142 OFFCURVE",
"505 312 CURVE SMOOTH",
"505 460 LINE",
"768 460 LINE",
"782 466 OFFCURVE",
"792 508 OFFCURVE",
"792 533 CURVE SMOOTH",
"792 549 OFFCURVE",
"784 566 OFFCURVE",
"768 567 CURVE",
"505 567 LINE",
"505 887 LINE",
"731 887 LINE",
"745 893 OFFCURVE",
"755 935 OFFCURVE",
"755 960 CURVE SMOOTH",
"755 976 OFFCURVE",
"747 993 OFFCURVE",
"731 994 CURVE",
"505 994 LINE",
"505 1277 LINE SMOOTH",
"505 1299 OFFCURVE",
"463 1307 OFFCURVE",
"426 1307 CURVE SMOOTH",
"396 1307 OFFCURVE",
"364 1299 OFFCURVE",
"357 1268 CURVE SMOOTH",
"326 1129 OFFCURVE",
"254 1022 OFFCURVE",
"208 1012 CURVE",
"83 975 LINE",
"69 969 OFFCURVE",
"58 954 OFFCURVE",
"58 929 CURVE SMOOTH",
"58 913 OFFCURVE",
"67 886 OFFCURVE",
"82 885 CURVE",
"189 885 LINE",
"189 567 LINE",
"69 567 LINE",
"55 561 OFFCURVE",
"45 539 OFFCURVE",
"45 514 CURVE SMOOTH",
"45 498 OFFCURVE",
"53 461 OFFCURVE",
"69 460 CURVE",
"189 460 LINE",
"189 223 LINE SMOOTH {name = hr00;}"
);
}
);
width = 813;
}
);
unicode = 0167;
},
{
glyphname = u;
layers = (
{
anchors = (
{
name = btm;
position = "{654, -200}";
},
{
name = top;
position = "{680, 2000}";
}
);
layerId = "62CA62AF-CD91-478A-AB8B-28A62CC47DA0";
paths = (
{
closed = 1;
nodes = (
"185 22 OFFCURVE",
"330 -27 OFFCURVE",
"521 -27 CURVE SMOOTH",
"667 -27 OFFCURVE",
"820 56 OFFCURVE",
"884 147 CURVE",
"883 92 OFFCURVE",
"893 -25 OFFCURVE",
"1026 -25 CURVE SMOOTH",
"1194 -25 OFFCURVE",
"1283 17 OFFCURVE",
"1313 37 CURVE SMOOTH",
"1327 46 OFFCURVE",
"1308 140 OFFCURVE",
"1279 126 CURVE SMOOTH",
"1265 119 OFFCURVE",
"1246 118 OFFCURVE",
"1227 118 CURVE SMOOTH",
"1205 118 OFFCURVE",
"1183 128 OFFCURVE",
"1183 222 CURVE SMOOTH",
"1183 958 LINE SMOOTH",
"1183 979 OFFCURVE",
"1173 994 OFFCURVE",
"1146 994 CURVE SMOOTH",
"723 994 LINE SMOOTH",
"700 994 OFFCURVE",
"689 968 OFFCURVE",
"689 953 CURVE SMOOTH",
"689 923 OFFCURVE",
"697 919 OFFCURVE",
"725 916 CURVE",
"789 911 OFFCURVE",
"867 905 OFFCURVE",
"867 819 CURVE SMOOTH",
"867 238 LINE",
"802 168 OFFCURVE",
"727 127 OFFCURVE",
"612 127 CURVE SMOOTH",
"530 127 OFFCURVE",
"503 223 OFFCURVE",
"503 361 CURVE SMOOTH",
"503 958 LINE SMOOTH",
"503 979 OFFCURVE",
"494 994 OFFCURVE",
"466 994 CURVE SMOOTH",
"73 994 LINE SMOOTH",
"51 994 OFFCURVE",
"39 968 OFFCURVE",
"39 953 CURVE SMOOTH",
"39 923 OFFCURVE",
"47 919 OFFCURVE",
"75 916 CURVE SMOOTH",
"124 911 OFFCURVE",
"185 905 OFFCURVE",
"185 819 CURVE SMOOTH",
"185 270 LINE SMOOTH {name = hr00;}"
);
}
);
width = 1386;
}
);
unicode = 0075;
},
{
glyphname = uogonek;
layers = (
{
layerId = "62CA62AF-CD91-478A-AB8B-28A62CC47DA0";
paths = (
{
closed = 1;
nodes = (
"185 22 OFFCURVE",
"330 -27 OFFCURVE",
"521 -27 CURVE SMOOTH",
"667 -27 OFFCURVE",
"820 56 OFFCURVE",
"884 147 CURVE",
"883 96 OFFCURVE",
"891 -6 OFFCURVE",
"996 -22 CURVE {name = hr02;}",
"887 -77 OFFCURVE",
"785 -160 OFFCURVE",
"785 -273 CURVE SMOOTH {name = hr03;}",
"785 -365 OFFCURVE",
"863 -452 OFFCURVE",
"1015 -452 CURVE SMOOTH",
"1090 -452 OFFCURVE",
"1187 -437 OFFCURVE",
"1271 -394 CURVE",
"1285 -383 OFFCURVE",
"1258 -298 OFFCURVE",
"1248 -304 CURVE",
"1222 -315 OFFCURVE",
"1176 -330 OFFCURVE",
"1133 -330 CURVE SMOOTH",
"1076 -330 OFFCURVE",
"1023 -313 OFFCURVE",
"1023 -228 CURVE SMOOTH",
"1023 -162 OFFCURVE",
"1078 -68 OFFCURVE",
"1223 -1 CURVE",
"1269 12 OFFCURVE",
"1298 27 OFFCURVE",
"1313 37 CURVE SMOOTH",
"1327 46 OFFCURVE",
"1308 140 OFFCURVE",
"1279 126 CURVE SMOOTH {name = hr04;}",
"1265 119 OFFCURVE",
"1246 118 OFFCURVE",
"1227 118 CURVE SMOOTH",
"1205 118 OFFCURVE",
"1183 128 OFFCURVE",
"1183 222 CURVE SMOOTH",
"1183 958 LINE SMOOTH",
"1183 979 OFFCURVE",
"1173 994 OFFCURVE",
"1146 994 CURVE SMOOTH",
"723 994 LINE SMOOTH",
"700 994 OFFCURVE",
"689 968 OFFCURVE",
"689 953 CURVE SMOOTH",
"689 923 OFFCURVE",
"697 919 OFFCURVE",
"725 916 CURVE",
"789 911 OFFCURVE",
"867 905 OFFCURVE",
"867 819 CURVE SMOOTH",
"867 238 LINE",
"802 168 OFFCURVE",
"727 127 OFFCURVE",
"612 127 CURVE SMOOTH",
"530 127 OFFCURVE",
"503 223 OFFCURVE",
"503 361 CURVE SMOOTH",
"503 958 LINE SMOOTH",
"503 979 OFFCURVE",
"494 994 OFFCURVE",
"466 994 CURVE SMOOTH",
"73 994 LINE SMOOTH",
"51 994 OFFCURVE",
"39 968 OFFCURVE",
"39 953 CURVE SMOOTH",
"39 923 OFFCURVE",
"47 919 OFFCURVE",
"75 916 CURVE SMOOTH",
"124 911 OFFCURVE",
"185 905 OFFCURVE",
"185 819 CURVE SMOOTH",
"185 270 LINE SMOOTH {name = hr01;}"
);
}
);
width = 1386;
}
);
unicode = 0173;
},
{
glyphname = v;
layers = (
{
anchors = (
{
name = btm;
position = "{610, -200}";
},
{
name = top;
position = "{605, 2000}";
}
);
layerId = "62CA62AF-CD91-478A-AB8B-28A62CC47DA0";
paths = (
{
closed = 1;
nodes = (
"686 -9 LINE",
"1065 829 LINE SMOOTH",
"1097 899 OFFCURVE",
"1138 911 OFFCURVE",
"1187 916 CURVE SMOOTH",
"1215 919 OFFCURVE",
"1223 923 OFFCURVE",
"1223 953 CURVE SMOOTH",
"1223 968 OFFCURVE",
"1211 994 OFFCURVE",
"1189 994 CURVE SMOOTH",
"824 994 LINE SMOOTH",
"801 994 OFFCURVE",
"790 968 OFFCURVE",
"790 953 CURVE SMOOTH",
"790 932 OFFCURVE",
"797 919 OFFCURVE",
"823 916 CURVE SMOOTH",
"872 911 OFFCURVE",
"963 903 OFFCURVE",
"946 862 CURVE SMOOTH",
"695 256 LINE",
"437 862 LINE SMOOTH",
"420 902 OFFCURVE",
"475 908 OFFCURVE",
"553 916 CURVE SMOOTH",
"579 919 OFFCURVE",
"586 932 OFFCURVE",
"586 953 CURVE SMOOTH",
"586 968 OFFCURVE",
"575 994 OFFCURVE",
"552 994 CURVE SMOOTH",
"-17 994 LINE SMOOTH",
"-39 994 OFFCURVE",
"-51 968 OFFCURVE",
"-51 953 CURVE SMOOTH",
"-51 923 OFFCURVE",
"-43 919 OFFCURVE",
"-15 916 CURVE SMOOTH",
"34 911 OFFCURVE",
"63 898 OFFCURVE",
"97 829 CURVE SMOOTH",
"504 -9 LINE {name = hr00;}"
);
}
);
width = 1161;
}
);
unicode = 0076;
},
{
glyphname = w;
layers = (
{
anchors = (
{
name = btm;
position = "{896, -200}";
},
{
name = top;
position = "{953, 2000}";
}
);
layerId = "62CA62AF-CD91-478A-AB8B-28A62CC47DA0";
paths = (
{
closed = 1;
nodes = (
"653 -9 LINE",
"884 641 LINE",
"1134 -9 LINE",
"1318 -9 LINE",
"1645 829 LINE SMOOTH",
"1673 901 OFFCURVE",
"1708 911 OFFCURVE",
"1757 916 CURVE SMOOTH",
"1785 919 OFFCURVE",
"1793 923 OFFCURVE",
"1793 953 CURVE SMOOTH",
"1793 968 OFFCURVE",
"1781 994 OFFCURVE",
"1759 994 CURVE SMOOTH",
"1394 994 LINE SMOOTH",
"1371 994 OFFCURVE",
"1360 968 OFFCURVE",
"1360 953 CURVE SMOOTH",
"1360 932 OFFCURVE",
"1367 917 OFFCURVE",
"1393 916 CURVE SMOOTH",
"1480 912 OFFCURVE",
"1544 903 OFFCURVE",
"1529 862 CURVE SMOOTH",
"1332 322 LINE",
"1101 966 LINE",
"865 966 LINE",
"655 306 LINE",
"457 862 LINE SMOOTH",
"442 903 OFFCURVE",
"489 912 OFFCURVE",
"563 916 CURVE SMOOTH",
"589 917 OFFCURVE",
"596 932 OFFCURVE",
"596 953 CURVE SMOOTH",
"596 968 OFFCURVE",
"585 994 OFFCURVE",
"562 994 CURVE SMOOTH",
"7 994 LINE SMOOTH",
"-15 994 OFFCURVE",
"-27 968 OFFCURVE",
"-27 953 CURVE SMOOTH",
"-27 923 OFFCURVE",
"-19 919 OFFCURVE",
"9 916 CURVE SMOOTH",
"58 911 OFFCURVE",
"103 901 OFFCURVE",
"131 829 CURVE SMOOTH",
"459 -9 LINE {name = hr00;}"
);
}
);
width = 1767;
}
);
unicode = 0077;
},
{
glyphname = x;
layers = (
{
anchors = (
{
name = btm;
position = "{600, -200}";
},
{
name = top;
position = "{600, 2000}";
}
);
layerId = "62CA62AF-CD91-478A-AB8B-28A62CC47DA0";
paths = (
{
closed = 1;
nodes = (
"23 26 OFFCURVE",
"34 0 OFFCURVE",
"57 0 CURVE SMOOTH",
"436 0 LINE SMOOTH",
"459 0 OFFCURVE",
"470 26 OFFCURVE",
"470 41 CURVE SMOOTH",
"470 62 OFFCURVE",
"465 75 OFFCURVE",
"439 78 CURVE SMOOTH",
"397 82 OFFCURVE",
"303 101 OFFCURVE",
"343 146 CURVE",
"533 370 LINE",
"705 132 LINE SMOOTH",
"739 86 OFFCURVE",
"690 82 OFFCURVE",
"649 78 CURVE SMOOTH",
"622 75 OFFCURVE",
"618 62 OFFCURVE",
"618 41 CURVE SMOOTH",
"618 26 OFFCURVE",
"629 0 OFFCURVE",
"652 0 CURVE SMOOTH",
"1189 0 LINE SMOOTH",
"1212 0 OFFCURVE",
"1223 26 OFFCURVE",
"1223 41 CURVE SMOOTH",
"1223 70 OFFCURVE",
"1212 75 OFFCURVE",
"1190 78 CURVE SMOOTH",
"1140 85 OFFCURVE",
"1113 117 OFFCURVE",
"1073 165 CURVE SMOOTH",
"739 566 LINE",
"1004 827 LINE SMOOTH",
"1044 867 OFFCURVE",
"1093 914 OFFCURVE",
"1161 914 CURVE SMOOTH",
"1183 914 OFFCURVE",
"1194 927 OFFCURVE",
"1194 951 CURVE SMOOTH",
"1194 966 OFFCURVE",
"1183 994 OFFCURVE",
"1160 994 CURVE SMOOTH",
"807 994 LINE SMOOTH",
"784 994 OFFCURVE",
"773 966 OFFCURVE",
"773 951 CURVE SMOOTH",
"773 930 OFFCURVE",
"778 916 OFFCURVE",
"804 914 CURVE SMOOTH",
"870 908 OFFCURVE",
"921 890 OFFCURVE",
"880 846 CURVE",
"687 627 LINE",
"537 860 LINE",
"499 913 OFFCURVE",
"545 910 OFFCURVE",
"588 914 CURVE SMOOTH",
"615 917 OFFCURVE",
"619 930 OFFCURVE",
"619 951 CURVE SMOOTH",
"619 966 OFFCURVE",
"608 994 OFFCURVE",
"585 994 CURVE SMOOTH",
"46 994 LINE SMOOTH",
"23 994 OFFCURVE",
"12 966 OFFCURVE",
"12 951 CURVE SMOOTH",
"12 922 OFFCURVE",
"23 917 OFFCURVE",
"45 914 CURVE SMOOTH",
"95 907 OFFCURVE",
"121 889 OFFCURVE",
"169 827 CURVE SMOOTH",
"477 431 LINE",
"219 168 LINE",
"184 131 OFFCURVE",
"124 78 OFFCURVE",
"56 78 CURVE SMOOTH",
"34 78 OFFCURVE",
"23 65 OFFCURVE",
"23 41 CURVE SMOOTH {name = hr00;}"
);
}
);
width = 1204;
}
);
unicode = 0078;
},
{
glyphname = y;
layers = (
{
anchors = (
{
name = btm;
position = "{563, -200}";
},
{
name = top;
position = "{680, 2000}";
}
);
layerId = "62CA62AF-CD91-478A-AB8B-28A62CC47DA0";
paths = (
{
closed = 1;
nodes = (
"87 -221 OFFCURVE",
"22 -250 OFFCURVE",
"22 -323 CURVE SMOOTH",
"22 -406 OFFCURVE",
"107 -449 OFFCURVE",
"214 -449 CURVE SMOOTH",
"442 -449 OFFCURVE",
"613 -156 OFFCURVE",
"753 170 CURVE SMOOTH",
"1035 829 LINE SMOOTH",
"1065 900 OFFCURVE",
"1098 911 OFFCURVE",
"1147 916 CURVE SMOOTH",
"1175 919 OFFCURVE",
"1183 923 OFFCURVE",
"1183 953 CURVE SMOOTH",
"1183 968 OFFCURVE",
"1171 994 OFFCURVE",
"1149 994 CURVE SMOOTH",
"794 994 LINE SMOOTH",
"771 994 OFFCURVE",
"760 968 OFFCURVE",
"760 953 CURVE SMOOTH",
"760 932 OFFCURVE",
"767 919 OFFCURVE",
"793 916 CURVE SMOOTH",
"842 911 OFFCURVE",
"920 903 OFFCURVE",
"904 862 CURVE",
"696 296 LINE",
"470 862 LINE",
"453 902 OFFCURVE",
"527 911 OFFCURVE",
"576 916 CURVE SMOOTH",
"602 919 OFFCURVE",
"609 932 OFFCURVE",
"609 953 CURVE SMOOTH",
"609 968 OFFCURVE",
"598 994 OFFCURVE",
"575 994 CURVE SMOOTH",
"8 994 LINE SMOOTH",
"-14 994 OFFCURVE",
"-25 968 OFFCURVE",
"-25 953 CURVE SMOOTH",
"-25 923 OFFCURVE",
"-17 919 OFFCURVE",
"11 916 CURVE SMOOTH",
"60 911 OFFCURVE",
"100 899 OFFCURVE",
"133 829 CURVE SMOOTH",
"544 -39 LINE",
"456 -197 OFFCURVE",
"373 -245 OFFCURVE",
"277 -245 CURVE",
"142 -228 LINE SMOOTH {name = hr00;}"
);
}
);
width = 1151;
}
);
unicode = 0079;
},
{
glyphname = z;
layers = (
{
anchors = (
{
name = btm;
position = "{532, -200}";
},
{
name = top;
position = "{563, 2000}";
}
);
layerId = "62CA62AF-CD91-478A-AB8B-28A62CC47DA0";
paths = (
{
closed = 1;
nodes = (
"36 5 OFFCURVE",
"44 0 OFFCURVE",
"60 0 CURVE SMOOTH",
"977 0 LINE",
"997 1 OFFCURVE",
"1024 15 OFFCURVE",
"1024 41 CURVE SMOOTH",
"1024 339 LINE SMOOTH",
"1024 362 OFFCURVE",
"1008 373 OFFCURVE",
"993 373 CURVE SMOOTH",
"972 373 OFFCURVE",
"909 366 OFFCURVE",
"906 340 CURVE SMOOTH",
"901 291 OFFCURVE",
"826 96 OFFCURVE",
"718 93 CURVE SMOOTH",
"427 85 LINE",
"501 189 LINE",
"1018 913 LINE SMOOTH",
"1025 923 OFFCURVE",
"1028 930 OFFCURVE",
"1028 941 CURVE SMOOTH",
"1028 965 LINE SMOOTH",
"1028 984 OFFCURVE",
"1010 994 OFFCURVE",
"994 994 CURVE SMOOTH",
"146 994 LINE",
"126 993 OFFCURVE",
"99 975 OFFCURVE",
"99 951 CURVE SMOOTH",
"99 653 LINE SMOOTH",
"99 630 OFFCURVE",
"115 619 OFFCURVE",
"130 619 CURVE SMOOTH",
"151 619 OFFCURVE",
"204 626 OFFCURVE",
"207 652 CURVE SMOOTH",
"212 701 OFFCURVE",
"297 909 OFFCURVE",
"415 909 CURVE SMOOTH",
"642 909 LINE",
"585 838 LINE",
"78 123 LINE",
"42 69 OFFCURVE",
"36 53 OFFCURVE",
"36 40 CURVE SMOOTH",
"36 24 LINE SMOOTH {name = hr00;}"
);
}
);
width = 1075;
}
);
unicode = 007A;
},
{
glyphname = f_f_i;
layers = (
{
components = (
{
name = f;
}
);
layerId = "62CA62AF-CD91-478A-AB8B-28A62CC47DA0";
paths = (
{
closed = 1;
nodes = (
"881 26 OFFCURVE",
"892 0 OFFCURVE",
"915 0 CURVE SMOOTH",
"1450 0 LINE SMOOTH",
"1473 0 OFFCURVE",
"1484 26 OFFCURVE",
"1484 41 CURVE SMOOTH",
"1484 71 OFFCURVE",
"1476 75 OFFCURVE",
"1448 78 CURVE",
"1383 83 OFFCURVE",
"1346 89 OFFCURVE",
"1346 175 CURVE SMOOTH",
"1346 885 LINE",
"1662 885 LINE SMOOTH",
"1794 885 OFFCURVE",
"1827 864 OFFCURVE",
"1827 778 CURVE SMOOTH",
"1826 142 LINE SMOOTH",
"1826 98 OFFCURVE",
"1780 83 OFFCURVE",
"1731 78 CURVE SMOOTH",
"1705 75 OFFCURVE",
"1698 62 OFFCURVE",
"1698 41 CURVE SMOOTH",
"1698 26 OFFCURVE",
"1709 0 OFFCURVE",
"1732 0 CURVE SMOOTH",
"2267 0 LINE SMOOTH",
"2289 0 OFFCURVE",
"2301 26 OFFCURVE",
"2301 41 CURVE SMOOTH",
"2301 71 OFFCURVE",
"2293 75 OFFCURVE",
"2265 78 CURVE SMOOTH",
"2216 83 OFFCURVE",
"2143 89 OFFCURVE",
"2143 175 CURVE SMOOTH",
"2143 957 LINE SMOOTH",
"2143 989 OFFCURVE",
"2124 997 OFFCURVE",
"2113 997 CURVE SMOOTH",
"2051 997 OFFCURVE",
"1964 992 OFFCURVE",
"1775 992 CURVE SMOOTH {name = hr02;}",
"1346 992 LINE",
"1346 1077 LINE SMOOTH",
"1346 1391 OFFCURVE",
"1558 1478 OFFCURVE",
"1656 1478 CURVE SMOOTH",
"1731 1478 OFFCURVE",
"1747 1473 OFFCURVE",
"1783 1468 CURVE",
"1944 1228 LINE",
"1944 1226 OFFCURVE",
"1955 1225 OFFCURVE",
"1955 1225 CURVE",
"2077 1225 OFFCURVE",
"2113 1302 OFFCURVE",
"2113 1377 CURVE SMOOTH",
"2113 1471 OFFCURVE",
"2024 1573 OFFCURVE",
"1684 1573 CURVE SMOOTH",
"1275 1573 OFFCURVE",
"1030 1315 OFFCURVE",
"1030 1045 CURVE SMOOTH",
"1030 992 LINE",
"877 975 LINE {name = hr03;}",
"863 969 OFFCURVE",
"852 954 OFFCURVE",
"852 929 CURVE SMOOTH",
"852 913 OFFCURVE",
"860 886 OFFCURVE",
"876 885 CURVE",
"1030 885 LINE",
"1030 142 LINE SMOOTH",
"1030 98 OFFCURVE",
"963 83 OFFCURVE",
"914 78 CURVE SMOOTH",
"888 75 OFFCURVE",
"881 62 OFFCURVE",
"881 41 CURVE SMOOTH {name = hr01;}"
);
}
);
width = 2335;
}
);
unicode = FB03;
},
{
glyphname = f_f_l;
layers = (
{
components = (
{
name = f;
}
);
layerId = "62CA62AF-CD91-478A-AB8B-28A62CC47DA0";
paths = (
{
closed = 1;
nodes = (
"925 26 OFFCURVE",
"936 0 OFFCURVE",
"959 0 CURVE SMOOTH",
"1511 0 LINE SMOOTH",
"1534 0 OFFCURVE",
"1545 26 OFFCURVE",
"1545 41 CURVE SMOOTH",
"1545 71 OFFCURVE",
"1537 75 OFFCURVE",
"1509 78 CURVE",
"1444 83 OFFCURVE",
"1390 89 OFFCURVE",
"1390 175 CURVE SMOOTH",
"1390 885 LINE",
"1622 885 LINE",
"1636 891 OFFCURVE",
"1646 933 OFFCURVE",
"1646 958 CURVE SMOOTH",
"1646 974 OFFCURVE",
"1638 991 OFFCURVE",
"1622 992 CURVE",
"1390 992 LINE",
"1390 1107 LINE SMOOTH",
"1390 1442 OFFCURVE",
"1540 1480 OFFCURVE",
"1669 1480 CURVE SMOOTH",
"1753 1480 OFFCURVE",
"1814 1430 OFFCURVE",
"1814 1394 CURVE SMOOTH",
"1814 142 LINE SMOOTH",
"1814 98 OFFCURVE",
"1785 83 OFFCURVE",
"1736 78 CURVE SMOOTH",
"1710 75 OFFCURVE",
"1703 62 OFFCURVE",
"1703 41 CURVE SMOOTH",
"1703 26 OFFCURVE",
"1714 0 OFFCURVE",
"1737 0 CURVE SMOOTH",
"2245 0 LINE SMOOTH",
"2268 0 OFFCURVE",
"2279 26 OFFCURVE",
"2279 41 CURVE SMOOTH",
"2279 71 OFFCURVE",
"2271 75 OFFCURVE",
"2243 78 CURVE SMOOTH",
"2194 83 OFFCURVE",
"2121 89 OFFCURVE",
"2121 175 CURVE SMOOTH",
"2121 1488 LINE SMOOTH",
"2121 1520 OFFCURVE",
"2108 1528 OFFCURVE",
"2092 1528 CURVE SMOOTH",
"2081 1528 OFFCURVE",
"2068 1520 OFFCURVE",
"2055 1514 CURVE SMOOTH",
"2002 1490 OFFCURVE",
"2002 1491 OFFCURVE",
"1986 1484 CURVE",
"1918 1540 OFFCURVE",
"1812 1573 OFFCURVE",
"1669 1573 CURVE SMOOTH",
"1307 1573 OFFCURVE",
"1074 1387 OFFCURVE",
"1074 1075 CURVE SMOOTH",
"1074 992 LINE",
"921 975 LINE",
"907 969 OFFCURVE",
"896 954 OFFCURVE",
"896 929 CURVE SMOOTH",
"896 913 OFFCURVE",
"904 886 OFFCURVE",
"920 885 CURVE",
"1074 885 LINE",
"1074 142 LINE SMOOTH",
"1074 98 OFFCURVE",
"1007 83 OFFCURVE",
"958 78 CURVE SMOOTH",
"932 75 OFFCURVE",
"925 62 OFFCURVE",
"925 41 CURVE SMOOTH {name = hr00;}"
);
}
);
width = 2315;
}
);
unicode = FB04;
},
{
glyphname = fi;
lastChange = "2018-05-14 03:34:40 +0000";
layers = (
{
layerId = "62CA62AF-CD91-478A-AB8B-28A62CC47DA0";
paths = (
{
closed = 1;
nodes = (
"59 26 OFFCURVE",
"70 0 OFFCURVE",
"93 0 CURVE SMOOTH",
"628 0 LINE SMOOTH",
"651 0 OFFCURVE",
"662 26 OFFCURVE",
"662 41 CURVE SMOOTH",
"662 71 OFFCURVE",
"654 75 OFFCURVE",
"626 78 CURVE",
"561 83 OFFCURVE",
"524 89 OFFCURVE",
"524 175 CURVE SMOOTH",
"524 885 LINE",
"750 885 LINE SMOOTH",
"882 885 OFFCURVE",
"915 864 OFFCURVE",
"915 778 CURVE SMOOTH",
"914 142 LINE SMOOTH",
"914 98 OFFCURVE",
"868 83 OFFCURVE",
"819 78 CURVE SMOOTH",
"793 75 OFFCURVE",
"786 62 OFFCURVE",
"786 41 CURVE SMOOTH",
"786 26 OFFCURVE",
"797 0 OFFCURVE",
"820 0 CURVE SMOOTH",
"1355 0 LINE SMOOTH",
"1377 0 OFFCURVE",
"1389 26 OFFCURVE",
"1389 41 CURVE SMOOTH",
"1389 71 OFFCURVE",
"1381 75 OFFCURVE",
"1353 78 CURVE SMOOTH",
"1304 83 OFFCURVE",
"1231 89 OFFCURVE",
"1231 175 CURVE SMOOTH",
"1231 957 LINE SMOOTH",
"1231 989 OFFCURVE",
"1212 997 OFFCURVE",
"1201 997 CURVE SMOOTH",
"1139 997 OFFCURVE",
"1052 992 OFFCURVE",
"863 992 CURVE SMOOTH {name = hr02;}",
"524 992 LINE",
"524 1077 LINE SMOOTH",
"524 1391 OFFCURVE",
"695 1478 OFFCURVE",
"814 1478 CURVE SMOOTH",
"847 1478 OFFCURVE",
"856 1473 OFFCURVE",
"871 1468 CURVE",
"1032 1228 LINE",
"1032 1226 OFFCURVE",
"1043 1225 OFFCURVE",
"1043 1225 CURVE",
"1165 1225 OFFCURVE",
"1201 1302 OFFCURVE",
"1201 1377 CURVE SMOOTH",
"1201 1471 OFFCURVE",
"1126 1573 OFFCURVE",
"842 1573 CURVE SMOOTH",
"391 1573 OFFCURVE",
"208 1315 OFFCURVE",
"208 1045 CURVE SMOOTH",
"208 992 LINE",
"55 975 LINE {name = hr03;}",
"41 969 OFFCURVE",
"30 954 OFFCURVE",
"30 929 CURVE SMOOTH",
"30 913 OFFCURVE",
"38 886 OFFCURVE",
"54 885 CURVE",
"208 885 LINE",
"208 142 LINE SMOOTH",
"208 98 OFFCURVE",
"141 83 OFFCURVE",
"92 78 CURVE SMOOTH",
"66 75 OFFCURVE",
"59 62 OFFCURVE",
"59 41 CURVE SMOOTH {name = hr01;}"
);
}
);
width = 1423;
}
);
unicode = FB01;
},
{
glyphname = fl;
lastChange = "2018-05-14 03:34:36 +0000";
layers = (
{
layerId = "62CA62AF-CD91-478A-AB8B-28A62CC47DA0";
paths = (
{
closed = 1;
nodes = (
"59 26 OFFCURVE",
"70 0 OFFCURVE",
"93 0 CURVE SMOOTH",
"645 0 LINE SMOOTH",
"668 0 OFFCURVE",
"679 26 OFFCURVE",
"679 41 CURVE SMOOTH",
"679 71 OFFCURVE",
"671 75 OFFCURVE",
"643 78 CURVE",
"578 83 OFFCURVE",
"524 89 OFFCURVE",
"524 175 CURVE SMOOTH",
"524 885 LINE",
"756 885 LINE",
"770 891 OFFCURVE",
"780 933 OFFCURVE",
"780 958 CURVE SMOOTH",
"780 974 OFFCURVE",
"772 991 OFFCURVE",
"756 992 CURVE",
"524 992 LINE",
"524 1107 LINE SMOOTH",
"524 1442 OFFCURVE",
"674 1480 OFFCURVE",
"803 1480 CURVE SMOOTH",
"887 1480 OFFCURVE",
"943 1430 OFFCURVE",
"943 1394 CURVE SMOOTH",
"943 142 LINE SMOOTH",
"943 98 OFFCURVE",
"914 83 OFFCURVE",
"865 78 CURVE SMOOTH",
"839 75 OFFCURVE",
"832 62 OFFCURVE",
"832 41 CURVE SMOOTH",
"832 26 OFFCURVE",
"843 0 OFFCURVE",
"866 0 CURVE SMOOTH",
"1374 0 LINE SMOOTH",
"1397 0 OFFCURVE",
"1408 26 OFFCURVE",
"1408 41 CURVE SMOOTH",
"1408 71 OFFCURVE",
"1400 75 OFFCURVE",
"1372 78 CURVE SMOOTH",
"1323 83 OFFCURVE",
"1250 89 OFFCURVE",
"1250 175 CURVE SMOOTH",
"1250 1488 LINE SMOOTH",
"1250 1520 OFFCURVE",
"1237 1528 OFFCURVE",
"1221 1528 CURVE SMOOTH",
"1210 1528 OFFCURVE",
"1197 1520 OFFCURVE",
"1184 1514 CURVE SMOOTH",
"1131 1490 OFFCURVE",
"1131 1491 OFFCURVE",
"1115 1484 CURVE",
"1047 1540 OFFCURVE",
"946 1573 OFFCURVE",
"803 1573 CURVE SMOOTH",
"441 1573 OFFCURVE",
"208 1387 OFFCURVE",
"208 1075 CURVE SMOOTH",
"208 992 LINE",
"55 975 LINE",
"41 969 OFFCURVE",
"30 954 OFFCURVE",
"30 929 CURVE SMOOTH",
"30 913 OFFCURVE",
"38 886 OFFCURVE",
"54 885 CURVE",
"208 885 LINE",
"208 142 LINE SMOOTH",
"208 98 OFFCURVE",
"141 83 OFFCURVE",
"92 78 CURVE SMOOTH",
"66 75 OFFCURVE",
"59 62 OFFCURVE",
"59 41 CURVE SMOOTH {name = hr00;}"
);
}
);
width = 1444;
}
);
unicode = FB02;
},
{
glyphname = ordfeminine;
layers = (
{
layerId = "62CA62AF-CD91-478A-AB8B-28A62CC47DA0";
paths = (
{
closed = 1;
nodes = (
"512 604 OFFCURVE",
"602 665 OFFCURVE",
"664 741 CURVE",
"665 638 OFFCURVE",
"697 604 OFFCURVE",
"781 604 CURVE SMOOTH",
"927 604 OFFCURVE",
"1017 651 OFFCURVE",
"1039 662 CURVE",
"1051 678 OFFCURVE",
"1037 750 OFFCURVE",
"1013 737 CURVE",
"995 732 OFFCURVE",
"972 729 OFFCURVE",
"957 729 CURVE SMOOTH",
"925 729 OFFCURVE",
"912 768 OFFCURVE",
"912 821 CURVE SMOOTH",
"912 1187 LINE SMOOTH",
"912 1392 OFFCURVE",
"772 1448 OFFCURVE",
"545 1448 CURVE SMOOTH",
"480 1448 OFFCURVE",
"285 1425 OFFCURVE",
"218 1353 CURVE SMOOTH",
"134 1264 OFFCURVE",
"193 1202 OFFCURVE",
"228 1180 CURVE SMOOTH",
"276 1150 OFFCURVE",
"331 1167 OFFCURVE",
"346 1200 CURVE SMOOTH",
"362 1233 OFFCURVE",
"420 1319 OFFCURVE",
"439 1341 CURVE",
"439 1341 OFFCURVE",
"461 1357 OFFCURVE",
"504 1357 CURVE SMOOTH",
"605 1357 OFFCURVE",
"651 1340 OFFCURVE",
"651 1252 CURVE SMOOTH",
"651 1146 LINE",
"613 1144 OFFCURVE",
"522 1128 OFFCURVE",
"424 1097 CURVE SMOOTH",
"237 1039 OFFCURVE",
"130 974 OFFCURVE",
"133 831 CURVE SMOOTH",
"136 682 OFFCURVE",
"265 604 OFFCURVE",
"406 604 CURVE SMOOTH {name = hr00;}"
);
},
{
closed = 1;
nodes = (
"449 740 OFFCURVE",
"408 803 OFFCURVE",
"408 853 CURVE SMOOTH",
"408 913 OFFCURVE",
"427 962 OFFCURVE",
"491 1007 CURVE SMOOTH",
"539 1041 OFFCURVE",
"620 1074 OFFCURVE",
"650 1086 CURVE",
"650 799 LINE",
"626 773 OFFCURVE",
"583 740 OFFCURVE",
"523 740 CURVE SMOOTH"
);
}
);
width = 1130;
}
);
unicode = 00AA;
},
{
glyphname = ordmasculine;
layers = (
{
layerId = "62CA62AF-CD91-478A-AB8B-28A62CC47DA0";
paths = (
{
closed = 1;
nodes = (
"858 612 OFFCURVE",
"1035 800 OFFCURVE",
"1035 1031 CURVE SMOOTH",
"1035 1263 OFFCURVE",
"863 1450 OFFCURVE",
"569 1450 CURVE SMOOTH",
"275 1450 OFFCURVE",
"95 1263 OFFCURVE",
"95 1031 CURVE SMOOTH",
"95 800 OFFCURVE",
"269 612 OFFCURVE",
"564 612 CURVE SMOOTH {name = hr00;}"
);
},
{
closed = 1;
nodes = (
"431 698 OFFCURVE",
"377 820 OFFCURVE",
"377 1031 CURVE SMOOTH",
"377 1242 OFFCURVE",
"428 1363 OFFCURVE",
"563 1363 CURVE SMOOTH",
"696 1363 OFFCURVE",
"751 1242 OFFCURVE",
"751 1031 CURVE SMOOTH",
"751 820 OFFCURVE",
"700 698 OFFCURVE",
"565 698 CURVE SMOOTH"
);
}
);
width = 1130;
}
);
unicode = 00BA;
},
{
glyphname = Deltagreek;
layers = (
{
layerId = "62CA62AF-CD91-478A-AB8B-28A62CC47DA0";
paths = (
{
closed = 1;
nodes = (
"70 0 LINE {name = hr02;}",
"1426 0 LINE",
"1442 27 LINE",
"733 1508 LINE",
"701 1508 LINE",
"56 22 LINE {name = hr01;}"
);
},
{
closed = 1;
nodes = (
"630 1017 LINE",
"1047 119 LINE",
"225 119 LINE"
);
}
);
width = 1513;
}
);
unicode = 0394;
},
{
glyphname = Omegagreek;
layers = (
{
layerId = "62CA62AF-CD91-478A-AB8B-28A62CC47DA0";
paths = (
{
closed = 1;
nodes = (
"787 0 LINE SMOOTH",
"803 0 OFFCURVE",
"818 111 OFFCURVE",
"807 119 CURVE SMOOTH",
"658 236 OFFCURVE",
"533 451 OFFCURVE",
"533 853 CURVE SMOOTH",
"533 1231 OFFCURVE",
"696 1336 OFFCURVE",
"895 1336 CURVE SMOOTH",
"898 1336 LINE SMOOTH",
"1093 1336 OFFCURVE",
"1244 1231 OFFCURVE",
"1244 853 CURVE SMOOTH",
"1244 451 OFFCURVE",
"1116 244 OFFCURVE",
"974 119 CURVE SMOOTH",
"961 107 OFFCURVE",
"987 0 OFFCURVE",
"1004 0 CURVE SMOOTH",
"1659 0 LINE",
"1712 371 LINE SMOOTH",
"1715 394 OFFCURVE",
"1684 405 OFFCURVE",
"1669 405 CURVE SMOOTH",
"1648 405 OFFCURVE",
"1632 396 OFFCURVE",
"1624 372 CURVE",
"1574 263 OFFCURVE",
"1513 170 OFFCURVE",
"1420 170 CURVE SMOOTH",
"1169 170 LINE",
"1346 274 OFFCURVE",
"1630 523 OFFCURVE",
"1630 854 CURVE SMOOTH",
"1630 1213 OFFCURVE",
"1335 1448 OFFCURVE",
"897 1448 CURVE SMOOTH",
"458 1448 OFFCURVE",
"161 1213 OFFCURVE",
"161 854 CURVE SMOOTH",
"161 524 OFFCURVE",
"429 274 OFFCURVE",
"588 170 CURVE",
"371 170 LINE SMOOTH",
"278 170 OFFCURVE",
"217 263 OFFCURVE",
"167 372 CURVE",
"159 396 OFFCURVE",
"143 405 OFFCURVE",
"122 405 CURVE SMOOTH",
"107 405 OFFCURVE",
"76 394 OFFCURVE",
"79 371 CURVE SMOOTH",
"132 0 LINE {name = hr00;}"
);
}
);
width = 1792;
}
);
unicode = 03A9;
},
{
glyphname = pi;
layers = (
{
layerId = "62CA62AF-CD91-478A-AB8B-28A62CC47DA0";
paths = (
{
closed = 1;
nodes = (
"51 190 OFFCURVE",
"104 -29 OFFCURVE",
"253 -29 CURVE SMOOTH",
"327 -29 OFFCURVE",
"390 -5 OFFCURVE",
"410 1 CURVE SMOOTH",
"534 40 OFFCURVE",
"580 157 OFFCURVE",
"592 511 CURVE SMOOTH",
"602 811 LINE",
"871 810 LINE",
"792 229 LINE",
"774 52 OFFCURVE",
"821 -29 OFFCURVE",
"984 -29 CURVE SMOOTH",
"1117 -29 OFFCURVE",
"1229 2 OFFCURVE",
"1303 46 CURVE SMOOTH",
"1320 56 OFFCURVE",
"1293 164 OFFCURVE",
"1273 154 CURVE SMOOTH {name = hr02;}",
"1229 132 OFFCURVE",
"1181 128 OFFCURVE",
"1146 128 CURVE SMOOTH",
"1069 128 OFFCURVE",
"1049 161 OFFCURVE",
"1049 247 CURVE SMOOTH",
"1049 810 LINE",
"1325 810 LINE",
"1346 992 LINE",
"403 992 LINE SMOOTH",
"213 992 OFFCURVE",
"44 958 OFFCURVE",
"44 772 CURVE SMOOTH",
"44 747 OFFCURVE",
"45 723 OFFCURVE",
"47 714 CURVE",
"169 701 LINE",
"191 750 OFFCURVE",
"234 811 OFFCURVE",
"368 811 CURVE SMOOTH",
"435 811 LINE",
"410 501 OFFCURVE",
"380 331 OFFCURVE",
"326 191 CURVE {name = hr03;}",
"133 190 LINE SMOOTH {name = hr01;}"
);
}
);
width = 1352;
}
);
unicode = 03C0;
},
{
glyphname = zero;
layers = (
{
layerId = "62CA62AF-CD91-478A-AB8B-28A62CC47DA0";
paths = (
{
closed = 1;
nodes = (
"103 206 OFFCURVE",
"332 -29 OFFCURVE",
"716 -29 CURVE SMOOTH",
"1104 -29 OFFCURVE",
"1333 206 OFFCURVE",
"1333 582 CURVE SMOOTH",
"1333 965 OFFCURVE",
"1112 1205 OFFCURVE",
"723 1205 CURVE SMOOTH",
"339 1205 OFFCURVE",
"103 965 OFFCURVE",
"103 582 CURVE SMOOTH {name = hr00;}"
);
},
{
closed = 1;
nodes = (
"509 66 OFFCURVE",
"458 234 OFFCURVE",
"458 582 CURVE SMOOTH",
"458 936 OFFCURVE",
"505 1110 OFFCURVE",
"715 1110 CURVE SMOOTH",
"924 1110 OFFCURVE",
"976 936 OFFCURVE",
"976 582 CURVE SMOOTH",
"976 234 OFFCURVE",
"928 66 OFFCURVE",
"719 66 CURVE SMOOTH"
);
}
);
width = 1436;
}
);
unicode = 0030;
},
{
glyphname = one;
layers = (
{
layerId = "62CA62AF-CD91-478A-AB8B-28A62CC47DA0";
paths = (
{
closed = 1;
nodes = (
"161 26 OFFCURVE",
"172 0 OFFCURVE",
"195 0 CURVE SMOOTH",
"860 0 LINE SMOOTH",
"883 0 OFFCURVE",
"894 26 OFFCURVE",
"894 41 CURVE SMOOTH",
"894 71 OFFCURVE",
"886 75 OFFCURVE",
"858 78 CURVE SMOOTH",
"797 83 OFFCURVE",
"686 89 OFFCURVE",
"686 175 CURVE SMOOTH",
"687 1189 LINE",
"488 1189 LINE",
"396 1116 OFFCURVE",
"236 1038 OFFCURVE",
"175 1033 CURVE SMOOTH",
"147 1030 OFFCURVE",
"139 1006 OFFCURVE",
"139 976 CURVE SMOOTH",
"139 961 OFFCURVE",
"150 945 OFFCURVE",
"173 945 CURVE SMOOTH",
"218 945 OFFCURVE",
"303 951 OFFCURVE",
"360 960 CURVE",
"359 142 LINE SMOOTH",
"359 98 OFFCURVE",
"258 83 OFFCURVE",
"194 78 CURVE",
"168 75 OFFCURVE",
"161 62 OFFCURVE",
"161 41 CURVE SMOOTH {name = hr00;}"
);
}
);
width = 1004;
}
);
unicode = 0031;
},
{
glyphname = two;
layers = (
{
layerId = "62CA62AF-CD91-478A-AB8B-28A62CC47DA0";
paths = (
{
closed = 1;
nodes = (
"1157 0 LINE",
"1167 249 LINE",
"506 249 LINE",
"792 393 OFFCURVE",
"1141 575 OFFCURVE",
"1141 851 CURVE SMOOTH",
"1141 1079 OFFCURVE",
"966 1205 OFFCURVE",
"619 1205 CURVE SMOOTH",
"368 1205 OFFCURVE",
"199 1092 OFFCURVE",
"140 972 CURVE SMOOTH",
"56 802 OFFCURVE",
"173 730 OFFCURVE",
"270 730 CURVE SMOOTH",
"340 730 OFFCURVE",
"355 779 OFFCURVE",
"368 822 CURVE",
"436 1002 LINE",
"450 1046 OFFCURVE",
"486 1109 OFFCURVE",
"604 1109 CURVE SMOOTH",
"759 1109 OFFCURVE",
"792 951 OFFCURVE",
"792 850 CURVE SMOOTH",
"792 515 OFFCURVE",
"425 317 OFFCURVE",
"139 88 CURVE SMOOTH",
"124 76 OFFCURVE",
"115 51 OFFCURVE",
"115 32 CURVE SMOOTH",
"115 0 LINE {name = hr00;}"
);
}
);
width = 1282;
}
);
unicode = 0032;
},
{
glyphname = three;
layers = (
{
layerId = "62CA62AF-CD91-478A-AB8B-28A62CC47DA0";
paths = (
{
closed = 1;
nodes = (
"77 -277 OFFCURVE",
"307 -392 OFFCURVE",
"559 -392 CURVE SMOOTH",
"989 -392 OFFCURVE",
"1209 -181 OFFCURVE",
"1209 73 CURVE SMOOTH",
"1209 307 OFFCURVE",
"1033 454 OFFCURVE",
"773 456 CURVE",
"976 486 OFFCURVE",
"1128 634 OFFCURVE",
"1128 840 CURVE SMOOTH {name = hr02;}",
"1128 1058 OFFCURVE",
"939 1205 OFFCURVE",
"618 1205 CURVE SMOOTH",
"350 1205 OFFCURVE",
"106 1079 OFFCURVE",
"106 896 CURVE SMOOTH",
"106 762 OFFCURVE",
"304 690 OFFCURVE",
"356 834 CURVE SMOOTH",
"370 873 OFFCURVE",
"386 940 OFFCURVE",
"406 1002 CURVE",
"446 1084 OFFCURVE",
"501 1108 OFFCURVE",
"572 1108 CURVE SMOOTH",
"754 1108 OFFCURVE",
"796 922 OFFCURVE",
"796 821 CURVE SMOOTH",
"796 606 OFFCURVE",
"648 505 OFFCURVE",
"507 505 CURVE SMOOTH",
"434 505 LINE SMOOTH",
"418 505 OFFCURVE",
"410 496 OFFCURVE",
"410 449 CURVE SMOOTH",
"410 401 OFFCURVE",
"418 393 OFFCURVE",
"434 393 CURVE SMOOTH",
"527 393 LINE SMOOTH",
"708 393 OFFCURVE",
"842 312 OFFCURVE",
"842 46 CURVE SMOOTH",
"842 -155 OFFCURVE",
"744 -297 OFFCURVE",
"550 -297 CURVE SMOOTH",
"370 -297 OFFCURVE",
"307 -197 OFFCURVE",
"307 -197 CURVE",
"370 46 LINE",
"360 79 OFFCURVE",
"324 117 OFFCURVE",
"238 117 CURVE SMOOTH",
"179 117 OFFCURVE",
"77 49 OFFCURVE",
"77 -78 CURVE SMOOTH {name = hr01;}"
);
}
);
width = 1280;
}
);
unicode = 0033;
},
{
glyphname = four;
layers = (
{
layerId = "62CA62AF-CD91-478A-AB8B-28A62CC47DA0";
paths = (
{
closed = 1;
nodes = (
"79 0 LINE",
"713 0 LINE",
"713 -384 LINE",
"1026 -384 LINE",
"1026 0 LINE",
"1224 0 LINE SMOOTH",
"1240 0 OFFCURVE",
"1244 74 OFFCURVE",
"1244 124 CURVE SMOOTH",
"1244 153 OFFCURVE",
"1236 164 OFFCURVE",
"1227 164 CURVE SMOOTH",
"1026 164 LINE",
"1026 523 LINE SMOOTH",
"1026 537 OFFCURVE",
"1018 551 OFFCURVE",
"995 551 CURVE SMOOTH",
"784 551 LINE SMOOTH",
"761 551 OFFCURVE",
"713 532 OFFCURVE",
"713 480 CURVE SMOOTH",
"713 164 LINE",
"270 164 LINE",
"905 1081 LINE",
"920 1104 OFFCURVE",
"872 1214 OFFCURVE",
"743 1214 CURVE SMOOTH",
"684 1214 OFFCURVE",
"626 1203 OFFCURVE",
"600 1168 CURVE",
"62 92 LINE SMOOTH",
"55 77 OFFCURVE",
"52 55 OFFCURVE",
"59 36 CURVE {name = hr00;}"
);
}
);
width = 1329;
}
);
unicode = 0034;
},
{
glyphname = five;
layers = (
{
layerId = "62CA62AF-CD91-478A-AB8B-28A62CC47DA0";
paths = (
{
closed = 1;
nodes = (
"57 -277 OFFCURVE",
"315 -392 OFFCURVE",
"517 -392 CURVE SMOOTH",
"904 -392 OFFCURVE",
"1156 -163 OFFCURVE",
"1156 146 CURVE SMOOTH",
"1156 427 OFFCURVE",
"993 607 OFFCURVE",
"672 607 CURVE SMOOTH",
"529 607 OFFCURVE",
"391 557 OFFCURVE",
"306 499 CURVE",
"384 911 LINE",
"1064 911 LINE",
"1080 1190 LINE",
"275 1190 LINE",
"170 373 LINE",
"238 340 LINE",
"316 427 OFFCURVE",
"422 486 OFFCURVE",
"543 486 CURVE SMOOTH",
"733 486 OFFCURVE",
"809 365 OFFCURVE",
"809 136 CURVE SMOOTH",
"809 -174 OFFCURVE",
"709 -297 OFFCURVE",
"530 -297 CURVE SMOOTH",
"350 -297 OFFCURVE",
"287 -197 OFFCURVE",
"287 -197 CURVE",
"350 46 LINE",
"340 79 OFFCURVE",
"304 117 OFFCURVE",
"218 117 CURVE SMOOTH",
"159 117 OFFCURVE",
"57 49 OFFCURVE",
"57 -78 CURVE SMOOTH {name = hr00;}"
);
}
);
width = 1227;
}
);
unicode = 0035;
},
{
glyphname = six;
layers = (
{
layerId = "62CA62AF-CD91-478A-AB8B-28A62CC47DA0";
paths = (
{
closed = 1;
nodes = (
"102 245 OFFCURVE",
"260 -29 OFFCURVE",
"659 -29 CURVE SMOOTH",
"1018 -29 OFFCURVE",
"1239 211 OFFCURVE",
"1239 502 CURVE SMOOTH",
"1239 765 OFFCURVE",
"1093 963 OFFCURVE",
"782 963 CURVE SMOOTH",
"645 963 OFFCURVE",
"546 919 OFFCURVE",
"472 867 CURVE",
"510 1110 OFFCURVE",
"628 1389 OFFCURVE",
"992 1457 CURVE",
"991 1549 LINE",
"355 1506 OFFCURVE",
"102 959 OFFCURVE",
"102 582 CURVE SMOOTH {name = hr00;}"
);
},
{
closed = 1;
nodes = (
"498 66 OFFCURVE",
"454 298 OFFCURVE",
"454 602 CURVE SMOOTH",
"454 648 OFFCURVE",
"455 704 OFFCURVE",
"460 766 CURVE",
"511 812 OFFCURVE",
"576 845 OFFCURVE",
"656 845 CURVE SMOOTH",
"813 845 OFFCURVE",
"882 706 OFFCURVE",
"882 472 CURVE SMOOTH",
"882 234 OFFCURVE",
"832 66 OFFCURVE",
"655 66 CURVE SMOOTH"
);
}
);
width = 1327;
}
);
unicode = 0036;
},
{
glyphname = seven;
layers = (
{
layerId = "62CA62AF-CD91-478A-AB8B-28A62CC47DA0";
paths = (
{
closed = 1;
nodes = (
"544 -383 LINE",
"1096 1152 LINE",
"1053 1190 LINE",
"96 1190 LINE",
"61 716 LINE",
"61 693 OFFCURVE",
"97 682 OFFCURVE",
"112 682 CURVE SMOOTH",
"133 682 OFFCURVE",
"161 690 OFFCURVE",
"168 715 CURVE SMOOTH",
"198 817 OFFCURVE",
"202 911 OFFCURVE",
"324 911 CURVE",
"860 911 LINE",
"302 -382 LINE {name = hr00;}"
);
}
);
width = 1135;
}
);
unicode = 0037;
},
{
glyphname = eight;
layers = (
{
layerId = "62CA62AF-CD91-478A-AB8B-28A62CC47DA0";
paths = (
{
closed = 1;
nodes = (
"106 124 OFFCURVE",
"331 -30 OFFCURVE",
"698 -30 CURVE SMOOTH",
"1042 -30 OFFCURVE",
"1280 141 OFFCURVE",
"1280 358 CURVE SMOOTH",
"1280 594 OFFCURVE",
"1107 708 OFFCURVE",
"908 806 CURVE",
"1049 855 OFFCURVE",
"1197 954 OFFCURVE",
"1197 1111 CURVE SMOOTH {name = hr02;}",
"1197 1305 OFFCURVE",
"1039 1449 OFFCURVE",
"693 1449 CURVE SMOOTH",
"342 1449 OFFCURVE",
"176 1271 OFFCURVE",
"176 1102 CURVE SMOOTH",
"176 933 OFFCURVE",
"281 811 OFFCURVE",
"421 716 CURVE",
"289 683 OFFCURVE",
"106 581 OFFCURVE",
"106 373 CURVE SMOOTH {name = hr01;}"
);
},
{
closed = 1;
nodes = (
"549 971 OFFCURVE",
"463 1051 OFFCURVE",
"463 1157 CURVE SMOOTH {name = hr04;}",
"463 1300 OFFCURVE",
"547 1354 OFFCURVE",
"690 1354 CURVE SMOOTH",
"852 1354 OFFCURVE",
"915 1243 OFFCURVE",
"915 1122 CURVE SMOOTH",
"915 964 OFFCURVE",
"867 893 OFFCURVE",
"807 854 CURVE",
"731 890 LINE"
);
},
{
closed = 1;
nodes = (
"415 528 OFFCURVE",
"447 617 OFFCURVE",
"499 667 CURVE",
"562 631 OFFCURVE",
"629 600 OFFCURVE",
"695 571 CURVE",
"823 518 OFFCURVE",
"983 447 OFFCURVE",
"983 303 CURVE SMOOTH",
"983 148 OFFCURVE",
"877 65 OFFCURVE",
"711 65 CURVE SMOOTH",
"516 65 OFFCURVE",
"415 211 OFFCURVE",
"415 382 CURVE SMOOTH {name = hr05;}"
);
}
);
width = 1384;
}
);
unicode = 0038;
},
{
glyphname = onesuperior;
lastChange = "2018-05-14 03:36:36 +0000";
layers = (
{
layerId = "62CA62AF-CD91-478A-AB8B-28A62CC47DA0";
paths = (
{
closed = 1;
nodes = (
"865 391 LINE SMOOTH",
"888 391 OFFCURVE",
"899 407 OFFCURVE",
"899 422 CURVE SMOOTH",
"899 452 OFFCURVE",
"891 468 OFFCURVE",
"863 468 CURVE SMOOTH",
"753 468 OFFCURVE",
"711 492 OFFCURVE",
"711 558 CURVE SMOOTH",
"712 1448 LINE",
"522 1448 LINE",
"438 1387 OFFCURVE",
"347 1351 OFFCURVE",
"240 1324 CURVE SMOOTH",
"213 1317 OFFCURVE",
"204 1304 OFFCURVE",
"204 1274 CURVE SMOOTH",
"204 1259 OFFCURVE",
"215 1243 OFFCURVE",
"238 1243 CURVE SMOOTH",
"281 1243 OFFCURVE",
"371 1244 OFFCURVE",
"425 1253 CURVE",
"424 552 LINE SMOOTH",
"424 488 OFFCURVE",
"379 482 OFFCURVE",
"269 468 CURVE",
"243 465 OFFCURVE",
"236 443 OFFCURVE",
"236 422 CURVE SMOOTH",
"236 407 OFFCURVE",
"247 391 OFFCURVE",
"270 391 CURVE SMOOTH {name = hr00;}"
);
}
);
width = 1130;
}
);
unicode = 00B9;
},
{
glyphname = twosuperior;
lastChange = "2018-05-14 03:36:29 +0000";
layers = (
{
layerId = "62CA62AF-CD91-478A-AB8B-28A62CC47DA0";
paths = (
{
closed = 1;
nodes = (
"1021 390 LINE",
"1029 614 LINE",
"506 614 LINE",
"729 743 OFFCURVE",
"978 929 OFFCURVE",
"978 1144 CURVE SMOOTH {name = hr02;}",
"978 1338 OFFCURVE",
"813 1449 OFFCURVE",
"544 1449 CURVE SMOOTH",
"369 1449 OFFCURVE",
"198 1356 OFFCURVE",
"148 1211 CURVE",
"91 1071 OFFCURVE",
"169 1005 OFFCURVE",
"246 1005 CURVE SMOOTH",
"302 1005 OFFCURVE",
"327 1021 OFFCURVE",
"341 1054 CURVE",
"355 1083 OFFCURVE",
"399 1245 OFFCURVE",
"413 1287 CURVE SMOOTH",
"426 1327 OFFCURVE",
"480 1372 OFFCURVE",
"532 1372 CURVE SMOOTH",
"645 1372 OFFCURVE",
"671 1235 OFFCURVE",
"671 1133 CURVE SMOOTH",
"671 862 OFFCURVE",
"434 661 OFFCURVE",
"180 480 CURVE",
"180 390 LINE {name = hr01;}"
);
}
);
width = 1130;
}
);
unicode = 00B2;
},
{
glyphname = threesuperior;
lastChange = "2018-05-14 03:36:34 +0000";
layers = (
{
layerId = "62CA62AF-CD91-478A-AB8B-28A62CC47DA0";
paths = (
{
closed = 1;
nodes = (
"142 496 OFFCURVE",
"326 389 OFFCURVE",
"529 389 CURVE SMOOTH",
"845 389 OFFCURVE",
"1009 530 OFFCURVE",
"1009 700 CURVE SMOOTH {name = hr02;}",
"1009 857 OFFCURVE",
"888 959 OFFCURVE",
"710 961 CURVE",
"844 980 OFFCURVE",
"954 1076 OFFCURVE",
"954 1213 CURVE SMOOTH {name = hr03;}",
"954 1358 OFFCURVE",
"827 1457 OFFCURVE",
"565 1457 CURVE SMOOTH",
"301 1457 OFFCURVE",
"165 1353 OFFCURVE",
"165 1231 CURVE SMOOTH",
"165 1141 OFFCURVE",
"342 1093 OFFCURVE",
"385 1189 CURVE SMOOTH",
"397 1215 OFFCURVE",
"409 1280 OFFCURVE",
"426 1322 CURVE",
"461 1376 OFFCURVE",
"497 1392 OFFCURVE",
"559 1392 CURVE SMOOTH",
"652 1392 OFFCURVE",
"668 1268 OFFCURVE",
"668 1201 CURVE SMOOTH",
"668 1056 OFFCURVE",
"579 989 OFFCURVE",
"487 989 CURVE SMOOTH",
"428 989 LINE",
"428 914 LINE",
"503 914 LINE SMOOTH",
"624 914 OFFCURVE",
"695 860 OFFCURVE",
"695 682 CURVE SMOOTH {name = hr04;}",
"695 548 OFFCURVE",
"649 453 OFFCURVE",
"521 453 CURVE SMOOTH",
"385 453 OFFCURVE",
"346 560 OFFCURVE",
"346 560 CURVE",
"377 722 LINE",
"369 744 OFFCURVE",
"340 770 OFFCURVE",
"271 770 CURVE SMOOTH",
"198 770 OFFCURVE",
"142 714 OFFCURVE",
"142 630 CURVE SMOOTH {name = hr01;}"
);
}
);
width = 1130;
}
);
unicode = 00B3;
},
{
glyphname = fraction;
layers = (
{
layerId = "62CA62AF-CD91-478A-AB8B-28A62CC47DA0";
paths = (
{
closed = 1;
nodes = (
"550 1419 LINE",
"403 1419 LINE",
"-354 0 LINE",
"-209 0 LINE {name = hr00;}"
);
}
);
width = 195;
}
);
unicode = 2044;
},
{
glyphname = onehalf;
layers = (
{
components = (
{
name = fraction;
transform = "{1, 0, 0, 1, 932, 0}";
}
);
layerId = "62CA62AF-CD91-478A-AB8B-28A62CC47DA0";
paths = (
{
closed = 1;
nodes = (
"2112 -100 LINE",
"2120 124 LINE",
"1597 124 LINE",
"1820 253 OFFCURVE",
"2069 439 OFFCURVE",
"2069 654 CURVE SMOOTH {name = hr02;}",
"2069 848 OFFCURVE",
"1904 959 OFFCURVE",
"1635 959 CURVE SMOOTH",
"1460 959 OFFCURVE",
"1289 866 OFFCURVE",
"1239 721 CURVE",
"1182 581 OFFCURVE",
"1260 515 OFFCURVE",
"1337 515 CURVE SMOOTH",
"1393 515 OFFCURVE",
"1418 531 OFFCURVE",
"1432 564 CURVE",
"1446 593 OFFCURVE",
"1490 755 OFFCURVE",
"1504 797 CURVE SMOOTH",
"1517 837 OFFCURVE",
"1571 882 OFFCURVE",
"1623 882 CURVE SMOOTH",
"1736 882 OFFCURVE",
"1762 745 OFFCURVE",
"1762 643 CURVE SMOOTH",
"1762 372 OFFCURVE",
"1525 171 OFFCURVE",
"1271 -10 CURVE",
"1271 -100 LINE {name = hr01;}"
);
},
{
closed = 1;
nodes = (
"700 473 LINE SMOOTH",
"723 473 OFFCURVE",
"734 489 OFFCURVE",
"734 504 CURVE SMOOTH",
"734 534 OFFCURVE",
"726 550 OFFCURVE",
"698 550 CURVE SMOOTH",
"588 550 OFFCURVE",
"546 574 OFFCURVE",
"546 640 CURVE SMOOTH",
"547 1530 LINE",
"357 1530 LINE",
"273 1469 OFFCURVE",
"182 1433 OFFCURVE",
"75 1406 CURVE SMOOTH",
"48 1399 OFFCURVE",
"39 1386 OFFCURVE",
"39 1356 CURVE SMOOTH",
"39 1341 OFFCURVE",
"50 1325 OFFCURVE",
"73 1325 CURVE SMOOTH",
"116 1325 OFFCURVE",
"206 1326 OFFCURVE",
"260 1335 CURVE",
"259 634 LINE SMOOTH",
"259 570 OFFCURVE",
"214 564 OFFCURVE",
"104 550 CURVE",
"78 547 OFFCURVE",
"71 525 OFFCURVE",
"71 504 CURVE SMOOTH",
"71 489 OFFCURVE",
"82 473 OFFCURVE",
"105 473 CURVE SMOOTH {name = hr03;}"
);
}
);
width = 2193;
}
);
unicode = 00BD;
},
{
glyphname = onequarter;
layers = (
{
components = (
{
name = fraction;
transform = "{1, 0, 0, 1, 932, 0}";
}
);
layerId = "62CA62AF-CD91-478A-AB8B-28A62CC47DA0";
paths = (
{
closed = 1;
nodes = (
"1103 0 LINE",
"1599 0 LINE",
"1599 -238 LINE",
"1853 -238 LINE",
"1853 0 LINE",
"2015 0 LINE",
"2023 132 LINE",
"1853 132 LINE",
"1853 350 LINE",
"1599 350 LINE",
"1599 132 LINE",
"1277 132 LINE",
"1754 749 LINE SMOOTH",
"1765 764 OFFCURVE",
"1796 890 OFFCURVE",
"1681 922 CURVE SMOOTH",
"1636 935 OFFCURVE",
"1565 928 OFFCURVE",
"1545 906 CURVE",
"1061 62 LINE"
);
},
{
closed = 1;
nodes = (
"700 473 LINE SMOOTH",
"723 473 OFFCURVE",
"734 489 OFFCURVE",
"734 504 CURVE SMOOTH",
"734 534 OFFCURVE",
"726 550 OFFCURVE",
"698 550 CURVE SMOOTH",
"588 550 OFFCURVE",
"546 574 OFFCURVE",
"546 640 CURVE SMOOTH",
"547 1530 LINE",
"357 1530 LINE",
"273 1469 OFFCURVE",
"182 1433 OFFCURVE",
"75 1406 CURVE SMOOTH",
"48 1399 OFFCURVE",
"39 1386 OFFCURVE",
"39 1356 CURVE SMOOTH",
"39 1341 OFFCURVE",
"50 1325 OFFCURVE",
"73 1325 CURVE SMOOTH",
"116 1325 OFFCURVE",
"206 1326 OFFCURVE",
"260 1335 CURVE",
"259 634 LINE SMOOTH",
"259 570 OFFCURVE",
"214 564 OFFCURVE",
"104 550 CURVE",
"78 547 OFFCURVE",
"71 525 OFFCURVE",
"71 504 CURVE SMOOTH",
"71 489 OFFCURVE",
"82 473 OFFCURVE",
"105 473 CURVE SMOOTH {name = hr01;}"
);
}
);
width = 2193;
}
);
unicode = 00BC;
},
{
glyphname = threequarters;
layers = (
{
components = (
{
name = fraction;
transform = "{1, 0, 0, 1, 932, 0}";
}
);
layerId = "62CA62AF-CD91-478A-AB8B-28A62CC47DA0";
paths = (
{
closed = 1;
nodes = (
"1103 0 LINE",
"1599 0 LINE",
"1599 -238 LINE",
"1853 -238 LINE",
"1853 0 LINE",
"2015 0 LINE",
"2023 132 LINE",
"1853 132 LINE",
"1853 350 LINE",
"1599 350 LINE",
"1599 132 LINE",
"1277 132 LINE",
"1754 749 LINE SMOOTH",
"1765 764 OFFCURVE",
"1796 890 OFFCURVE",
"1681 922 CURVE SMOOTH",
"1636 935 OFFCURVE",
"1565 928 OFFCURVE",
"1545 906 CURVE {name = hr02;}",
"1061 62 LINE"
);
},
{
closed = 1;
nodes = (
"2 673 OFFCURVE",
"186 566 OFFCURVE",
"389 566 CURVE SMOOTH",
"705 566 OFFCURVE",
"869 707 OFFCURVE",
"869 877 CURVE SMOOTH {name = hr03;}",
"869 1034 OFFCURVE",
"748 1136 OFFCURVE",
"570 1138 CURVE",
"704 1157 OFFCURVE",
"814 1253 OFFCURVE",
"814 1390 CURVE SMOOTH {name = hr04;}",
"814 1535 OFFCURVE",
"687 1634 OFFCURVE",
"425 1634 CURVE SMOOTH",
"161 1634 OFFCURVE",
"25 1530 OFFCURVE",
"25 1408 CURVE SMOOTH",
"25 1318 OFFCURVE",
"202 1270 OFFCURVE",
"245 1366 CURVE SMOOTH",
"257 1392 OFFCURVE",
"269 1457 OFFCURVE",
"286 1499 CURVE",
"321 1553 OFFCURVE",
"357 1569 OFFCURVE",
"419 1569 CURVE SMOOTH",
"512 1569 OFFCURVE",
"528 1445 OFFCURVE",
"528 1378 CURVE SMOOTH",
"528 1233 OFFCURVE",
"439 1166 OFFCURVE",
"347 1166 CURVE SMOOTH",
"288 1166 LINE",
"288 1091 LINE",
"363 1091 LINE SMOOTH",
"484 1091 OFFCURVE",
"555 1037 OFFCURVE",
"555 859 CURVE SMOOTH {name = hr05;}",
"555 725 OFFCURVE",
"509 630 OFFCURVE",
"381 630 CURVE SMOOTH",
"245 630 OFFCURVE",
"206 737 OFFCURVE",
"206 737 CURVE",
"237 899 LINE",
"229 921 OFFCURVE",
"200 947 OFFCURVE",
"131 947 CURVE SMOOTH",
"58 947 OFFCURVE",
"2 891 OFFCURVE",
"2 807 CURVE SMOOTH {name = hr01;}"
);
}
);
width = 2193;
}
);
unicode = 00BE;
},
{
glyphname = period;
layers = (
{
layerId = "62CA62AF-CD91-478A-AB8B-28A62CC47DA0";
paths = (
{
closed = 1;
nodes = (
"139 72 OFFCURVE",
"223 -20 OFFCURVE",
"332 -20 CURVE SMOOTH",
"441 -20 OFFCURVE",
"527 72 OFFCURVE",
"527 176 CURVE SMOOTH",
"527 279 OFFCURVE",
"441 362 OFFCURVE",
"332 362 CURVE SMOOTH",
"223 362 OFFCURVE",
"139 279 OFFCURVE",
"139 176 CURVE SMOOTH {name = hr00;}"
);
}
);
width = 672;
}
);
unicode = 002E;
},
{
glyphname = comma;
layers = (
{
layerId = "62CA62AF-CD91-478A-AB8B-28A62CC47DA0";
paths = (
{
closed = 1;
nodes = (
"147 48 OFFCURVE",
"247 -16 OFFCURVE",
"319 -16 CURVE",
"319 -137 OFFCURVE",
"250 -265 OFFCURVE",
"212 -301 CURVE SMOOTH",
"148 -362 OFFCURVE",
"236 -394 OFFCURVE",
"270 -372 CURVE SMOOTH",
"375 -304 OFFCURVE",
"527 -117 OFFCURVE",
"527 95 CURVE SMOOTH",
"527 261 OFFCURVE",
"449 340 OFFCURVE",
"347 340 CURVE SMOOTH",
"238 340 OFFCURVE",
"147 287 OFFCURVE",
"147 159 CURVE SMOOTH {name = hr00;}"
);
}
);
width = 672;
}
);
unicode = 002C;
},
{
glyphname = exclam;
layers = (
{
layerId = "62CA62AF-CD91-478A-AB8B-28A62CC47DA0";
paths = (
{
closed = 1;
nodes = (
"440 512 LINE",
"471 1063 OFFCURVE",
"608 1129 OFFCURVE",
"608 1293 CURVE SMOOTH",
"608 1426 OFFCURVE",
"509 1530 OFFCURVE",
"385 1530 CURVE SMOOTH",
"259 1530 OFFCURVE",
"162 1426 OFFCURVE",
"162 1293 CURVE SMOOTH",
"162 1129 OFFCURVE",
"281 1063 OFFCURVE",
"328 512 CURVE {name = hr00;}"
);
},
{
closed = 1;
nodes = (
"191 72 OFFCURVE",
"275 -20 OFFCURVE",
"384 -20 CURVE SMOOTH",
"493 -20 OFFCURVE",
"579 72 OFFCURVE",
"579 176 CURVE SMOOTH",
"579 279 OFFCURVE",
"493 362 OFFCURVE",
"384 362 CURVE SMOOTH",
"275 362 OFFCURVE",
"191 279 OFFCURVE",
"191 176 CURVE SMOOTH"
);
}
);
width = 770;
}
);
unicode = 0021;
},
{
glyphname = question;
layers = (
{
layerId = "62CA62AF-CD91-478A-AB8B-28A62CC47DA0";
paths = (
{
closed = 1;
nodes = (
"602 467 LINE",
"602 532 LINE",
"604 792 OFFCURVE",
"1040 830 OFFCURVE",
"1041 1160 CURVE SMOOTH",
"1042 1371 OFFCURVE",
"871 1528 OFFCURVE",
"537 1528 CURVE SMOOTH",
"309 1528 OFFCURVE",
"122 1402 OFFCURVE",
"75 1284 CURVE",
"19 1135 OFFCURVE",
"119 1049 OFFCURVE",
"174 1049 CURVE SMOOTH",
"247 1049 OFFCURVE",
"286 1057 OFFCURVE",
"298 1087 CURVE",
"319 1367 LINE",
"319 1367 OFFCURVE",
"381 1443 OFFCURVE",
"509 1443 CURVE SMOOTH",
"699 1443 OFFCURVE",
"733 1262 OFFCURVE",
"734 1137 CURVE SMOOTH",
"737 832 OFFCURVE",
"441 866 OFFCURVE",
"440 542 CURVE SMOOTH",
"440 467 LINE {name = hr00;}"
);
},
{
closed = 1;
nodes = (
"323 72 OFFCURVE",
"407 -20 OFFCURVE",
"516 -20 CURVE SMOOTH",
"625 -20 OFFCURVE",
"711 72 OFFCURVE",
"711 176 CURVE SMOOTH",
"711 279 OFFCURVE",
"625 362 OFFCURVE",
"516 362 CURVE SMOOTH",
"407 362 OFFCURVE",
"323 279 OFFCURVE",
"323 176 CURVE SMOOTH"
);
}
);
width = 1122;
}
);
unicode = 003F;
},
{
glyphname = periodcentered;
layers = (
{
layerId = "62CA62AF-CD91-478A-AB8B-28A62CC47DA0";
paths = (
{
closed = 1;
nodes = (
"620 375 OFFCURVE",
"706 467 OFFCURVE",
"706 571 CURVE SMOOTH",
"706 674 OFFCURVE",
"620 757 OFFCURVE",
"511 757 CURVE SMOOTH",
"402 757 OFFCURVE",
"318 674 OFFCURVE",
"318 571 CURVE SMOOTH",
"318 467 OFFCURVE",
"402 375 OFFCURVE",
"511 375 CURVE SMOOTH {name = hr00;}"
);
}
);
width = 1024;
}
);
unicode = 00B7;
},
{
glyphname = bullet;
layers = (
{
layerId = "62CA62AF-CD91-478A-AB8B-28A62CC47DA0";
paths = (
{
closed = 1;
nodes = (
"631 246 OFFCURVE",
"764 373 OFFCURVE",
"764 573 CURVE SMOOTH",
"764 773 OFFCURVE",
"631 900 OFFCURVE",
"447 900 CURVE SMOOTH",
"263 900 OFFCURVE",
"131 773 OFFCURVE",
"131 573 CURVE SMOOTH",
"131 403 OFFCURVE",
"263 246 OFFCURVE",
"447 246 CURVE SMOOTH {name = hr00;}"
);
}
);
width = 895;
}
);
unicode = 2022;
},
{
glyphname = asterisk;
layers = (
{
layerId = "62CA62AF-CD91-478A-AB8B-28A62CC47DA0";
paths = (
{
closed = 1;
nodes = (
"303 548 OFFCURVE",
"344 572 OFFCURVE",
"372 612 CURVE SMOOTH",
"395 645 OFFCURVE",
"466 863 OFFCURVE",
"494 928 CURVE",
"522 866 OFFCURVE",
"594 643 OFFCURVE",
"616 612 CURVE SMOOTH",
"643 574 OFFCURVE",
"685 549 OFFCURVE",
"726 549 CURVE SMOOTH",
"789 549 OFFCURVE",
"838 603 OFFCURVE",
"838 662 CURVE SMOOTH",
"838 776 OFFCURVE",
"645 892 OFFCURVE",
"561 976 CURVE",
"629 986 OFFCURVE",
"824 978 OFFCURVE",
"876 993 CURVE SMOOTH",
"934 1010 OFFCURVE",
"975 1051 OFFCURVE",
"975 1105 CURVE SMOOTH",
"975 1184 OFFCURVE",
"916 1225 OFFCURVE",
"858 1225 CURVE SMOOTH",
"815 1225 OFFCURVE",
"805 1220 OFFCURVE",
"673 1137 CURVE SMOOTH {name = hr02;}",
"621 1104 OFFCURVE",
"570 1072 OFFCURVE",
"536 1054 CURVE",
"565 1205 OFFCURVE",
"617 1305 OFFCURVE",
"617 1385 CURVE SMOOTH",
"617 1462 OFFCURVE",
"571 1521 OFFCURVE",
"495 1521 CURVE SMOOTH",
"417 1521 OFFCURVE",
"373 1462 OFFCURVE",
"373 1385 CURVE SMOOTH",
"373 1319 OFFCURVE",
"428 1205 OFFCURVE",
"452 1054 CURVE",
"384 1088 OFFCURVE",
"224 1199 OFFCURVE",
"182 1216 CURVE SMOOTH",
"164 1223 OFFCURVE",
"147 1225 OFFCURVE",
"130 1225 CURVE SMOOTH",
"72 1225 OFFCURVE",
"12 1184 OFFCURVE",
"12 1108 CURVE SMOOTH",
"12 1052 OFFCURVE",
"54 1011 OFFCURVE",
"110 993 CURVE SMOOTH",
"154 978 OFFCURVE",
"363 985 OFFCURVE",
"428 976 CURVE",
"400 948 OFFCURVE",
"352 906 OFFCURVE",
"307 866 CURVE SMOOTH",
"250 815 OFFCURVE",
"192 764 OFFCURVE",
"180 748 CURVE SMOOTH",
"162 723 OFFCURVE",
"150 691 OFFCURVE",
"150 662 CURVE SMOOTH",
"150 597 OFFCURVE",
"204 548 OFFCURVE",
"263 548 CURVE SMOOTH {name = hr01;}"
);
}
);
width = 987;
}
);
unicode = 002A;
},
{
glyphname = numbersign;
layers = (
{
layerId = "62CA62AF-CD91-478A-AB8B-28A62CC47DA0";
paths = (
{
closed = 1;
nodes = (
"440 0 LINE",
"516 400 LINE",
"807 400 LINE",
"732 0 LINE",
"877 0 LINE",
"953 400 LINE",
"1210 400 LINE",
"1210 526 LINE",
"977 526 LINE",
"1048 900 LINE",
"1280 900 LINE",
"1280 1026 LINE",
"1072 1026 LINE",
"1146 1419 LINE",
"999 1419 LINE",
"925 1026 LINE",
"635 1026 LINE",
"709 1419 LINE",
"562 1419 LINE",
"488 1026 LINE",
"210 1026 LINE",
"210 900 LINE",
"464 900 LINE",
"394 526 LINE",
"160 526 LINE",
"160 400 LINE",
"370 400 LINE",
"295 0 LINE {name = hr00;}"
);
},
{
closed = 1;
nodes = (
"611 900 LINE",
"901 900 LINE",
"831 526 LINE",
"540 526 LINE"
);
}
);
width = 1440;
}
);
unicode = 0023;
},
{
glyphname = slash;
layers = (
{
layerId = "62CA62AF-CD91-478A-AB8B-28A62CC47DA0";
paths = (
{
closed = 1;
nodes = (
"270 -340 LINE",
"849 1700 LINE",
"692 1700 LINE",
"115 -340 LINE {name = hr00;}"
);
}
);
width = 967;
}
);
unicode = 002F;
},
{
glyphname = parenleft;
layers = (
{
layerId = "62CA62AF-CD91-478A-AB8B-28A62CC47DA0";
paths = (
{
closed = 1;
nodes = (
"115 -115 OFFCURVE",
"561 -340 OFFCURVE",
"828 -340 CURVE",
"828 -237 LINE",
"723 -237 OFFCURVE",
"450 -164 OFFCURVE",
"450 596 CURVE SMOOTH",
"450 1356 OFFCURVE",
"723 1429 OFFCURVE",
"828 1429 CURVE",
"828 1532 LINE",
"561 1532 OFFCURVE",
"115 1307 OFFCURVE",
"115 596 CURVE SMOOTH {name = hr00;}"
);
}
);
width = 915;
}
);
unicode = 0028;
},
{
glyphname = braceleft;
layers = (
{
layerId = "62CA62AF-CD91-478A-AB8B-28A62CC47DA0";
paths = (
{
closed = 1;
nodes = (
"361 -251 OFFCURVE",
"598 -328 OFFCURVE",
"778 -328 CURVE SMOOTH",
"951 -328 LINE",
"951 -221 LINE",
"838 -221 LINE SMOOTH",
"730 -221 OFFCURVE",
"692 -128 OFFCURVE",
"692 -52 CURVE SMOOTH",
"692 325 LINE SMOOTH",
"692 488 OFFCURVE",
"524 579 OFFCURVE",
"340 587 CURVE",
"340 618 LINE {name = hr02;}",
"520 628 OFFCURVE",
"692 723 OFFCURVE",
"692 883 CURVE SMOOTH {name = hr03;}",
"692 1260 LINE SMOOTH",
"692 1336 OFFCURVE",
"728 1429 OFFCURVE",
"838 1429 CURVE SMOOTH",
"951 1429 LINE",
"951 1536 LINE",
"778 1536 LINE SMOOTH",
"598 1536 OFFCURVE",
"361 1459 OFFCURVE",
"361 1237 CURVE SMOOTH",
"361 850 LINE SMOOTH",
"361 741 OFFCURVE",
"247 654 OFFCURVE",
"142 654 CURVE SMOOTH",
"122 654 LINE {name = hr04;}",
"122 554 LINE",
"142 554 LINE SMOOTH",
"247 554 OFFCURVE",
"361 467 OFFCURVE",
"361 358 CURVE SMOOTH {name = hr05;}",
"361 -29 LINE SMOOTH {name = hr01;}"
);
}
);
width = 1024;
}
);
unicode = 007B;
},
{
glyphname = bracketleft;
layers = (
{
layerId = "62CA62AF-CD91-478A-AB8B-28A62CC47DA0";
paths = (
{
closed = 1;
nodes = (
"753 -328 LINE",
"753 -211 LINE",
"504 -211 LINE",
"504 1419 LINE",
"753 1419 LINE",
"753 1536 LINE",
"186 1535 LINE",
"186 -327 LINE {name = hr00;}"
);
}
);
width = 915;
}
);
unicode = 005B;
},
{
glyphname = hyphen;
layers = (
{
layerId = "62CA62AF-CD91-478A-AB8B-28A62CC47DA0";
paths = (
{
closed = 1;
nodes = (
"701 476 LINE",
"701 622 LINE",
"75 622 LINE",
"75 476 LINE {name = hr00;}"
);
}
);
width = 776;
}
);
unicode = 002D;
},
{
glyphname = softhyphen;
lastChange = "2018-05-14 03:37:56 +0000";
layers = (
{
layerId = "62CA62AF-CD91-478A-AB8B-28A62CC47DA0";
paths = (
{
closed = 1;
nodes = (
"701 476 LINE",
"701 622 LINE",
"75 622 LINE",
"75 476 LINE {name = hr00;}"
);
}
);
width = 776;
}
);
unicode = 00AD;
},
{
glyphname = endash;
layers = (
{
layerId = "62CA62AF-CD91-478A-AB8B-28A62CC47DA0";
paths = (
{
closed = 1;
nodes = (
"1344 476 LINE",
"1344 622 LINE",
"96 622 LINE",
"96 476 LINE {name = hr00;}"
);
}
);
width = 1440;
}
);
unicode = 2013;
},
{
glyphname = emdash;
layers = (
{
layerId = "62CA62AF-CD91-478A-AB8B-28A62CC47DA0";
paths = (
{
closed = 1;
nodes = (
"1805 476 LINE",
"1805 622 LINE",
"96 622 LINE",
"96 476 LINE {name = hr00;}"
);
}
);
width = 1901;
}
);
unicode = 2014;
},
{
glyphname = underscore;
layers = (
{
layerId = "62CA62AF-CD91-478A-AB8B-28A62CC47DA0";
paths = (
{
closed = 1;
nodes = (
"-25 -296 LINE",
"1465 -296 LINE",
"1465 -190 LINE",
"-25 -190 LINE {name = hr00;}"
);
}
);
width = 1440;
}
);
unicode = 005F;
},
{
glyphname = quoteright;
layers = (
{
layerId = "62CA62AF-CD91-478A-AB8B-28A62CC47DA0";
paths = (
{
closed = 1;
nodes = (
"300 984 OFFCURVE",
"487 1240 OFFCURVE",
"487 1446 CURVE SMOOTH",
"487 1624 OFFCURVE",
"380 1671 OFFCURVE",
"297 1671 CURVE SMOOTH",
"202 1671 OFFCURVE",
"126 1600 OFFCURVE",
"126 1508 CURVE SMOOTH",
"126 1369 OFFCURVE",
"267 1351 OFFCURVE",
"270 1337 CURVE SMOOTH",
"281 1285 OFFCURVE",
"251 1114 OFFCURVE",
"147 1002 CURVE",
"109 938 OFFCURVE",
"178 908 OFFCURVE",
"225 931 CURVE {name = hr00;}"
);
}
);
width = 550;
}
);
unicode = 2019;
},
{
glyphname = guilsinglleft;
layers = (
{
layerId = "62CA62AF-CD91-478A-AB8B-28A62CC47DA0";
paths = (
{
closed = 1;
nodes = (
"660 70 LINE",
"660 234 LINE",
"405 554 LINE",
"660 875 LINE",
"660 1041 LINE",
"147 614 LINE",
"147 495 LINE {name = hr00;}"
);
}
);
width = 811;
}
);
unicode = 2039;
},
{
glyphname = quotesingle;
layers = (
{
layerId = "62CA62AF-CD91-478A-AB8B-28A62CC47DA0";
paths = (
{
closed = 1;
nodes = (
"318 928 LINE",
"344 1304 OFFCURVE",
"403 1415 OFFCURVE",
"403 1512 CURVE SMOOTH",
"403 1590 OFFCURVE",
"386 1671 OFFCURVE",
"270 1671 CURVE SMOOTH",
"154 1671 OFFCURVE",
"137 1590 OFFCURVE",
"137 1512 CURVE SMOOTH",
"137 1415 OFFCURVE",
"196 1304 OFFCURVE",
"222 928 CURVE {name = hr00;}"
);
}
);
width = 551;
}
);
unicode = 0027;
},
{
glyphname = .notdef;
layers = (
{
layerId = "62CA62AF-CD91-478A-AB8B-28A62CC47DA0";
paths = (
{
closed = 1;
nodes = (
"1802 0 LINE",
"1802 1547 LINE",
"246 1547 LINE",
"246 0 LINE {name = hr00;}"
);
},
{
closed = 1;
nodes = (
"352 1457 LINE",
"1696 1457 LINE",
"1696 90 LINE",
"352 90 LINE"
);
},
{
closed = 1;
nodes = (
"663 312 LINE",
"1024 678 LINE",
"1385 312 LINE",
"1477 397 LINE",
"1112 767 LINE",
"1477 1138 LINE",
"1385 1224 LINE",
"1024 857 LINE",
"663 1224 LINE",
"571 1138 LINE",
"936 767 LINE",
"571 397 LINE"
);
}
);
width = 2048;
}
);
},
{
glyphname = cent;
layers = (
{
layerId = "62CA62AF-CD91-478A-AB8B-28A62CC47DA0";
paths = (
{
closed = 1;
nodes = (
"139 199 OFFCURVE",
"289 1 OFFCURVE",
"645 -25 CURVE",
"645 -228 LINE",
"761 -228 LINE",
"761 -27 LINE",
"882 -16 OFFCURVE",
"1038 61 OFFCURVE",
"1096 173 CURVE SMOOTH",
"1104 188 OFFCURVE",
"1105 196 OFFCURVE",
"1092 202 CURVE SMOOTH",
"1048 223 LINE",
"1035 226 OFFCURVE",
"1028 215 OFFCURVE",
"1022 208 CURVE SMOOTH",
"962 141 OFFCURVE",
"873 105 OFFCURVE",
"758 105 CURVE SMOOTH",
"631 105 OFFCURVE",
"484 224 OFFCURVE",
"484 490 CURVE SMOOTH",
"484 825 OFFCURVE",
"582 929 OFFCURVE",
"693 929 CURVE SMOOTH",
"771 929 OFFCURVE",
"763 912 OFFCURVE",
"763 912 CURVE",
"880 670 LINE SMOOTH",
"891 646 OFFCURVE",
"931 613 OFFCURVE",
"977 613 CURVE SMOOTH",
"1032 613 OFFCURVE",
"1151 670 OFFCURVE",
"1099 824 CURVE SMOOTH",
"1054 955 OFFCURVE",
"948 1008 OFFCURVE",
"763 1013 CURVE",
"763 1225 LINE",
"647 1225 LINE",
"647 1009 LINE {name = hr02;}",
"364 980 OFFCURVE",
"139 804 OFFCURVE",
"139 500 CURVE SMOOTH {name = hr01;}"
);
}
);
width = 1239;
}
);
unicode = 00A2;
},
{
glyphname = currency;
layers = (
{
layerId = "62CA62AF-CD91-478A-AB8B-28A62CC47DA0";
paths = (
{
closed = 1;
nodes = (
"360 97 LINE",
"522 261 LINE",
"579 229 OFFCURVE",
"646 211 OFFCURVE",
"719 211 CURVE SMOOTH",
"792 211 OFFCURVE",
"860 230 OFFCURVE",
"918 262 CURVE",
"1080 97 LINE",
"1205 213 LINE",
"1044 377 LINE",
"1082 434 OFFCURVE",
"1105 502 OFFCURVE",
"1105 575 CURVE SMOOTH",
"1105 648 OFFCURVE",
"1083 716 OFFCURVE",
"1045 773 CURVE",
"1205 936 LINE",
"1080 1053 LINE",
"918 889 LINE",
"862 920 OFFCURVE",
"795 939 OFFCURVE",
"723 939 CURVE SMOOTH",
"649 939 OFFCURVE",
"581 920 OFFCURVE",
"523 887 CURVE",
"360 1053 LINE",
"235 936 LINE",
"396 772 LINE",
"357 715 OFFCURVE",
"335 647 OFFCURVE",
"335 575 CURVE SMOOTH",
"335 502 OFFCURVE",
"357 434 OFFCURVE",
"396 377 CURVE",
"235 213 LINE {name = hr00;}"
);
},
{
closed = 1;
nodes = (
"527 717 OFFCURVE",
"615 786 OFFCURVE",
"718 786 CURVE SMOOTH",
"820 786 OFFCURVE",
"912 717 OFFCURVE",
"912 575 CURVE SMOOTH",
"912 433 OFFCURVE",
"823 364 OFFCURVE",
"721 364 CURVE SMOOTH",
"618 364 OFFCURVE",
"527 433 OFFCURVE",
"527 575 CURVE SMOOTH"
);
}
);
width = 1440;
}
);
unicode = 00A4;
},
{
glyphname = dollar;
layers = (
{
layerId = "62CA62AF-CD91-478A-AB8B-28A62CC47DA0";
paths = (
{
closed = 1;
nodes = (
"126 1 OFFCURVE",
"203 -21 OFFCURVE",
"261 41 CURVE SMOOTH",
"299 80 OFFCURVE",
"312 55 OFFCURVE",
"368 36 CURVE SMOOTH",
"404 23 OFFCURVE",
"495 -10 OFFCURVE",
"596 -24 CURVE",
"596 -238 LINE",
"712 -238 LINE",
"712 -29 LINE {name = hr02;}",
"1054 -22 OFFCURVE",
"1261 113 OFFCURVE",
"1261 346 CURVE SMOOTH",
"1261 550 OFFCURVE",
"1049 686 OFFCURVE",
"833 790 CURVE SMOOTH",
"655 875 OFFCURVE",
"465 951 OFFCURVE",
"465 1114 CURVE SMOOTH",
"465 1237 OFFCURVE",
"556 1274 OFFCURVE",
"720 1274 CURVE SMOOTH",
"841 1274 OFFCURVE",
"999 1211 OFFCURVE",
"1052 980 CURVE SMOOTH",
"1058 953 OFFCURVE",
"1181 935 OFFCURVE",
"1167 1026 CURVE",
"1153 1129 OFFCURVE",
"1142 1277 OFFCURVE",
"1142 1301 CURVE SMOOTH",
"1142 1326 OFFCURVE",
"1071 1347 OFFCURVE",
"1041 1330 CURVE SMOOTH",
"1018 1316 OFFCURVE",
"1021 1295 OFFCURVE",
"966 1304 CURVE SMOOTH",
"933 1309 OFFCURVE",
"830 1346 OFFCURVE",
"711 1350 CURVE",
"711 1548 LINE",
"595 1548 LINE",
"595 1346 LINE",
"352 1324 OFFCURVE",
"160 1210 OFFCURVE",
"160 997 CURVE SMOOTH",
"160 774 OFFCURVE",
"365 652 OFFCURVE",
"542 560 CURVE SMOOTH",
"739 458 OFFCURVE",
"944 390 OFFCURVE",
"944 222 CURVE SMOOTH",
"944 82 OFFCURVE",
"806 55 OFFCURVE",
"666 55 CURVE SMOOTH",
"556 55 OFFCURVE",
"381 130 OFFCURVE",
"305 273 CURVE",
"251 380 OFFCURVE",
"238 413 OFFCURVE",
"231 445 CURVE SMOOTH",
"219 501 OFFCURVE",
"101 499 OFFCURVE",
"111 426 CURVE",
"120 351 OFFCURVE",
"138 180 OFFCURVE",
"129 48 CURVE SMOOTH {name = hr01;}"
);
}
);
width = 1313;
}
);
unicode = 0024;
},
{
glyphname = euro;
lastChange = "2018-05-14 03:31:08 +0000";
layers = (
{
layerId = "62CA62AF-CD91-478A-AB8B-28A62CC47DA0";
paths = (
{
closed = 1;
nodes = (
"205 502 LINE",
"282 101 OFFCURVE",
"592 -30 OFFCURVE",
"884 -30 CURVE SMOOTH",
"1161 -30 OFFCURVE",
"1351 80 OFFCURVE",
"1355 108 CURVE",
"1388 463 LINE",
"1388 486 OFFCURVE",
"1343 497 OFFCURVE",
"1327 497 CURVE SMOOTH",
"1305 497 OFFCURVE",
"1292 490 OFFCURVE",
"1290 464 CURVE",
"1239 264 OFFCURVE",
"1169 65 OFFCURVE",
"903 65 CURVE SMOOTH",
"799 65 OFFCURVE",
"606 130 OFFCURVE",
"555 502 CURVE",
"953 502 LINE",
"967 508 OFFCURVE",
"977 550 OFFCURVE",
"977 575 CURVE SMOOTH",
"977 591 OFFCURVE",
"969 608 OFFCURVE",
"953 609 CURVE",
"545 609 LINE",
"543 639 OFFCURVE",
"542 672 OFFCURVE",
"542 706 CURVE SMOOTH",
"542 746 OFFCURVE",
"543 784 OFFCURVE",
"544 820 CURVE",
"973 820 LINE",
"987 826 OFFCURVE",
"997 868 OFFCURVE",
"997 893 CURVE SMOOTH",
"997 909 OFFCURVE",
"989 926 OFFCURVE",
"973 927 CURVE",
"553 927 LINE",
"595 1306 OFFCURVE",
"751 1354 OFFCURVE",
"886 1354 CURVE SMOOTH",
"1134 1354 OFFCURVE",
"1241 1200 OFFCURVE",
"1287 1031 CURVE",
"1292 1005 OFFCURVE",
"1316 1000 OFFCURVE",
"1338 1002 CURVE SMOOTH",
"1354 1004 OFFCURVE",
"1386 1018 OFFCURVE",
"1385 1041 CURVE",
"1361 1362 LINE",
"1286 1393 OFFCURVE",
"1160 1450 OFFCURVE",
"883 1450 CURVE SMOOTH",
"603 1450 OFFCURVE",
"298 1295 OFFCURVE",
"211 927 CURVE",
"55 927 LINE",
"41 921 OFFCURVE",
"31 899 OFFCURVE",
"31 874 CURVE SMOOTH",
"31 858 OFFCURVE",
"39 821 OFFCURVE",
"55 820 CURVE",
"193 820 LINE",
"189 784 OFFCURVE",
"187 745 OFFCURVE",
"187 706 CURVE SMOOTH",
"187 672 OFFCURVE",
"188 640 OFFCURVE",
"191 609 CURVE",
"35 609 LINE",
"21 603 OFFCURVE",
"11 581 OFFCURVE",
"11 556 CURVE SMOOTH",
"11 540 OFFCURVE",
"19 503 OFFCURVE",
"35 502 CURVE {name = hr00;}"
);
}
);
width = 1464;
}
);
unicode = 20AC;
},
{
glyphname = florin;
layers = (
{
layerId = "62CA62AF-CD91-478A-AB8B-28A62CC47DA0";
paths = (
{
closed = 1;
nodes = (
"-71 -146 OFFCURVE",
"-136 -224 OFFCURVE",
"-127 -308 CURVE SMOOTH",
"-118 -400 OFFCURVE",
"-25 -448 OFFCURVE",
"101 -448 CURVE SMOOTH",
"441 -448 OFFCURVE",
"581 -224 OFFCURVE",
"620 30 CURVE SMOOTH",
"696 522 LINE",
"929 522 LINE",
"943 528 OFFCURVE",
"953 570 OFFCURVE",
"953 595 CURVE SMOOTH",
"953 611 OFFCURVE",
"945 628 OFFCURVE",
"929 629 CURVE",
"712 629 LINE",
"747 851 LINE SMOOTH",
"787 1112 OFFCURVE",
"816 1199 OFFCURVE",
"877 1199 CURVE SMOOTH",
"889 1199 LINE",
"1110 960 LINE",
"1110 957 OFFCURVE",
"1121 956 OFFCURVE",
"1121 956 CURVE",
"1189 955 OFFCURVE",
"1244 1053 OFFCURVE",
"1235 1147 CURVE SMOOTH",
"1226 1239 OFFCURVE",
"1102 1317 OFFCURVE",
"970 1317 CURVE SMOOTH",
"616 1317 OFFCURVE",
"470 1073 OFFCURVE",
"431 819 CURVE SMOOTH",
"401 629 LINE",
"382 629 LINE",
"228 612 LINE",
"214 606 OFFCURVE",
"203 591 OFFCURVE",
"203 566 CURVE SMOOTH",
"203 550 OFFCURVE",
"211 523 OFFCURVE",
"227 522 CURVE",
"385 522 LINE",
"304 -2 LINE SMOOTH",
"274 -194 OFFCURVE",
"230 -392 OFFCURVE",
"168 -325 CURVE SMOOTH",
"8 -151 LINE {name = hr02;}",
"8 -148 OFFCURVE",
"-3 -147 OFFCURVE",
"-3 -147 CURVE {name = hr01;}"
);
}
);
width = 1186;
}
);
unicode = 0192;
},
{
glyphname = sterling;
layers = (
{
layerId = "62CA62AF-CD91-478A-AB8B-28A62CC47DA0";
paths = (
{
closed = 1;
nodes = (
"75 31 OFFCURVE",
"128 0 OFFCURVE",
"182 0 CURVE SMOOTH",
"308 0 OFFCURVE",
"344 46 OFFCURVE",
"406 88 CURVE",
"499 78 OFFCURVE",
"597 -16 OFFCURVE",
"840 -16 CURVE SMOOTH {name = hr02;}",
"1144 -16 OFFCURVE",
"1365 115 OFFCURVE",
"1351 340 CURVE SMOOTH",
"1345 440 OFFCURVE",
"1272 507 OFFCURVE",
"1177 510 CURVE SMOOTH",
"1086 512 OFFCURVE",
"1025 439 OFFCURVE",
"1024 418 CURVE",
"1102 216 LINE",
"1068 144 OFFCURVE",
"967 101 OFFCURVE",
"795 108 CURVE",
"664 115 OFFCURVE",
"619 139 OFFCURVE",
"525 181 CURVE",
"602 262 OFFCURVE",
"648 406 OFFCURVE",
"644 603 CURVE SMOOTH",
"642 690 LINE",
"955 690 LINE",
"969 696 OFFCURVE",
"979 738 OFFCURVE",
"979 763 CURVE SMOOTH",
"979 779 OFFCURVE",
"971 796 OFFCURVE",
"955 797 CURVE",
"640 797 LINE {name = hr03;}",
"639 873 LINE SMOOTH",
"632 1233 OFFCURVE",
"703 1357 OFFCURVE",
"827 1357 CURVE SMOOTH",
"836 1357 OFFCURVE",
"845 1356 OFFCURVE",
"854 1356 CURVE",
"1003 1100 LINE SMOOTH",
"1079 969 OFFCURVE",
"1256 1013 OFFCURVE",
"1256 1190 CURVE SMOOTH",
"1256 1259 OFFCURVE",
"1152 1448 OFFCURVE",
"861 1448 CURVE SMOOTH",
"443 1448 OFFCURVE",
"320 1208 OFFCURVE",
"320 871 CURVE SMOOTH",
"320 797 LINE",
"182 797 LINE",
"168 791 OFFCURVE",
"158 769 OFFCURVE",
"158 744 CURVE SMOOTH",
"158 728 OFFCURVE",
"166 691 OFFCURVE",
"182 690 CURVE",
"320 690 LINE {name = hr04;}",
"320 493 LINE SMOOTH",
"320 366 OFFCURVE",
"306 248 OFFCURVE",
"287 236 CURVE",
"160 229 OFFCURVE",
"75 166 OFFCURVE",
"75 91 CURVE SMOOTH {name = hr01;}"
);
}
);
width = 1413;
}
);
unicode = 00A3;
},
{
glyphname = yen;
layers = (
{
layerId = "62CA62AF-CD91-478A-AB8B-28A62CC47DA0";
paths = (
{
closed = 1;
nodes = (
"381 36 OFFCURVE",
"392 0 OFFCURVE",
"415 0 CURVE SMOOTH",
"1120 0 LINE SMOOTH",
"1142 0 OFFCURVE",
"1154 36 OFFCURVE",
"1154 51 CURVE SMOOTH",
"1154 81 OFFCURVE",
"1136 85 OFFCURVE",
"1108 88 CURVE",
"1041 93 OFFCURVE",
"926 79 OFFCURVE",
"926 165 CURVE SMOOTH",
"926 347 LINE",
"1321 347 LINE",
"1335 353 OFFCURVE",
"1345 395 OFFCURVE",
"1345 420 CURVE SMOOTH",
"1345 436 OFFCURVE",
"1337 453 OFFCURVE",
"1321 454 CURVE",
"926 454 LINE",
"926 587 LINE",
"1321 587 LINE",
"1335 593 OFFCURVE",
"1345 635 OFFCURVE",
"1345 660 CURVE SMOOTH",
"1345 676 OFFCURVE",
"1337 693 OFFCURVE",
"1321 694 CURVE",
"932 694 LINE",
"1331 1254 LINE",
"1374 1336 OFFCURVE",
"1432 1336 OFFCURVE",
"1482 1341 CURVE SMOOTH",
"1510 1344 OFFCURVE",
"1518 1348 OFFCURVE",
"1518 1378 CURVE SMOOTH",
"1518 1393 OFFCURVE",
"1506 1419 OFFCURVE",
"1484 1419 CURVE SMOOTH",
"1069 1419 LINE SMOOTH",
"1046 1419 OFFCURVE",
"1035 1393 OFFCURVE",
"1035 1378 CURVE SMOOTH",
"1035 1357 OFFCURVE",
"1042 1344 OFFCURVE",
"1068 1341 CURVE",
"1158 1336 OFFCURVE",
"1241 1331 OFFCURVE",
"1216 1287 CURVE",
"853 768 LINE",
"533 1287 LINE",
"508 1332 OFFCURVE",
"581 1336 OFFCURVE",
"671 1341 CURVE",
"697 1344 OFFCURVE",
"704 1357 OFFCURVE",
"704 1378 CURVE SMOOTH",
"704 1393 OFFCURVE",
"693 1419 OFFCURVE",
"670 1419 CURVE SMOOTH",
"-15 1419 LINE SMOOTH",
"-37 1419 OFFCURVE",
"-49 1393 OFFCURVE",
"-49 1378 CURVE SMOOTH",
"-49 1348 OFFCURVE",
"-41 1344 OFFCURVE",
"-13 1341 CURVE SMOOTH",
"36 1336 OFFCURVE",
"93 1337 OFFCURVE",
"138 1254 CURVE",
"535 694 LINE",
"212 694 LINE",
"198 688 OFFCURVE",
"188 666 OFFCURVE",
"188 641 CURVE SMOOTH",
"188 625 OFFCURVE",
"196 588 OFFCURVE",
"212 587 CURVE",
"589 587 LINE",
"589 454 LINE",
"212 454 LINE",
"198 448 OFFCURVE",
"188 426 OFFCURVE",
"188 401 CURVE SMOOTH",
"188 385 OFFCURVE",
"196 348 OFFCURVE",
"212 347 CURVE",
"589 347 LINE",
"589 152 LINE SMOOTH",
"589 81 OFFCURVE",
"491 93 OFFCURVE",
"424 88 CURVE",
"399 85 OFFCURVE",
"381 72 OFFCURVE",
"381 51 CURVE SMOOTH {name = hr00;}"
);
}
);
width = 1499;
}
);
unicode = 00A5;
},
{
glyphname = plus;
layers = (
{
layerId = "62CA62AF-CD91-478A-AB8B-28A62CC47DA0";
paths = (
{
closed = 1;
nodes = (
"642 501 LINE",
"642 75 LINE",
"808 75 LINE",
"808 501 LINE",
"1210 501 LINE",
"1210 647 LINE",
"808 647 LINE",
"808 1062 LINE",
"642 1062 LINE",
"642 647 LINE",
"240 647 LINE",
"240 501 LINE {name = hr00;}"
);
}
);
width = 1440;
}
);
unicode = 002B;
},
{
glyphname = minus;
layers = (
{
layerId = "62CA62AF-CD91-478A-AB8B-28A62CC47DA0";
paths = (
{
closed = 1;
nodes = (
"1225 476 LINE",
"1225 622 LINE",
"215 622 LINE",
"215 476 LINE {name = hr00;}"
);
}
);
width = 1440;
}
);
unicode = 2212;
},
{
glyphname = multiply;
layers = (
{
layerId = "62CA62AF-CD91-478A-AB8B-28A62CC47DA0";
paths = (
{
closed = 1;
nodes = (
"368 103 LINE",
"729 469 LINE",
"1090 103 LINE",
"1192 208 LINE",
"832 573 LINE",
"1192 939 LINE",
"1090 1045 LINE",
"729 678 LINE",
"368 1045 LINE",
"266 939 LINE",
"626 573 LINE",
"266 208 LINE {name = hr00;}"
);
}
);
width = 1440;
}
);
unicode = 00D7;
},
{
glyphname = divide;
layers = (
{
components = (
{
name = period;
transform = "{1, 0, 0, 1, 398, 787}";
},
{
name = period;
transform = "{1, 0, 0, 1, 398, 20}";
}
);
layerId = "62CA62AF-CD91-478A-AB8B-28A62CC47DA0";
paths = (
{
closed = 1;
nodes = (
"1210 501 LINE",
"1210 647 LINE",
"240 647 LINE",
"240 501 LINE {name = hr00;}"
);
}
);
width = 1440;
}
);
unicode = 00F7;
},
{
glyphname = equal;
layers = (
{
layerId = "62CA62AF-CD91-478A-AB8B-28A62CC47DA0";
paths = (
{
closed = 1;
nodes = (
"1210 700 LINE",
"1210 846 LINE",
"240 846 LINE",
"240 700 LINE {name = hr00;}"
);
},
{
closed = 1;
nodes = (
"1210 272 LINE",
"1210 418 LINE",
"240 418 LINE",
"240 272 LINE"
);
}
);
width = 1440;
}
);
unicode = 003D;
},
{
glyphname = notequal;
layers = (
{
layerId = "62CA62AF-CD91-478A-AB8B-28A62CC47DA0";
paths = (
{
closed = 1;
nodes = (
"522 272 LINE",
"413 0 LINE",
"568 0 LINE",
"678 272 LINE",
"1210 272 LINE",
"1210 418 LINE",
"737 418 LINE",
"851 700 LINE",
"1210 700 LINE",
"1210 846 LINE",
"910 846 LINE",
"1037 1159 LINE",
"880 1159 LINE",
"754 846 LINE",
"240 846 LINE",
"240 700 LINE",
"695 700 LINE",
"581 418 LINE",
"240 418 LINE",
"240 272 LINE {name = hr00;}"
);
}
);
width = 1440;
}
);
unicode = 2260;
},
{
glyphname = less;
layers = (
{
layerId = "62CA62AF-CD91-478A-AB8B-28A62CC47DA0";
paths = (
{
closed = 1;
nodes = (
"1219 -11 LINE",
"1219 163 LINE",
"419 570 LINE",
"1219 984 LINE",
"1219 1160 LINE",
"221 633 LINE",
"221 514 LINE {name = hr00;}"
);
}
);
width = 1440;
}
);
unicode = 003C;
},
{
glyphname = lessequal;
layers = (
{
layerId = "62CA62AF-CD91-478A-AB8B-28A62CC47DA0";
paths = (
{
closed = 1;
nodes = (
"1177 260 LINE",
"1177 454 LINE",
"507 753 LINE",
"1177 1055 LINE",
"1177 1251 LINE",
"259 814 LINE",
"259 695 LINE {name = hr00;}"
);
},
{
closed = 1;
nodes = (
"1190 0 LINE",
"1190 146 LINE",
"280 146 LINE",
"280 0 LINE"
);
}
);
width = 1440;
}
);
unicode = 2264;
},
{
glyphname = plusminus;
layers = (
{
layerId = "62CA62AF-CD91-478A-AB8B-28A62CC47DA0";
paths = (
{
closed = 1;
nodes = (
"1180 0 LINE",
"1180 146 LINE",
"808 146 LINE",
"808 501 LINE",
"1210 501 LINE",
"1210 647 LINE",
"808 647 LINE",
"808 1062 LINE",
"642 1062 LINE",
"642 647 LINE",
"240 647 LINE",
"240 501 LINE",
"642 501 LINE",
"642 146 LINE",
"270 146 LINE",
"270 0 LINE {name = hr00;}"
);
}
);
width = 1440;
}
);
unicode = 00B1;
},
{
glyphname = approxequal;
layers = (
{
layerId = "62CA62AF-CD91-478A-AB8B-28A62CC47DA0";
paths = (
{
closed = 1;
nodes = (
"355 663 OFFCURVE",
"411 846 OFFCURVE",
"635 735 CURVE",
"729 696 OFFCURVE",
"799 639 OFFCURVE",
"913 639 CURVE SMOOTH {name = hr02;}",
"975 639 OFFCURVE",
"1065 675 OFFCURVE",
"1104 724 CURVE",
"1144 764 OFFCURVE",
"1164 807 OFFCURVE",
"1183 856 CURVE SMOOTH",
"1189 870 OFFCURVE",
"1201 905 OFFCURVE",
"1192 918 CURVE SMOOTH",
"1177 938 OFFCURVE",
"1154 959 OFFCURVE",
"1139 956 CURVE",
"1087 935 OFFCURVE",
"1021 752 OFFCURVE",
"797 863 CURVE",
"706 902 OFFCURVE",
"638 959 OFFCURVE",
"529 959 CURVE SMOOTH {name = hr03;}",
"463 959 OFFCURVE",
"379 913 OFFCURVE",
"338 864 CURVE",
"298 824 OFFCURVE",
"278 791 OFFCURVE",
"249 742 CURVE SMOOTH",
"241 729 OFFCURVE",
"241 693 OFFCURVE",
"250 680 CURVE SMOOTH",
"265 660 OFFCURVE",
"288 639 OFFCURVE",
"303 642 CURVE {name = hr01;}"
);
},
{
closed = 1;
nodes = (
"265 226 OFFCURVE",
"288 205 OFFCURVE",
"303 208 CURVE",
"355 229 OFFCURVE",
"411 412 OFFCURVE",
"635 301 CURVE",
"729 262 OFFCURVE",
"799 205 OFFCURVE",
"913 205 CURVE SMOOTH {name = hr05;}",
"975 205 OFFCURVE",
"1065 241 OFFCURVE",
"1104 290 CURVE",
"1144 330 OFFCURVE",
"1164 373 OFFCURVE",
"1183 422 CURVE SMOOTH",
"1189 436 OFFCURVE",
"1201 471 OFFCURVE",
"1192 484 CURVE SMOOTH",
"1177 504 OFFCURVE",
"1154 525 OFFCURVE",
"1139 522 CURVE",
"1087 501 OFFCURVE",
"1021 318 OFFCURVE",
"797 429 CURVE",
"706 468 OFFCURVE",
"638 525 OFFCURVE",
"529 525 CURVE SMOOTH {name = hr06;}",
"463 525 OFFCURVE",
"379 479 OFFCURVE",
"338 430 CURVE",
"298 390 OFFCURVE",
"278 357 OFFCURVE",
"249 308 CURVE SMOOTH",
"241 295 OFFCURVE",
"241 259 OFFCURVE",
"250 246 CURVE SMOOTH {name = hr04;}"
);
}
);
width = 1440;
}
);
unicode = 2248;
},
{
glyphname = asciitilde;
layers = (
{
layerId = "62CA62AF-CD91-478A-AB8B-28A62CC47DA0";
paths = (
{
closed = 1;
nodes = (
"342 434 OFFCURVE",
"384 538 OFFCURVE",
"499 538 CURVE SMOOTH {name = hr02;}",
"642 538 OFFCURVE",
"761 395 OFFCURVE",
"913 395 CURVE SMOOTH {name = hr03;}",
"1045 395 OFFCURVE",
"1138 492 OFFCURVE",
"1187 609 CURVE SMOOTH",
"1193 623 OFFCURVE",
"1201 663 OFFCURVE",
"1192 674 CURVE SMOOTH",
"1176 693 OFFCURVE",
"1154 715 OFFCURVE",
"1139 712 CURVE",
"1100 696 OFFCURVE",
"1052 592 OFFCURVE",
"934 592 CURVE SMOOTH",
"792 592 OFFCURVE",
"678 735 OFFCURVE",
"529 735 CURVE SMOOTH {name = hr04;}",
"397 735 OFFCURVE",
"307 626 OFFCURVE",
"252 518 CURVE SMOOTH",
"245 504 OFFCURVE",
"241 469 OFFCURVE",
"250 456 CURVE SMOOTH",
"265 436 OFFCURVE",
"288 415 OFFCURVE",
"303 418 CURVE {name = hr01;}"
);
}
);
width = 1440;
}
);
unicode = 007E;
},
{
glyphname = logicalnot;
layers = (
{
layerId = "62CA62AF-CD91-478A-AB8B-28A62CC47DA0";
paths = (
{
closed = 1;
nodes = (
"1049 501 LINE",
"1049 125 LINE",
"1205 125 LINE",
"1205 647 LINE",
"235 647 LINE",
"235 501 LINE {name = hr00;}"
);
}
);
width = 1440;
}
);
unicode = 00AC;
},
{
glyphname = asciicircum;
layers = (
{
layerId = "62CA62AF-CD91-478A-AB8B-28A62CC47DA0";
paths = (
{
closed = 1;
nodes = (
"388 299 LINE",
"718 1130 LINE",
"1049 299 LINE",
"1255 299 LINE",
"778 1428 LINE",
"659 1428 LINE",
"184 299 LINE {name = hr00;}"
);
}
);
width = 1440;
}
);
unicode = 005E;
},
{
glyphname = infinity;
layers = (
{
layerId = "62CA62AF-CD91-478A-AB8B-28A62CC47DA0";
paths = (
{
closed = 1;
nodes = (
"569 102 OFFCURVE",
"694 219 OFFCURVE",
"756 380 CURVE",
"852 226 OFFCURVE",
"991 102 OFFCURVE",
"1164 102 CURVE SMOOTH {name = hr02;}",
"1404 102 OFFCURVE",
"1591 269 OFFCURVE",
"1591 589 CURVE SMOOTH",
"1591 860 OFFCURVE",
"1495 1046 OFFCURVE",
"1233 1046 CURVE SMOOTH",
"1084 1046 OFFCURVE",
"931 919 OFFCURVE",
"878 768 CURVE",
"778 942 OFFCURVE",
"648 1046 OFFCURVE",
"472 1046 CURVE SMOOTH",
"232 1046 OFFCURVE",
"45 879 OFFCURVE",
"45 559 CURVE SMOOTH",
"45 308 OFFCURVE",
"176 102 OFFCURVE",
"403 102 CURVE SMOOTH {name = hr01;}"
);
},
{
closed = 1;
nodes = (
"282 341 OFFCURVE",
"151 427 OFFCURVE",
"151 562 CURVE SMOOTH",
"151 743 OFFCURVE",
"270 819 OFFCURVE",
"407 819 CURVE SMOOTH",
"562 819 OFFCURVE",
"645 574 OFFCURVE",
"707 466 CURVE",
"670 404 OFFCURVE",
"565 341 OFFCURVE",
"422 341 CURVE SMOOTH"
);
},
{
closed = 1;
nodes = (
"960 747 OFFCURVE",
"1057 817 OFFCURVE",
"1184 817 CURVE SMOOTH",
"1299 817 OFFCURVE",
"1486 780 OFFCURVE",
"1486 586 CURVE SMOOTH",
"1486 419 OFFCURVE",
"1378 349 OFFCURVE",
"1229 349 CURVE SMOOTH",
"1057 349 OFFCURVE",
"953 604 OFFCURVE",
"927 675 CURVE {name = hr04;}"
);
}
);
width = 1636;
}
);
unicode = 221E;
},
{
glyphname = integral;
layers = (
{
layerId = "62CA62AF-CD91-478A-AB8B-28A62CC47DA0";
paths = (
{
closed = 1;
nodes = (
"121 -143 OFFCURVE",
"59 -217 OFFCURVE",
"68 -296 CURVE SMOOTH",
"76 -374 OFFCURVE",
"147 -448 OFFCURVE",
"330 -448 CURVE SMOOTH",
"624 -448 OFFCURVE",
"801 -170 OFFCURVE",
"801 120 CURVE SMOOTH",
"801 1107 LINE SMOOTH",
"801 1378 OFFCURVE",
"833 1446 OFFCURVE",
"859 1468 CURVE",
"1088 1272 LINE",
"1088 1270 OFFCURVE",
"1099 1269 OFFCURVE",
"1099 1269 CURVE",
"1164 1268 OFFCURVE",
"1226 1342 OFFCURVE",
"1217 1421 CURVE SMOOTH",
"1209 1499 OFFCURVE",
"1138 1573 OFFCURVE",
"955 1573 CURVE SMOOTH",
"661 1573 OFFCURVE",
"485 1305 OFFCURVE",
"485 1025 CURVE SMOOTH",
"485 18 LINE SMOOTH",
"485 -292 OFFCURVE",
"456 -336 OFFCURVE",
"433 -350 CURVE {name = hr02;}",
"197 -147 LINE",
"197 -145 OFFCURVE",
"186 -144 OFFCURVE",
"186 -144 CURVE {name = hr01;}"
);
}
);
width = 1286;
}
);
unicode = 222B;
},
{
glyphname = Omega;
layers = (
{
layerId = "62CA62AF-CD91-478A-AB8B-28A62CC47DA0";
paths = (
{
closed = 1;
nodes = (
"787 0 LINE SMOOTH",
"803 0 OFFCURVE",
"818 111 OFFCURVE",
"807 119 CURVE SMOOTH",
"658 236 OFFCURVE",
"533 451 OFFCURVE",
"533 853 CURVE SMOOTH",
"533 1231 OFFCURVE",
"696 1336 OFFCURVE",
"895 1336 CURVE SMOOTH",
"898 1336 LINE SMOOTH",
"1093 1336 OFFCURVE",
"1244 1231 OFFCURVE",
"1244 853 CURVE SMOOTH",
"1244 451 OFFCURVE",
"1116 244 OFFCURVE",
"974 119 CURVE SMOOTH",
"961 107 OFFCURVE",
"987 0 OFFCURVE",
"1004 0 CURVE SMOOTH",
"1659 0 LINE",
"1712 371 LINE SMOOTH",
"1715 394 OFFCURVE",
"1684 405 OFFCURVE",
"1669 405 CURVE SMOOTH",
"1648 405 OFFCURVE",
"1632 396 OFFCURVE",
"1624 372 CURVE",
"1574 263 OFFCURVE",
"1513 170 OFFCURVE",
"1420 170 CURVE SMOOTH",
"1169 170 LINE",
"1346 274 OFFCURVE",
"1630 523 OFFCURVE",
"1630 854 CURVE SMOOTH",
"1630 1213 OFFCURVE",
"1335 1448 OFFCURVE",
"897 1448 CURVE SMOOTH",
"458 1448 OFFCURVE",
"161 1213 OFFCURVE",
"161 854 CURVE SMOOTH",
"161 524 OFFCURVE",
"429 274 OFFCURVE",
"588 170 CURVE",
"371 170 LINE SMOOTH",
"278 170 OFFCURVE",
"217 263 OFFCURVE",
"167 372 CURVE",
"159 396 OFFCURVE",
"143 405 OFFCURVE",
"122 405 CURVE SMOOTH",
"107 405 OFFCURVE",
"76 394 OFFCURVE",
"79 371 CURVE SMOOTH",
"132 0 LINE {name = hr00;}"
);
}
);
width = 1792;
}
);
unicode = 2126;
},
{
glyphname = Delta;
layers = (
{
layerId = "62CA62AF-CD91-478A-AB8B-28A62CC47DA0";
paths = (
{
closed = 1;
nodes = (
"70 0 LINE {name = hr02;}",
"1426 0 LINE",
"1442 27 LINE",
"733 1508 LINE",
"701 1508 LINE",
"56 22 LINE {name = hr01;}"
);
},
{
closed = 1;
nodes = (
"630 1017 LINE",
"1047 119 LINE",
"225 119 LINE"
);
}
);
width = 1513;
}
);
unicode = 2206;
},
